<svg viewBox="0 0 800 800" xmlns="http://www.w3.org/2000/svg"><path d="M245.87467770126307,444.343680592425 L245.87896348159626,384.9655894843383 M656.9326723157951,206.97967608175878 L656.9711929543969,147.62138013645352 M245.87467770126307,444.343680592425 L656.9326723157951,206.97967608175878 M245.87896348159626,384.9655894843383 L656.9711929543969,147.62138013645352 M606.0603485454699,652.2969746125739 L606.0946748287894,592.9015627352655 M606.0603485454699,652.2969746125739 L245.87467770126307,444.343680592425 M606.0946748287894,592.9015627352655 L245.87896348159626,384.9655894843383 M605.5119055564202,177.33141356798168 L605.5461404211068,117.97559201539991 M656.9326723157951,206.97967608175878 L605.5119055564202,177.33141356798168 M656.9711929543969,147.62138013645352 L605.5461404211068,117.97559201539991 M143.03309282593625,444.343680592425 L605.5119055564202,177.33141356798168 M143.03309282593625,444.343680592425 L554.6395761331405,682.0244079846 M554.6395761331405,682.0244079846 L606.0603485454699,652.2969746125739 M616.6723288210857,200.55543286037488 L613.2228620548062,198.99692116721994 M613.2228620548062,198.99692116721994 L609.2277917930645,197.95978754204083 M609.2277917930645,197.95978754204083 L604.9193263274099,197.5042688168536 M604.9193263274099,197.5042688168536 L600.5478227365824,197.65684421499864 M600.5478227365824,197.65684421499864 L596.3672967631286,198.40865967914462 M596.3672967631286,198.40865967914462 L592.6207169616431,199.71601106554004 M592.6207169616431,199.71601106554004 L589.525778980239,201.50294934085926 M589.525778980239,201.50294934085926 L587.2623793268274,203.66561948597789 M587.2623793268274,203.66561948597789 L585.962037059787,206.07836451287903 M585.962037059787,206.07836451287903 L585.7003408227833,208.60097339370816 M585.7003408227833,208.60097339370816 L586.4925645805641,211.08681682762747 M586.4925645805641,211.08681682762747 L588.2926692523215,213.39143070049167 M588.2926692523215,213.39143070049167 L590.9960391627751,215.3808810604079 M590.9960391627751,215.3808810604079 L594.445567370913,216.93953620658172 M594.445567370913,216.93953620658172 L598.4407749049666,217.9767992724676 M598.4407749049666,217.9767992724676 L602.7494798436244,218.43237038931403 M602.7494798436244,218.43237038931403 L607.1212682053698,218.2797571520335 M607.1212682053698,218.2797571520335 L611.3020078741254,217.52785952568632 M611.3020078741254,217.52785952568632 L615.0487054964998,216.22037672829296 M615.0487054964998,216.22037672829296 L618.1436433080122,214.43329070685203 M618.1436433080122,214.43329070685203 L620.4069248396731,212.2704903286631 M620.4069248396731,212.2704903286631 L621.7070532183918,209.85765960490463 M621.7070532183918,209.85765960490463 L621.9684646435215,207.33505294498036 M621.9684646435215,207.33505294498036 L621.1760015332267,204.84926190252386 M621.1760015332267,204.84926190252386 L619.375759843488,202.5447397677075 M619.375759843488,202.5447397677075 L616.6723288210857,200.55543286037488 M546.4853976706797,241.08125360538395 L543.0358455352746,239.52238707142294 M543.0358455352746,239.52238707142294 L539.0405249984763,238.48501731327715 M539.0405249984763,238.48501731327715 L534.7316589060108,238.0293948765143 M534.7316589060108,238.0293948765143 L530.3596276120373,238.18200501270053 M530.3596276120373,238.18200501270053 L526.1784775176704,238.9339916488049 M526.1784775176704,238.9339916488049 L522.4312134506512,240.24164069141403 M522.4312134506512,240.24164069141403 L519.3355708143739,242.02898581648944 M519.3355708143739,242.02898581648944 L517.0714544160539,244.19216721602322 M517.0714544160539,244.19216721602322 L515.7705210346803,246.60544272744878 M515.7705210346803,246.60544272744878 L515.5082975964973,249.12862596623313 M515.5082975964973,249.12862596623313 L516.3001213769838,251.61503539118144 M516.3001213769838,251.61503539118144 L518.0999765423234,253.92017399522405 M518.0999765423234,253.92017399522405 L520.8032619189163,255.91007733033956 M520.8032619189163,255.91007733033956 L524.2528754818811,257.4690873663154 M524.2528754818811,257.4690873663154 L528.2483333004384,258.5065866072315 M528.2483333004384,258.5065866072315 L532.5574389100998,258.96226145354774 M532.5574389100998,258.96226145354774 L536.9297550438056,258.80961346758284 M536.9297550438056,258.80961346758284 L541.1110862409773,258.05756349785105 M541.1110862409773,258.05756349785105 L544.8585008387474,256.74976414259106 M544.8585008387474,256.74976414259106 L547.9541433342293,254.96227122093177 M547.9541433342293,254.96227122093177 L550.2181089524622,252.7989783991485 M550.2181089524622,252.7989783991485 L551.5188610710707,250.38559830642868 M551.5188610710707,250.38559830642868 L551.7807996355793,247.86241728702728 M551.7807996355793,247.86241728702728 L550.9887364377503,245.37606027143593 M550.9887364377503,245.37606027143593 L549.1887442014248,243.07101343892026 M549.1887442014248,243.07101343892026 L546.4853976706797,241.08125360538395 M476.2824691349806,281.6163112148375 L472.8328316809682,280.0570897187891 M472.8328316809682,280.0570897187891 L468.8372771900147,279.0194743174401 M468.8372771900147,279.0194743174401 L464.5280103999719,278.56374813367836 M464.5280103999719,278.56374813367836 L460.1554349442549,278.71640244928335 M460.1554349442549,278.71640244928335 L455.973676884705,279.46855088629815 M455.973676884705,279.46855088629815 L452.2257120057503,280.7765071164094 M452.2257120057503,280.7765071164094 L449.12936447375546,282.5642592302988 M449.12936447375546,282.5642592302988 L446.86458005928966,284.72792377164023 M446.86458005928966,284.72792377164023 L445.56300633127717,287.14175823625834 M445.56300633127717,287.14175823625834 L445.3002717909676,289.6655065992195 M445.3002717909676,289.6655065992195 L446.0916953914639,292.1524822085209 M446.0916953914639,292.1524822085209 L447.8912845574474,294.45815515332055 M447.8912845574474,294.45815515332055 L450.5944852915792,296.4485116184644 M450.5944852915792,296.4485116184644 L454.0441841588372,298.00787666554567 M454.0441841588372,298.00787666554567 L458.03990860495287,299.045602731629 M458.03990860495287,299.045602731629 L462.349414956396,299.5013813428465 M462.349414956396,299.5013813428465 L466.72224265672423,299.34870802693354 M466.72224265672423,299.34870802693354 L470.90421454013904,298.5964773721907 M470.90421454013904,298.5964773721907 L474.6522973462037,297.2883896404165 M474.6522973462037,297.2883896404165 L477.74864476651976,295.50048967945816 M477.74864476651976,295.50048967945816 L480.013311056102,293.33669481547463 M480.013311056102,293.33669481547463 L481.3146708333692,290.9227745963055 M481.3146708333692,290.9227745963055 L481.5771531021444,288.3990095910858 M481.5771531021444,288.3990095910858 L480.7854900194516,285.91208640904364 M480.7854900194516,285.91208640904364 L478.9857310654911,283.60652412938396 M478.9857310654911,283.60652412938396 L476.2824691349806,281.6163112148375 M406.0635540790736,322.16059941525225 L402.61383135703386,320.60102283586264 M402.61383135703386,320.60102283586264 L398.61802657386,319.5631711380023 M398.61802657386,319.5631711380023 L394.3083590153632,319.10734117177793 M394.3083590153632,319.10734117177793 L389.93527193391856,319.26002081965487 M389.93527193391856,319.26002081965487 L385.75287306991675,320.012349975137 M385.75287306991675,320.012349975137 L382.0042234924506,321.320604067058 M382.0042234924506,321.320604067058 L378.9071871597289,323.1087538769238 M378.9071871597289,323.1087538769238 L376.6417181477815,325.27291115590407 M376.6417181477815,325.27291115590407 L375.3395038152032,327.68730476572773 M375.3395038152032,327.68730476572773 L375.0762579467738,330.2116184448406 M375.0762579467738,330.2116184448406 L375.86726482817426,332.69916986427916 M375.86726482817426,332.69916986427916 L377.66662049963804,335.00535846857923 M377.66662049963804,335.00535846857923 L380.36972014629885,336.99617765103955 M380.36972014629885,336.99617765103955 L383.8195206036162,338.5558883978204 M383.8195206036162,338.5558883978204 L387.81547902246916,339.593860230903 M387.81547902246916,339.593860230903 L392.125402522791,340.04973320973227 M392.125402522791,340.04973320973227 L396.4987419093768,339.8970345562918 M396.4987419093768,339.8970345562918 L400.6813546624343,339.14462315373964 M400.6813546624343,339.14462315373964 L404.43012221976164,337.8362375153679 M404.43012221976164,337.8362375153679 L407.52715846994136,336.0479398087051 M407.52715846994136,336.0479398087051 L409.79250935585196,333.88365216237963 M409.79250935585196,333.88365216237963 L411.09450970559556,331.46917276858227 M411.09450970559556,331.46917276858227 L411.3575032489856,328.94484244145787 M411.3575032489856,328.94484244145787 L410.5662404842998,326.45735289942905 M410.5662404842998,326.45735289942905 L408.7667313007247,324.15126556558084 M408.7667313007247,324.15126556558084 L406.0635540790736,322.16059941525225 M335.82866338043175,362.71411192599294 L332.3788472716259,361.1541848589752 M332.3788472716259,361.1541848589752 L328.38280035527714,360.1160920669918 M328.38280035527714,360.1160920669918 L324.0727319576189,359.6601582828735 M324.0727319576189,359.6601582828735 L319.6991086223629,359.8128774213068 M319.6991086223629,359.8128774213068 L315.5160851095691,360.56537792424166 M315.5160851095691,360.56537792424166 L311.7667587886491,361.8739252627392 M311.7667587886491,361.8739252627392 L308.6690007429007,363.6624917713043 M308.6690007429007,363.6624917713043 L306.402855050032,365.8271372393127 M306.402855050032,365.8271372393127 L305.10001619456955,368.242080752252 M305.10001619456955,368.242080752252 L304.8362342620784,370.7669740910944 M304.8362342620784,370.7669740910944 L305.6268568939837,373.25508264955846 M305.6268568939837,373.25508264955846 L307.4259544078268,375.56180124030004 M307.4259544078268,375.56180124030004 L310.12897736100024,377.5530691471691 M310.12897736100024,377.5530691471691 L313.5788548550413,379.11313986284733 M313.5788548550413,379.11313986284733 L317.57507175964395,380.1513433956693 M317.57507175964395,380.1513433956693 L321.8853798071459,380.6073296430725 M321.8853798071459,380.6073296430725 L326.2592555095,380.4545914921617 M326.2592555095,380.4545914921617 L330.4424929759409,379.7020087138545 M330.4424929759409,379.7020087138545 L334.1919373295774,378.3933297844664 M334.1919373295774,378.3933297844664 L337.28969532193935,376.6046153277931 M337.28969532193935,376.6046153277931 L339.55572288754956,374.4398394481736 M339.55572288754956,374.4398394481736 L340.85834772871135,372.0248101221527 M340.85834772871135,372.0248101221527 L341.1218772812347,369.49990012950997 M341.1218772812347,369.49990012950997 L340.3310150373479,367.0118440341342 M340.3310150373479,367.0118440341342 L338.53174761517096,364.705236183874 M338.53174761517096,364.705236183874 L335.82866338043175,362.71411192599294 M286.41607082539923,494.9679562843149 L289.73488828883677,493.2102972305616 M289.73488828883677,493.2102972305616 L292.20369561240085,491.0354725289194 M292.20369561240085,491.0354725289194 L293.67103348973586,488.5769053179266 M293.67103348973586,488.5769053179266 L294.04691169871865,485.98543096125724 M294.04691169871865,485.98543096125724 L293.3083020855465,483.42003788533356 M293.3083020855465,483.42003788533356 L291.5005254947763,481.03809177610407 M291.5005254947763,481.03809177610407 L288.7345050012573,478.98571181875246 M288.7345050012573,478.98571181875246 L285.1799343105771,477.38879072097194 M285.1799343105771,477.38879072097194 L281.054867482512,476.3452819846059 M281.054867482512,476.3452819846059 L276.61235584920655,475.91919473036404 M276.61235584920655,475.91919473036404 L272.12489603229136,476.1366561366098 M272.12489603229136,476.1366561366098 L267.86776888460696,476.98433217669714 M267.86776888460696,476.98433217669714 L264.1021197573805,478.41023345395365 M264.1021197573805,478.41023345395365 L261.05893590941037,480.32688919984435 M261.05893590941037,480.32688919984435 L257.74009699556785,482.08442114654133 M257.74009699556785,482.08442114654133 L255.27114133692567,484.25913657643997 M255.27114133692567,484.25913657643997 L253.80355627347456,486.71764419967786 M253.80355627347456,486.71764419967786 L253.42738458587849,489.30912920773926 M253.42738458587849,489.30912920773926 L254.16571925059156,491.874607090397 M254.16571925059156,491.874607090397 L255.97330019733755,494.25669868539154 M255.97330019733755,494.25669868539154 L258.7392515412387,496.3092539923631 M258.7392515412387,496.3092539923631 L262.29389145842896,497.90634529279333 M262.29389145842896,497.90634529279333 L266.4191539908652,498.9499797414972 M266.4191539908652,498.9499797414972 L270.86194060375925,499.3761220833199 M270.86194060375925,499.3761220833199 L275.34969389534547,499.15863230740814 M275.34969389534547,499.15863230740814 L279.60706819240676,498.31085075002574 M279.60706819240676,498.31085075002574 L283.3728655949503,496.88479017989437 M283.3728655949503,496.88479017989437 L286.41607082539923,494.9679562843149 M354.7569993186655,536.9024398739928 L357.4596961589731,534.9093946053317 M357.4596961589731,534.9093946053317 L359.2578022755861,532.6006069098835 M359.2578022755861,532.6006069098835 L360.0468499110367,530.1102716494534 M360.0468499110367,530.1102716494534 L359.78100093736975,527.5831234258212 M359.78100093736975,527.5831234258212 L358.4757072609232,525.1660187192197 M358.4757072609232,525.1660187192197 L356.20686165632196,522.9994313467969 M356.20686165632196,522.9994313467969 L353.10634773629204,521.2092736666914 M353.10634773629204,521.2092736666914 L349.35432163064513,519.8995505742348 M349.35432163064513,519.8995505742348 L345.1688435251168,519.1463766526335 M345.1688435251168,519.1463766526335 L340.79315343221583,518.9935255659274 M340.79315343221583,518.9935255659274 L336.48149396896997,519.4498579262045 M336.48149396896997,519.4498579262045 L332.48447224099925,520.4888844379557 M332.48447224099925,520.4888844379557 L329.03431380455413,522.050202781716 M329.03431380455413,522.050202781716 L326.3315718704823,524.0431136513098 M326.3315718704823,524.0431136513098 L324.5332792535579,526.3517810147874 M324.5332792535579,526.3517810147874 L323.74400810453744,528.8420731844517 M323.74400810453744,528.8420731844517 L324.00960448488433,531.3692380848067 M324.00960448488433,531.3692380848067 L325.31468402342,533.7864287189188 M325.31468402342,533.7864287189188 L327.5834114956406,535.9531466786636 M327.5834114956406,535.9531466786636 L330.6839254769685,537.7434525047461 M330.6839254769685,537.7434525047461 L334.43606982355004,539.0533073649542 M334.43606982355004,539.0533073649542 L338.621762136632,539.8065636731912 M338.621762136632,539.8065636731912 L342.9977048376305,539.9594337968192 M342.9977048376305,539.9594337968192 L347.3095877709733,539.5030394605724 M347.3095877709733,539.5030394605724 L351.3067959074905,538.4639115020886 M351.3067959074905,538.4639115020886 L354.7569993186655,536.9024398739928 M425.0766378637154,577.5048856544429 L427.7792493075784,575.5113861820726 M427.7792493075784,575.5113861820726 L429.5771046408628,573.2020723301841 M429.5771046408628,573.2020723301841 L430.3657506892374,570.7111695437254 M430.3657506892374,570.7111695437254 L430.09935631087023,568.1834359639124 M430.09935631087023,568.1834359639124 L428.7934532331043,565.7657898724476 M428.7934532331043,565.7657898724476 L426.5239215289664,563.5987087634398 M426.5239215289664,563.5987087634398 L423.4226846890889,561.8081336878474 M423.4226846890889,561.8081336878474 L419.6699726112878,560.498112129859 M419.6699726112878,560.498112129859 L415.4838853462188,559.7447760165289 M415.4838853462188,559.7447760165289 L411.1076501847956,559.5918806531793 M411.1076501847956,559.5918806531793 L406.7956058867535,560.0483264485365 M406.7956058867535,560.0483264485365 L402.7983174517676,561.08758029347 M402.7983174517676,561.08758029347 L399.3480904013012,562.649263882679 M399.3480904013012,562.649263882679 L396.6454174678987,564.6426194642991 M396.6454174678987,564.6426194642991 L394.8473919270224,566.951822388819 M394.8473919270224,566.951822388819 L394.0585059465127,569.4426726237882 M394.0585059465127,569.4426726237882 L394.3246476761577,571.9704228862265 M394.3246476761577,571.9704228862265 L395.63033658515087,574.388154934046 M395.63033658515087,574.388154934046 L397.89975015548566,576.5553666749702 M397.89975015548566,576.5553666749702 L401.0009870859161,578.3460899479655 M401.0009870859161,578.3460899479655 L404.7538174578815,579.6562433187532 M404.7538174578815,579.6562433187532 L408.94011899460236,580.4096618460294 M408.94011899460236,580.4096618460294 L413.3166068265783,580.5625762537779 M413.3166068265783,580.5625762537779 L417.6288909925345,580.1060779067345 M417.6288909925345,580.1060779067345 L421.6263494995528,579.0667131348391 M421.6263494995528,579.0667131348391 L425.0766378637154,577.5048856544429 M495.4123028133906,618.1165850550526 L498.11482875169054,616.1226312236897 M498.11482875169054,616.1226312236897 L499.9124167785301,613.812781588211 M499.9124167785301,613.812781588211 L500.70066103637316,611.3213110818324 M500.70066103637316,611.3213110818324 L500.43375373549077,608.7930108387827 M500.43375373549077,608.7930108387827 L499.1272082888959,606.3748042845707 M499.1272082888959,606.3748042845707 L496.8570065931393,604.2072387170585 M496.8570065931393,604.2072387170585 L493.75506294582317,602.4162555488733 M493.75506294582317,602.4162555488733 L490.0016483192069,601.1059259766539 M490.0016483192069,601.1059259766539 L485.81495172562086,600.3524276172238 M485.81495172562086,600.3524276172238 L481.4381713608524,600.1994879610177 M481.4381713608524,600.1994879610177 L477.125725803672,600.6560377847397 M477.125725803672,600.6560377847397 L473.1282033656273,601.6955379326932 M473.1282033656273,601.6955379326932 L469.67789139862407,603.2575774466666 M469.67789139862407,603.2575774466666 L466.97530392836643,605.2513873380838 M466.97530392836643,605.2513873380838 L465.1775129102489,607.5611071140634 M465.1775129102489,607.5611071140634 L464.38902865521266,610.0525250509854 M464.38902865521266,610.0525250509854 L464.65571597584665,612.5808608767038 M464.65571597584665,612.5808608767038 L465.96201449917703,614.9991345222516 M465.96201449917703,614.9991345222516 L468.2321307828722,617.1668496606146 M468.2321307828722,617.1668496606146 L471.33407455001577,618.9579810768705 M471.33407455001577,618.9579810768705 L475.0875748008974,620.2684236126829 M475.0875748008974,620.2684236126829 L479.2745184538867,621.0220233086432 M479.2745184538867,621.0220233086432 L483.6515188277913,621.1749631214193 M483.6515188277913,621.1749631214193 L487.96420429718205,620.7183607280438 M487.96420429718205,620.7183607280438 L491.9619295471208,619.6787685094084 M491.9619295471208,619.6787685094084 L495.4123028133906,618.1165850550526 M565.763983281223,658.7375317899928 L568.4664236047932,656.7431234443889 M568.4664236047932,656.7431234443889 L570.2637605225135,654.4327472905936 M570.2637605225135,654.4327472905936 L571.0516027861681,651.9407088701832 M571.0516027861681,651.9407088701832 L570.7841659702428,649.4118323220689 M570.7841659702428,649.4118323220689 L569.4769942615115,646.9930745615604 M569.4769942615115,646.9930745615604 L567.2061059623443,644.8250149220682 M567.2061059623443,644.8250149220682 L564.1034552660922,643.0336235218558 M564.1034552660922,643.0336235218558 L560.3493869629782,641.7230141753303 M560.3493869629782,641.7230141753303 L556.1620317770205,640.9693251692004 M556.1620317770205,640.9693251692004 L551.7847224388743,640.8163506526253 M551.7847224388743,640.8163506526253 L547.4718755516357,641.27300454028 M547.4718755516357,641.27300454028 L543.4741027431188,642.3127416277628 M543.4741027431188,642.3127416277628 L540.0237059105059,643.8751371881101 M540.0237059105059,643.8751371881101 L537.3212040125356,645.8694015445506 M537.3212040125356,645.8694015445506 L535.52366403536,648.179647796597 M535.52366403536,648.179647796597 L534.7355817094282,650.6716336295758 M534.7355817094282,650.6716336295758 L535.0027984980244,653.2005457705068 M535.0027984980244,653.2005457705068 L536.3097559745034,655.6193895462127 M536.3097559745034,655.6193895462127 L538.5805261378503,657.7875799066433 M538.5805261378503,657.7875799066433 L541.6831769832243,659.5791196056173 M541.6831769832243,659.5791196056173 L545.4373636862395,660.8898608539437 M545.4373636862395,660.8898608539437 L549.6249332738718,661.6436323318064 M549.6249332738718,661.6436323318064 L554.0024626752974,661.7966070070242 M554.0024626752974,661.7966070070242 L558.3155495190542,661.339900531741 M558.3155495190542,661.339900531741 L562.3135251637876,660.3000713399404 M562.3135251637876,660.3000713399404 L565.763983281223,658.7375317899928 M605.5461404211068,117.97559201539991 L143.02880704560306,384.9655894843383 M143.02880704560306,384.9655894843383 L554.6696166411364,622.626521713755 M554.6696166411364,622.626521713755 L606.0946748287894,592.9015627352655 M616.7074954730992,141.197673036398 L619.4111518625483,143.1868139283598 M619.4111518625483,143.1868139283598 L621.2115437256753,145.49114374418775 M621.2115437256753,145.49114374418775 L622.0040730898118,147.97672734303094 M622.0040730898118,147.97672734303094 L621.742640143437,150.49912348996958 M621.742640143437,150.49912348996958 L620.4424037144239,152.9117528643936 M620.4424037144239,152.9117528643936 L618.178933881827,155.0743727604516 M618.178933881827,155.0743727604516 L615.0837384581883,156.8613096541574 M615.0837384581883,156.8613096541574 L611.3367288864667,158.16868334641845 M611.3367288864667,158.16868334641845 L607.1556410591292,158.92051822974784 M607.1556410591292,158.92051822974784 L602.7834885667746,159.07311873206223 M602.7834885667746,159.07311873206223 L598.4744246942042,158.61758563084118 M598.4744246942042,158.61758563084118 L594.478884285218,157.58040912085784 M594.478884285218,157.58040912085784 L591.0290686074029,156.02188403984192 M591.0290686074029,156.02188403984192 L588.3254733400698,154.0325996953203 M588.3254733400698,154.0325996953203 L586.525218520461,151.72817813988965 M586.525218520461,151.72817813988965 L585.7329285487073,149.24254214959254 M585.7329285487073,149.24254214959254 L585.9946463518535,146.72014378341754 M585.9946463518535,146.72014378341754 L587.295096704573,144.30760010568937 M587.295096704573,144.30760010568937 L589.5586846786962,142.1451104427291 M589.5586846786962,142.1451104427291 L592.653880272269,140.35832129512085 M592.653880272269,140.35832129512085 L596.4007720034015,139.0510790137867 M596.4007720034015,139.0510790137867 L600.5816461001003,138.29932629279193 M600.5816461001003,138.29932629279193 L604.9535137766503,138.14676362793864 M604.9535137766503,138.14676362793864 L609.2623381363185,138.60224433750903 M609.2623381363185,138.60224433750903 L613.2577412473921,139.6392914083773 M613.2577412473921,139.6392914083773 L616.7074954730992,141.197673036398 M546.5147217782177,181.72011210995285 L549.2182936619746,183.7097059280475 M549.2182936619746,183.7097059280475 L551.0184360301778,186.01456044149361 M551.0184360301778,186.01456044149361 L551.8105654152754,188.50071001338497 M551.8105654152754,188.50071001338497 L551.5486052417525,191.02368051971388 M551.5486052417525,191.02368051971388 L550.247744968984,193.4368592630172 M550.247744968984,193.4368592630172 L547.983590935889,195.5999716025966 M547.983590935889,195.5999716025966 L544.8876907109147,197.38731539646113 M544.8876907109147,197.38731539646113 L541.1399640470947,198.69500564497235 M541.1399640470947,198.69500564497235 L536.9582845900832,199.44699287323485 M536.9582845900832,199.44699287323485 L532.5856042378416,199.59962812422845 M532.5856042378416,199.59962812422845 L528.2761396275046,199.14399129355263 M528.2761396275046,199.14399129355263 L524.2803488922962,198.1065786085732 M524.2803488922962,198.1065786085732 L520.8304478454037,196.54769863780726 M520.8304478454037,196.54769863780726 L518.1269371259765,194.55796131815302 M518.1269371259765,194.55796131815302 L516.3269318543097,192.253015031622 M516.3269318543097,192.253015031622 L515.5350419264398,189.76681305038102 M515.5350419264398,189.76681305038102 L515.7972870185491,187.2438403263381 M515.7972870185491,187.2438403263381 L517.0983285867568,184.83076616259686 M517.0983285867568,184.83076616259686 L519.3626334224335,182.66776524687123 M519.3626334224335,182.66776524687123 L522.4585337882382,180.88056924957033 M522.4585337882382,180.88056924957033 L526.2061098988748,179.57302931206956 M526.2061098988748,179.57302931206956 L530.387608220448,178.82110541914378 M530.387608220448,178.82110541914378 L534.7600036880535,178.66850801625472 M534.7600036880535,178.66850801625472 L539.0692287412844,179.12409243738435 M539.0692287412844,179.12409243738435 L543.0648821691307,180.16137564118185 M543.0648821691307,180.16137564118185 L546.5147217782177,181.72011210995285 M476.3059480348992,222.25178804584903 L479.0094353043594,224.24183494489594 M479.0094353043594,224.24183494489594 L480.809344350007,226.54720490620647 M480.809344350007,226.54720490620647 L481.60107355334446,229.0339206444781 M481.60107355334446,229.0339206444781 L481.33856958636784,231.5574751357682 M481.33856958636784,231.5574751357682 L480.03710155237206,233.9711940062408 M480.03710155237206,233.9711940062408 L477.772246732579,236.1348083871751 M477.772246732579,236.1348083871751 L474.67564146534414,237.92255922029062 M474.67564146534414,237.92255922029062 L470.92724648055116,239.23053784606776 M470.92724648055116,239.23053784606776 L466.74492623191645,239.98270575853473 M466.74492623191645,239.98270575853473 L462.37173422645435,240.1353663402592 M462.37173422645435,240.1353663402592 L458.061868807555,239.67962574469405 M458.061868807555,239.67962574469405 L454.0658114017067,238.64198623378832 M454.0658114017067,238.64198623378832 L450.6158250362828,237.08275125195854 M450.6158250362828,237.08275125195854 L447.9123989733895,235.09256080232979 M447.9123989733895,235.09256080232979 L446.1126597440035,232.78708017589145 M446.1126597440035,232.78708017589145 L445.3211700627637,230.30031201036627 M445.3211700627637,230.30031201036627 L445.5839263434815,227.77677416143112 M445.5839263434815,227.77677416143112 L446.8856083636232,225.36314104535285 M446.8856083636232,225.36314104535285 L449.1505813280762,223.19965698709555 M449.1505813280762,223.19965698709555 L452.2471867070177,221.41205400103294 M452.2471867070177,221.41205400103294 L455.9954637449739,220.1042068768553 M455.9954637449739,220.1042068768553 L460.17757013437495,219.3521211822546 M460.17757013437495,219.3521211822546 L464.5505098530258,219.19947960073785 M464.5505098530258,219.19947960073785 L468.8601356706034,219.65516776885306 M468.8601356706034,219.65516776885306 L472.85602309296337,220.69269661503645 M472.85602309296337,220.69269661503645 L476.3059480348992,222.25178804584903 M406.08118510822374,262.7926945716522 L408.78458765473533,264.78319470643623 M408.78458765473533,264.78319470643623 L410.5842468884075,267.08908972188397 M410.5842468884075,267.08908972188397 L411.3755757070634,269.5763718200878 M411.3755757070634,269.5763718200878 L411.11256037894645,272.10049163401493 M411.11256037894645,272.10049163401493 L409.8104516671232,274.51476967827836 M409.8104516671232,274.51476967827836 L407.5449121369487,276.6788768415097 M407.5449121369487,276.6788768415097 L404.4476179237246,278.4670254210799 M404.4476179237246,278.4670254210799 L400.6985380735773,279.77530195342814 M400.6985380735773,279.77530195342814 L396.51557684987483,280.52765061290285 M396.51557684987483,280.52765061290285 L392.1418730715262,280.6803365329382 M392.1418730715262,280.6803365329382 L387.8315904355893,280.22450156898384 M387.8315904355893,280.22450156898384 L383.83529901663974,279.1866162918864 M383.83529901663974,279.1866162918864 L380.3852110455706,277.62703560960205 M380.3852110455706,277.62703560960205 L377.68188608560854,275.63638244348437 M377.68188608560854,275.63638244348437 L375.88238039098667,273.33038615680715 M375.88238039098667,273.33038615680715 L375.0913074968944,270.8430421819844 M375.0913074968944,270.8430421819844 L375.3545751922711,268.3189390161656 M375.3545751922711,268.3189390161656 L376.6568979223374,265.90474675572165 M376.6568979223374,265.90474675572165 L378.9225555983253,263.74076995987406 M378.9225555983253,263.74076995987406 L382.0198498941121,261.95276927708915 M382.0198498941121,261.95276927708915 L385.76881174465814,260.6446242911318 M385.76881174465814,260.6446242911318 L389.95155904392004,259.89235787886787 M389.95155904392004,259.89235787886787 L394.325010474912,259.7396909642962 M394.325010474912,259.7396909642962 L398.6350371277308,260.1954829148633 M398.6350371277308,260.1954829148633 L402.63117488403157,261.23324805753407 M402.63117488403157,261.23324805753407 L406.08118510822374,262.7926945716522 M335.8404438756605,303.34282540777605 L338.5437534204634,305.3337836496872 M338.5437534204634,305.3337836496872 L340.3431708517877,307.6401991819038 M340.3431708517877,307.6401991819038 L341.1340990829194,310.12804783341625 M341.1340990829194,310.12804783341625 L340.87054765704454,312.6527473124306 M340.87054765704454,312.6527473124306 L339.5678143497495,315.06757528888215 M339.5678143497495,315.06757528888215 L337.30159802644005,317.2321706857701 M337.30159802644005,317.2321706857701 L334.2035819521261,319.0207360145392 M334.2035819521261,319.0207360145392 L330.45382519220504,320.32930583827925 M330.45382519220504,320.32930583827925 L326.27023915100995,321.0818258734988 M326.27023915100995,321.0818258734988 L321.8959989681921,321.2345512906092 M321.8959989681921,321.2345512906092 L317.58533171961994,320.77860305887367 M317.58533171961994,320.77860305887367 L313.58878177251324,319.74048608165754 M313.58878177251324,319.74048608165754 L310.13861675118767,318.1805454308906 M310.13861675118767,318.1805454308906 L307.43536849815985,316.189443539999 M307.43536849815985,316.189443539999 L305.636121003484,313.88291726730677 M305.636121003484,313.88291726730677 L304.84543242426764,311.3950161527089 M304.84543242426764,311.3950161527089 L305.10923627234445,308.87033332759216 M305.10923627234445,308.87033332759216 L306.41218362935643,306.4555911640702 M306.41218362935643,306.4555911640702 L308.67851809970136,304.2911261788357 M308.67851809970136,304.2911261788357 L311.7765342274148,302.50270879816725 M311.7765342274148,302.50270879816725 L315.52617293486617,301.19427056526166 M315.52617293486617,301.19427056526166 L319.70954498701315,300.4418328055577 M319.70954498701315,300.4418328055577 L324.08353276050207,300.2891264008255 M324.08353276050207,300.2891264008255 L328.3939603192873,300.7450221692789 M328.3939603192873,300.7450221692789 L332.3903402498054,301.7830284056622 M332.3903402498054,301.7830284056622 L335.8404438756605,303.34282540777605 M286.42373670759946,435.5856467344749 L283.3802778382741,437.5023209268426 M283.3802778382741,437.5023209268426 L279.61416654908726,438.9282626842193 M279.61416654908726,438.9282626842193 L275.35643737398334,439.775973608824 M275.35643737398334,439.775973608824 L270.86830998694734,439.993445264666 M270.86830998694734,439.993445264666 L266.4251530157384,439.56733842673526 M266.4251530157384,439.56733842673526 L262.2995465848479,438.52379092840937 M262.2995465848479,438.52379092840937 L258.7446103297165,436.9268326905875 M258.7446103297165,436.9268326905875 L255.9784283882732,434.8744483952305 M255.9784283882732,434.8744483952305 L254.17069673028232,432.49255527011405 M254.17069673028232,432.49255527011405 L253.43230048381395,429.927291139588 M253.43230048381395,429.927291139588 L253.80850349224772,427.33602205366293 M253.80850349224772,427.33602205366293 L255.276210854407,424.87771927581036 M255.276210854407,424.87771927581036 L257.7453722845072,422.7031850477964 M257.7453722845072,422.7031850477964 L261.06448781627927,420.9457995439917 M261.06448781627927,420.9457995439917 L264.10792529956416,419.0293035013182 M264.10792529956416,419.0293035013182 L267.8738882887163,417.6035210368212 M267.8738882887163,417.6035210368212 L272.13137027324007,416.75591562951473 M272.13137027324007,416.75591562951473 L276.61920413667696,416.53847234333966 M276.61920413667696,416.53847234333966 L281.06208608245123,416.96452409368777 M281.06208608245123,416.96452409368777 L285.18749677642523,418.00794587962287 M285.18749677642523,418.00794587962287 L288.7423637934167,419.60473391483896 M288.7423637934167,419.60473391483896 L291.5086148960886,421.6569428605217 M291.5086148960886,421.6569428605217 L293.3165422306338,424.0386904999177 M293.3165422306338,424.0386904999177 L294.05521347139955,426.60386982370716 M294.05521347139955,426.60386982370716 L293.67930399050823,429.19512825823995 M293.67930399050823,429.19512825823995 L292.21184385567733,431.6534906238491 M292.21184385567733,431.6534906238491 L289.7428307853881,433.8281341236099 M289.7428307853881,433.8281341236099 L286.42373670759946,435.5856467344749 M354.7703636098887,477.51663689718777 L351.3198726164219,479.07797845999255 M351.3198726164219,479.07797845999255 L347.32233127283894,480.11701986327324 M347.32233127283894,480.11701986327324 L343.0100888758799,480.5733761838571 M343.0100888758799,480.5733761838571 L338.6337813491491,480.4205187936345 M338.6337813491491,480.4205187936345 L334.4477400520682,479.667325228478 M334.4477400520682,479.667325228478 L330.6952828497725,478.35757947429926 M330.6952828497725,478.35757947429926 L327.5945103256877,476.5674227753201 M327.5945103256877,476.5674227753201 L325.32559364635995,474.40088529868535 M325.32559364635995,474.40088529868535 L324.02040523248354,471.9838960141296 M324.02040523248354,471.9838960141296 L323.75478663355943,469.4569416270001 M323.75478663355943,469.4569416270001 L324.54412350595123,466.96685690198007 M324.54412350595123,466.96685690198007 L326.34256596884313,464.65838185615115 M326.34256596884313,464.65838185615115 L329.04553315659996,462.66563700292176 M329.04553315659996,462.66563700292176 L332.49597916647974,461.1044487236746 M332.49597916647974,461.1044487236746 L336.4933340718013,460.06550876791937 M336.4933340718013,460.06550876791937 L340.8053529600403,459.6092144225219 M340.8053529600403,459.6092144225219 L345.1814078363824,459.76205277591976 M345.1814078363824,459.76205277591976 L349.36723489044505,460.5151639542882 M349.36723489044505,460.5151639542882 L353.1195738320007,461.82477794075663 M353.1195738320007,461.82477794075663 L356.2203462947723,463.61478649375016 M356.2203462947723,463.61478649375016 L358.4893811262589,465.78119338300576 M358.4893811262589,465.78119338300576 L359.7947837134933,468.1980967401934 M359.7947837134933,468.1980967401934 L360.060654948025,470.72503445050063 M360.060654948025,470.72503445050063 L359.2715416278371,473.2151622670763 M359.2715416278371,473.2151622670763 L357.4732856949944,475.52375764409584 M357.4732856949944,475.52375764409584 L354.7703636098887,477.51663689718777 M425.09586681540827,518.115701002423 L421.64529085480353,519.6773984175562 M421.64529085480353,519.6773984175562 L417.64749909897944,520.716676634268 M417.64749909897944,520.716676634268 L413.33485540250376,521.1731369656568 M413.33485540250376,521.1731369656568 L408.95800265525395,521.0202352920975 M408.95800265525395,521.0202352920975 L404.7713520315723,520.2668795071012 M404.7713520315723,520.2668795071012 L401.01820868948244,518.9568352423189 M401.01820868948244,518.9568352423189 L397.9167130970875,517.1662610971812 M397.9167130970875,517.1662610971812 L395.64711020521713,514.9992298393288 M395.64711020521713,514.9992298393288 L394.3413123178847,512.5816991402369 M394.3413123178847,512.5816991402369 L394.07514828006606,510.05415939176794 M394.07514828006606,510.05415939176794 L394.864099918335,507.56351660061495 M394.864099918335,507.56351660061495 L396.66227526198713,505.25450599449283 M396.66227526198713,505.25450599449283 L399.3651734361878,503.26131642841915 M399.3651734361878,503.26131642841915 L402.8156880728791,501.69976290448557 M402.8156880728791,501.69976290448557 L406.8133097283152,500.6605956147456 M406.8133097283152,500.6605956147456 L411.12571351687893,500.2041878350477 M411.12571351687893,500.2041878350477 L415.5023135512695,500.3570704643048 M415.5023135512695,500.3570704643048 L419.6887498678185,501.1103438352001 M419.6887498678185,501.1103438352001 L423.4417748959253,502.4202562872206 M423.4417748959253,502.4202562872206 L426.5432703977448,504.21068223494245 M426.5432703977448,504.21068223494245 L428.8129914431968,506.37758286081777 M428.8129914431968,506.37758286081777 L430.11900353475687,508.7950276036949 M430.11900353475687,508.7950276036949 L430.38542026359914,511.3225506694389 M430.38542026359914,511.3225506694389 L429.59670859747894,513.8132460120855 M429.59670859747894,513.8132460120855 L427.7987034898082,516.1223675455863 M427.7987034898082,516.1223675455863 L425.09586681540827,518.115701002423 M495.4373990986752,558.7240187286825 L491.98673822182593,560.286072117814 M491.98673822182593,560.286072117814 L487.9886796799734,561.3255777820782 M487.9886796799734,561.3255777820782 L483.6756346131423,561.7821421598103 M483.6756346131423,561.7821421598103 L479.29826923711903,561.6292150804329 M479.29826923711903,561.6292150804329 L475.11097639143406,560.8756781275204 M475.11097639143406,560.8756781275204 L471.3571630573291,559.5653446968945 M471.3571630573291,559.5653446968945 L468.25496051031666,557.7743624084524 M468.25496051031666,557.7743624084524 L465.984654789229,555.606827753895 M465.984654789229,555.606827753895 L464.67824718449936,553.1887554562309 M464.67824718449936,553.1887554562309 L464.4115374660354,550.6606301452089 M464.4115374660354,550.6606301452089 L465.2000873118043,548.1694196520457 M465.2000873118043,548.1694196520457 L466.9980280921942,545.8598921936248 M466.9980280921942,545.8598921936248 L469.7008407889722,543.8662483177095 M469.7008407889722,543.8662483177095 L473.15144035634125,542.3043388689773 M473.15144035634125,542.3043388689773 L477.1492960552097,541.2649252769813 M477.1492960552097,541.2649252769813 L481.4621011698217,540.8084134689084 M481.4621011698217,540.8084134689084 L485.8392464971166,540.9613403902388 M485.8392464971166,540.9613403902388 L490.02629224517136,541.714776008037 M490.02629224517136,541.714776008037 L493.7800199379092,543.0249964735308 M493.7800199379092,543.0249964735308 L496.8822223650642,544.8158305138852 M496.8822223650642,544.8158305138852 L499.15261351526215,546.9832155991 M499.15261351526215,546.9832155991 L500.4592680814492,549.4012208039933 M500.4592680814492,549.4012208039933 L500.72619781974663,551.9293105338193 M500.72619781974663,551.9293105338193 L499.9378880112007,554.4205735964447 M499.9378880112007,554.4205735964447 L498.1401502532235,556.7302309128045 M498.1401502532235,556.7302309128045 L495.4373990986752,558.7240187286825 M565.7949495732266,599.3415837911882 L562.3442038310872,600.9039932759601 M562.3442038310872,600.9039932759601 L558.3458948526943,601.943735913422 M558.3458948526943,601.943735913422 L554.0324483445584,602.4004043730765 M554.0324483445584,602.4004043730765 L549.6545538527729,602.2474424312527 M549.6545538527729,602.2474424312527 L545.4666349680306,601.493733696414 M545.4666349680306,601.493733696414 L541.7121350672747,600.183101553233 M541.7121350672747,600.183101553233 L538.6092253240669,598.391710982017 M538.6092253240669,598.391710982017 L536.3382656115027,596.2237011037523 M536.3382656115027,596.2237011037523 L535.0311989464059,593.8050586774298 M535.0311989464059,593.8050586774298 L534.7639596716291,591.2763570511195 M534.7639596716291,591.2763570511195 L535.5521075212159,588.7845786618259 M535.5521075212159,588.7845786618259 L537.3497972187558,586.4745247272708 M537.3497972187558,586.4745247272708 L540.0525243289416,584.4804263862748 M540.0525243289416,584.4804263862748 L543.5032087760485,582.918160891124 M543.5032087760485,582.918160891124 L547.5013148871294,581.8785103595692 M547.5013148871294,581.8785103595692 L551.8145213987273,581.4218944875508 M551.8145213987273,581.4218944875508 L556.192195787627,581.5748562692545 M556.192195787627,581.5748562692545 L560.3799002351817,582.3284825322007 M560.3799002351817,582.3284825322007 L564.1342817161911,583.6389827736109 M564.1342817161911,583.6389827736109 L567.2371913102397,585.4302250460437 M567.2371913102397,585.4302250460437 L569.5082691784036,587.5981042033018 M569.5082691784036,587.5981042033018 L570.8155501112233,590.0166606145622 M570.8155501112233,590.0166606145622 L571.0830094529266,592.5453266495283 M571.0830094529266,592.5453266495283 L570.295101705663,595.0371576262608 M570.295101705663,595.0371576262608 L568.4976150987296,597.3473414610075 M568.4976150987296,597.3473414610075 L565.7949495732266,599.3415837911882 M554.6395761331405,682.0244079846 L554.6696166411364,622.626521713755 M143.03309282593625,444.343680592425 L143.02880704560306,384.9655894843383 M616.6723288210857,200.55543286037488 L616.7074954730992,141.197673036398 M546.4853976706797,241.08125360538395 L546.5147217782177,181.72011210995285 M476.2824691349806,281.6163112148375 L476.3059480348992,222.25178804584903 M406.0635540790736,322.16059941525225 L406.08118510822374,262.7926945716522 M335.82866338043175,362.71411192599294 L335.8404438756605,303.34282540777605 M261.06448781627927,420.9457995439917 L261.05893590941037,480.32688919984435 M286.42373670759946,435.5856467344749 L286.41607082539923,494.9679562843149 M354.7569993186655,536.9024398739928 L354.7703636098887,477.51663689718777 M425.0766378637154,577.5048856544429 L425.09586681540827,518.115701002423 M495.4123028133906,618.1165850550526 L495.4373990986752,558.7240187286825 M565.763983281223,658.7375317899928 L565.7949495732266,599.3415837911882" stroke="black"  stroke-width="4"  fill="red"/>
<path d="M276.5869256313356,525.5633236059105 L276.59148873121023,485.98771071138333 M276.59148873121023,485.98771071138333 L240.87958970824303,506.61285963214146 M240.87701040984922,546.1896174612887 L240.87958970824303,506.61285963214146 M276.5869256313356,525.5633236059105 L240.87701040984922,546.1896174612887 M345.14246385113245,565.1509353458623 L345.15083665002135,525.57312511944 M276.59148873121023,485.98771071138333 L285.8037121438132,481.9830714332045 M285.8037121438132,481.9830714332045 L296.3933552376264,479.3483546284027 M296.3933552376264,479.3483546284027 L307.76132589160727,478.23258365804105 M307.76132589160727,478.23258365804105 L319.2645094159593,478.6988631443806 M319.2645094159593,478.6988631443806 L330.2521457992318,480.7208186071855 M330.2521457992318,480.7208186071855 L340.1026488954765,484.1840926286457 M340.1026488954765,484.1840926286457 L348.25869824437837,488.8927974655004 M348.25869824437837,488.8927974655004 L354.25878279974677,494.5805769825965 M354.25878279974677,494.5805769825965 L357.76332726693283,500.92566589260184 M357.76332726693283,500.92566589260184 L358.5739132592431,507.56909303565635 M358.5739132592431,507.56909303565635 L356.64452168917364,514.1349517679489 M356.64452168917364,514.1349517679489 L352.08418106060776,520.251684698223 M352.08418106060776,520.251684698223 L345.15083665002135,525.57312511944 M345.14246385113245,565.1509353458623 L352.07542317237767,559.8291995672398 M352.07542317237767,559.8291995672398 L356.635510584572,553.7121271273068 M356.635510584572,553.7121271273068 L358.56479512812064,547.1459039436136 M358.56479512812064,547.1459039436136 L357.754254339259,540.5021080298816 M357.754254339259,540.5021080298816 L354.24990473096227,534.1566668968358 M354.24990473096227,534.1566668968358 L348.25015365072943,528.4685716340125 M348.25015365072943,528.4685716340125 L340.0945575163414,523.7596053951742 M340.0945575163414,523.7596053951742 L330.2446017287949,520.2961391069418 M330.2446017287949,520.2961391069418 L319.25757578667003,518.2740713917315 M319.25757578667003,518.2740713917315 L307.7550313091849,517.8077660188873 M307.7550313091849,517.8077660188873 L296.38769216376596,518.9235989335521 M296.38769216376596,518.9235989335521 L285.79863732203705,521.5584620084949 M285.79863732203705,521.5584620084949 L276.5869256313356,525.5633236059105 M309.43893889484764,546.2028574515291 L300.22532172941504,550.2089399113988 M300.22532172941504,550.2089399113988 L289.6335987950735,552.8447060174763 M289.6335987950735,552.8447060174763 L278.26319276661036,553.9609431765246 M278.26319276661036,553.9609431765246 L266.75763299006167,553.494466676297 M266.75763299006167,553.494466676297 L255.7681127582414,551.4716851467874 M255.7681127582414,551.4716851467874 L245.91656927988151,548.0071028992922 M245.91656927988151,548.0071028992922 L237.7605194987858,543.2968354779034 M237.7605194987858,543.2968354779034 L231.76147453346846,537.6075005243458 M231.76147453346846,537.6075005243458 L228.25881332496556,531.2611051159229 M228.25881332496556,531.2611051159229 L227.45060328596844,524.6167944901594 M227.45060328596844,524.6167944901594 L229.38243025291945,518.0505506447114 M229.38243025291945,518.0505506447114 L233.9448510328075,511.93389210259187 M233.9448510328075,511.93389210259187 L240.87958970824303,506.61285963214146 M309.43893889484764,546.2028574515291 L345.15083665002135,525.57312511944 M288.7292665342413,518.5675314953007 L285.27872538924476,517.0064973507431 M285.27872538924476,517.0064973507431 L281.2817313552846,515.9676725463166 M281.2817313552846,515.9676725463166 L276.9705496917568,515.5114145255002 M276.9705496917568,515.5114145255002 L272.59572149300067,515.6642418746355 M272.59572149300067,515.6642418746355 L268.4114756147848,516.4172755699892 M268.4114756147848,516.4172755699892 L264.66095346868315,517.7267506860313 M264.66095346868315,517.7267506860313 L261.56212381311985,519.5165821497094 M261.56212381311985,519.5165821497094 L259.29507689931893,521.6827655461602 M259.29507689931893,521.6827655461602 L257.9915666753321,524.0994137281496 M257.9915666753321,524.0994137281496 L257.7273792556688,526.6260961433807 M257.7273792556688,526.6260961433807 L258.5178868788125,529.1159724435511 M258.5178868788125,529.1159724435511 L260.3171604257295,531.4243267149461 M260.3171604257295,531.4243267149461 L263.02065622092846,533.4170032456279 M263.02065622092846,533.4170032456279 L266.4712577435548,534.9781817698436 M266.4712577435548,534.9781817698436 L270.46842184346644,536.0171174232205 M270.46842184346644,536.0171174232205 L274.7798453232572,536.4734267786491 M274.7798453232572,536.4734267786491 L279.15492807263763,536.3205815789304 M279.15492807263763,536.3205815789304 L283.3393839426798,535.5674643469335 M283.3393839426798,535.5674643469335 L287.09002522533666,534.2578581012995 M287.09002522533666,534.2578581012995 L290.1888548470612,532.4678785447722 M290.1888548470612,532.4678785447722 L292.45578256438137,530.3015640184865 M292.45578256438137,530.3015640184865 L293.75908275809684,527.8848311201975 M293.75908275809684,527.8848311201975 L294.02301561897843,525.3581308542971 M294.02301561897843,525.3581308542971 L293.2322662035707,522.8683082487939 M293.2322662035707,522.8683082487939 L291.4328226413594,520.5600648264613 M291.4328226413594,520.5600648264613 L288.7292665342413,518.5675314953007 M309.4325498972282,585.7818126123116 L309.43893889484764,546.2028574515291 M240.87701040984922,546.1896174612887 L233.94265697874152,551.510945289135 M233.94265697874152,551.510945289135 L229.3804896462487,557.6279433409834 M229.3804896462487,557.6279433409834 L227.448769976535,564.1945516377446 M227.448769976535,564.1945516377446 L228.25693507607394,570.8392310341353 M228.25693507607394,570.8392310341353 L231.75940163492567,577.1859786655248 M231.75940163492567,577.1859786655248 L237.75811324059754,582.8756293647211 M237.75811324059754,582.8756293647211 L245.91370980710747,587.5861581880051 M245.91370980710747,587.5861581880051 L255.76470586114687,591.0509327021982 M255.76470586114687,591.0509327021982 L266.7536154424831,593.0738264840663 M266.7536154424831,593.0738264840663 L278.25853590812477,593.5403288707876 M278.25853590812477,593.5403288707876 L289.62831015731297,592.424029767528 M289.62831015731297,592.424029767528 L300.2194446085985,589.7881173913033 M300.2194446085985,589.7881173913033 L309.4325498972282,585.7818126123116 M309.4325498972282,585.7818126123116 L345.14246385113245,565.1509353458623 M288.7240286493175,558.1449528864487 L285.27367923647,556.5838320968783 M285.27367923647,556.5838320968783 L281.27690728624594,555.5449496321846 M281.27690728624594,555.5449496321846 L276.9659651535668,555.0886662865303 M276.9659651535668,555.0886662865303 L272.5913800137546,555.241502118434 M272.5913800137546,555.241502118434 L268.40736659920987,555.9945776112427 M268.40736659920987,555.9945776112427 L264.65705281432895,557.3041254098357 M264.65705281432895,557.3041254098357 L261.5583953087916,559.0940562174285 M261.5583953087916,559.0940562174285 L259.29147432922457,561.2603598457283 M259.29147432922457,561.2603598457283 L257.9880365041946,563.6771421596379 M257.9880365041946,563.6771421596379 L257.72386373793114,566.2039648121035 M257.72386373793114,566.2039648121035 L258.5143274150715,568.6939793047288 M258.5143274150715,568.6939793047288 L260.3135009687413,571.0024616920639 M260.3135009687413,571.0024616920639 L263.01684653257666,572.9952488169233 M263.01684653257666,572.9952488169233 L266.46725631628624,574.5565139861753 M266.46725631628624,574.5565139861753 L270.46419831356303,575.5955072998127 M270.46419831356303,575.5955072998127 L274.7753822357478,576.0518419800105 M274.7753822357478,576.0518419800105 L279.1502218978994,575.8989882975243 M279.1502218978994,575.8989882975243 L283.33444528088086,575.1458292681107 M283.33444528088086,575.1458292681107 L287.0848781890803,573.8361503399335 M287.0848781890803,573.8361503399335 L290.18353566078457,572.046071439501 M290.18353566078457,572.046071439501 L292.4503374571175,569.879636681374 M292.4503374571175,569.879636681374 L293.7535652752721,567.4627696511373 M293.7535652752721,567.4627696511373 L294.0174835110401,564.9359291480034 M294.0174835110401,564.9359291480034 L293.226778068389,562.4459683501077 M293.226778068389,562.4459683501077 L291.4274345183153,560.1375968118282 M291.4274345183153,560.1375968118282 L288.7240286493175,558.1449528864487 M288.7292665342413,518.5675314953007 L288.7240286493175,558.1449528864487" stroke="black"  stroke-width="4"  fill="red"/>
<path d="M363.88074813668027,557.9177471846235 L363.8788656346143,565.8321662169785 M363.8788656346143,565.8321662169785 L351.98059355589373,554.6345029448503 M351.98059355589373,554.6345029448503 L335.8945169420151,545.345924307225 M335.8945169420151,545.345924307225 L316.50597541736124,538.4773195579689 M316.5073314492456,530.5632041120004 L316.50597541736124,538.4773195579689 M316.5073314492456,530.5632041120004 L335.8960884161537,537.4317326285166 M335.8960884161537,537.4317326285166 L351.98234379977964,546.7202081794621 M351.98234379977964,546.7202081794621 L363.88074813668027,557.9177471846235 M363.88074813668027,557.9177471846235 L365.2603707475547,560.3270974662685 M365.2603707475547,560.3270974662685 L365.66564567555884,562.8538718010434 M365.66564567555884,562.8538718010434 L365.0757483718728,565.3683662815426 M365.0757483718728,565.3683662815426 L363.52093971189856,567.7414987678676 M363.52093971189856,567.7414987678676 L361.08100920547145,569.8514348211042 M363.8788656346143,565.8321662169785 L365.2584729036694,568.2415432358562 M365.2584729036694,568.2415432358562 L365.66374331514487,570.7683456105624 M365.66374331514487,570.7683456105624 L365.0738525525227,573.2828679943268 M365.0738525525227,573.2828679943268 L363.51906115588145,575.6560268148653 M363.51906115588145,575.6560268148653 L361.07915774931075,577.7659862813789 M361.08100920547145,569.8514348211042 L361.07915774931075,577.7659862813789 M346.2742419435615,586.356821250643 L350.1909308109091,584.9149376025416 M350.1909308109091,584.9149376025416 L353.9113798102585,582.7516720215178 M353.9113798102585,582.7516720215178 L357.24904820427014,579.9755058567057 M357.24904820427014,579.9755058567057 L360.03657735580896,576.7256262453232 M360.03657735580896,576.7256262453232 L362.13420103524334,573.1649859371485 M362.13420103524334,573.1649859371485 L363.43673344124704,569.4721104621808 M363.43673344124704,569.4721104621808 L363.8788656346143,565.8321662169785 M308.3767815668526,564.4715511817953 L310.1851974449943,561.8124085237041 M310.1851974449943,561.8124085237041 L311.90304545700633,558.492973504659 M311.90304545700633,558.492973504659 L313.4441898654769,554.679696254751 M313.4441898654769,554.679696254751 L314.73136660862747,550.5637711056459 M314.73136660862747,550.5637711056459 L315.70003307679167,546.3515644845584 M315.70003307679167,546.3515644845584 L316.3016284642151,542.2542722408955 M316.3016284642151,542.2542722408955 L316.50597541736124,538.4773195579689 M346.2742419435615,586.356821250643 L336.7560963453642,577.3982050987936 M336.7560963453642,577.3982050987936 L323.887517676628,569.9668474046643 M323.887517676628,569.9668474046643 L308.3767815668526,564.4715511817953 M295.84862626448836,532.1832655576377 L299.5007712310368,530.7736827418805 M299.5007712310368,530.7736827418805 L303.60871753205316,529.875160221357 M303.60871753205316,529.875160221357 L307.96159628357407,529.5338093367357 M307.96159628357407,529.5338093367357 L312.3359770184726,529.7671492786167 M312.3359770184726,529.7671492786167 L316.5073314492456,530.5632041120004 M295.84749974876024,540.0973989846837 L299.49960414386874,538.6878005239628 M299.49960414386874,538.6878005239628 L303.6075048080235,537.7892680306702 M303.6075048080235,537.7892680306702 L307.9603351997175,537.4479133573568 M307.9603351997175,537.4479133573568 L312.33466733388036,537.6812558891052 M312.33466733388036,537.6812558891052 L316.50597541736124,538.4773195579689 M295.84862626448836,532.1832655576377 L295.84749974876024,540.0973989846837 M346.28267672469053,546.7844277485399 L350.19940961773455,546.1363312567046 M350.19940961773455,546.1363312567046 L353.91953696679866,546.3145080057479 M353.91953696679866,546.3145080057479 L357.2565140395425,547.3100061641496 M357.2565140395425,547.3100061641496 L360.0430056915865,549.0728973784676 M360.0430056915865,549.0728973784676 L362.13929771937865,551.5147722060797 M362.13929771937865,551.5147722060797 L363.4402822665836,554.5131710587307 M363.4402822665836,554.5131710587307 L363.88074813668027,557.9177471846235 M308.3831104657338,524.9003720260285 L310.1914978074054,523.0350583668295 M310.1914978074054,523.0350583668295 L311.90905323966035,522.0570489144977 M311.90905323966035,522.0570489144977 L313.44964640939406,522.0153552099347 M313.44964640939406,522.0153552099347 L314.7360357395984,522.9120566753926 M314.7360357395984,522.9120566753926 L315.70371810577285,524.7021647773402 M315.70371810577285,524.7021647773402 L316.30418720515956,527.2959037646376 M316.30418720515956,527.2959037646376 L316.5073314492456,530.5632041120004 M308.3831104657338,524.9003720260285 L323.894708373409,530.3953633177694 M323.894708373409,530.3953633177694 L336.76400212202,537.8263086647007 M336.76400212202,537.8263086647007 L346.28267672469053,546.7844277485399 M346.28267672469053,546.7844277485399 L346.28267672469053,546.7844277485399 M346.28267672469053,546.7844277485399 L349.57630719910765,548.7917576399916 M349.57630719910765,548.7917576399916 L352.70462240152096,551.4922199324826 M352.70462240152096,551.4922199324826 L355.51074503402924,554.7503902996657 M355.51074503402924,554.7503902996657 L357.8539571053118,558.4028863432625 M357.8539571053118,558.4028863432625 L359.61674875305016,562.2665436804671 M359.61674875305016,562.2665436804671 L360.7107131572984,566.1475975213411 M360.7107131572984,566.1475975213411 L361.08100920547145,569.8514348211042 M346.2742419435615,586.356821250643 L346.2742419435615,586.356821250643 M346.2742419435615,586.356821250643 L349.5678622511351,587.5705083707699 M349.5678622511351,587.5705083707699 L352.6965272739707,587.9296484795877 M352.6965272739707,587.9296484795877 L355.5033591023778,587.416230775395 M355.5033591023778,587.416230775395 L357.84761358452454,586.0559769621996 M357.84761358452454,586.0559769621996 L359.6117285886219,583.9170837980976 M359.6117285886219,583.9170837980976 L360.70722154071916,581.1067809494884 M360.70722154071916,581.1067809494884 L361.07915774931075,577.7659862813789 M361.08100920547145,569.8514348211042 L349.17826438138354,580.07055490789 M349.17826438138354,580.07055490789 L341.4313858673753,591.5467954370235 M341.4313858673753,591.5467954370235 L338.2155032956174,603.7251239191655 M338.2155032956174,603.7251239191655 L339.6866611446426,616.0164508241828 M339.6866611446426,616.0164508241828 L339.6850472000284,623.9315144931936 M339.6850472000284,623.9315144931936 L338.213905754797,611.6400512267865 M338.213905754797,611.6400512267865 L341.42975264609424,599.4615876275814 M341.42975264609424,599.4615876275814 L349.1765451317656,587.9852197625 M349.1765451317656,587.9852197625 L361.07915774931075,577.7659862813789 M308.3767815668526,564.4715511817953 L305.58825599372204,562.1729304869828 M305.58825599372204,562.1729304869828 L302.9397116417583,559.1959335851695 M302.9397116417583,559.1959335851695 L300.5639385505671,555.6898396684915 M300.5639385505671,555.6898396684915 L298.58005307183754,551.8304342309227 M298.58005307183754,551.8304342309227 L297.08751886166345,547.8112270059016 M297.08751886166345,547.8112270059016 L296.16118904012734,543.8337421918286 M296.16118904012734,543.8337421918286 L295.84749974876024,540.0973989846837 M308.3767815668526,564.4715511817953 L308.3767815668526,564.4715511817953 M346.2742419435615,586.356821250643 L331.9911231653051,598.6197475560991 M331.9911231653051,598.6197475560991 L322.6945874857348,612.3913797119974 M322.6945874857348,612.3913797119974 L318.834904226086,627.0057277011879 M318.834904226086,627.0057277011879 L320.5994361164944,641.7558704341695 M212.4905787258611,579.3121672705051 L238.01901852173842,580.3282499839504 M238.01901852173842,580.3282499839504 L263.31402033753005,578.0960911491097 M263.31402033753005,578.0960911491097 L287.15118350084225,572.7237994218135 M287.15118350084225,572.7237994218135 L308.3767815668526,564.4715511817953 M268.8337293103541,649.7696055574168 L287.025963739582,649.4893440164856 M287.025963739582,649.4893440164856 L304.6037971737028,646.7681508297144 M304.6037971737028,646.7681508297144 L320.5994361164944,641.7558704341695 M212.4905787258611,579.3121672705051 L203.81648644059612,588.5510472925482 M203.81648644059612,588.5510472925482 L199.10723621309535,598.7036002771472 M199.10723621309535,598.7036002771472 L198.62232934048717,609.2111694453913 M268.8337293103541,649.7696055574168 L257.58840020338295,636.486749888729 M257.58840020338295,636.486749888729 L241.58993902577794,624.9459752266939 M241.58993902577794,624.9459752266939 L221.61246693814223,615.7052270913134 M221.61246693814223,615.7052270913134 L198.62232934048717,609.2111694453913 M288.71879134638914,597.7179767252537 L285.2686336443843,596.1567693195609 M285.2686336443843,596.1567693195609 L281.27208375321857,595.1178292138261 M281.27208375321857,595.1178292138261 L276.96138112477263,594.6615205517776 M276.96138112477263,594.6615205517776 L272.58703901689785,594.8143648636214 M272.58703901689785,594.8143648636214 L268.4032580401958,595.5674821399487 M268.4032580401958,595.5674821399487 L264.6531525933859,596.8771025968579 M264.6531525933859,596.8771025968579 L261.55466721874853,598.6671327152403 M261.55466721874853,598.6671327152403 L259.2878721594249,600.8335565352993 M259.2878721594249,600.8335565352993 L257.98450672531,603.2504729364039 M257.98450672531,603.2504729364039 L257.72034861082085,605.7774357793421 M257.72034861082085,605.7774357793421 L258.51076834684363,608.2675884183413 M258.51076834684363,608.2675884183413 L260.3098419183798,610.5761988788954 M260.3098419183798,610.5761988788954 L263.01303726754696,612.5690965610534 M263.01303726754696,612.5690965610534 L266.46325533364745,614.1304483464492 M266.46325533364745,614.1304483464492 L270.45997525297025,615.169499301119 M270.45997525297025,615.169499301119 L274.7709196441689,615.625859297641 M274.7709196441689,615.625859297641 L279.1455162461029,615.4729971352162 M279.1455162461029,615.4729971352162 L283.329507167856,614.7197963223236 M283.329507167856,614.7197963223236 L287.0797317247501,613.4100447358408 M287.0797317247501,613.4100447358408 L290.17821706556,611.6198665246304 M290.17821706556,611.6198665246304 L292.4448929548938,609.4533115747547 M292.4448929548938,609.4533115747547 L293.7480484055254,607.0363104572968 M293.7480484055254,607.0363104572968 L294.01195201780064,604.509329763692 M294.01195201780064,604.509329763692 L293.2212905430161,602.0192308194835 M293.2212905430161,602.0192308194835 L291.42204699396325,599.7107312079761 M291.42204699396325,599.7107312079761 L288.71879134638914,597.7179767252537 M308.3831104657338,524.9003720260285 L305.59430610675645,523.3955607256466 M305.59430610675645,523.3955607256466 L302.9452609411365,522.75997307699 M302.9452609411365,522.75997307699 L300.56880445799567,523.0254523519702 M300.56880445799567,523.0254523519702 L298.58409522867123,524.1786706818554 M298.58409522867123,524.1786706818554 L297.09063821407415,526.1617829818945 M297.09063821407415,526.1617829818945 L296.1633248515028,528.875340581885 M296.1633248515028,528.875340581885 L295.84862626448836,532.1832655576377 M308.3831104657338,524.9003720260285 L308.3831104657338,524.9003720260285 M295.84749974876024,540.0973989846837 L278.15936156515966,546.9737636208672 M278.15936156515966,546.9737636208672 L258.2951085616262,551.4503144919445 M258.2951085616262,551.4503144919445 L237.21610780870571,553.310291397486 M237.21610780870571,553.310291397486 L215.9425956956922,552.463627755353 M215.9428344504745,544.5493570823314 L215.9425956956922,552.463627755353 M215.9428344504745,544.5493570823314 L237.2165829283934,545.3960113281589 M237.2165829283934,545.3960113281589 L258.2958178807857,543.5360550647713 M258.2958178807857,543.5360550647713 L278.16029157791905,539.0595538756529 M278.16029157791905,539.0595538756529 L295.84862626448836,532.1832655576377 M308.3831104657338,524.9003720260285 L287.15633334720286,533.1521623566318 M287.15633334720286,533.1521623566318 L263.3178459556307,538.5241559919734 M263.3178459556307,538.5241559919734 L238.02143885690174,540.7561909738276 M238.02143885690174,540.7561909738276 L212.49158078222325,539.7401646382918 M212.49158078222325,539.7401646382918 L203.81700660784963,548.9785320478259 M203.81700660784963,548.9785320478259 L199.10749475126153,559.1305217561271 M199.10749475126153,559.1305217561271 L198.62256094426544,569.6375079851723 M198.62256094426544,569.6375079851723 L221.61397592917763,576.1312053708039 M221.61397592917763,576.1312053708039 L241.5925580773764,585.3714408948711 M241.5925580773764,585.3714408948711 L257.59190830160554,596.9115753937826 M257.59190830160554,596.9115753937826 L268.8378624144579,610.1936943180615 M268.8378624144579,610.1936943180615 L287.03110773714616,609.9134483214968 M287.03110773714616,609.9134483214968 L304.6099178805311,607.19240606368 M304.6099178805311,607.19240606368 L320.60644555539136,602.1804036765784 M320.60644555539136,602.1804036765784 L318.8418153304983,587.431079112502 M318.8418153304983,587.431079112502 L322.70171275733594,572.8175418267749 M322.70171275733594,572.8175418267749 L331.99876467296065,559.0466736872008 M331.99876467296065,559.0466736872008 L346.28267672469053,546.7844277485399 M269.2861803217743,579.7706311382378 L251.28639972253006,569.3748968867969 M251.28639972253006,569.3748968867969 L257.871449937138,555.175040324186 M257.871449937138,555.175040324186 L282.4547037186419,551.3703939723396 M282.4547037186419,551.3703939723396 L300.4544840779169,561.7650778354562 M300.4544840779169,561.7650778354562 L293.87101094159027,575.9654584121404 M293.87101094159027,575.9654584121404 L269.2861803217743,579.7706311382378 M320.60644555539136,602.1804036765784 L324.8528668223313,602.133479484344 M324.8528668223313,602.133479484344 L328.8861844837227,602.8827374016735 M328.8861844837227,602.8827374016735 L332.5041372015198,604.3905912869873 M332.5041372015198,604.3905912869873 L335.52533051373996,606.581436762182 M335.52533051373996,606.581436762182 L337.7982501077122,609.3453958069176 M337.7982501077122,609.3453958069176 L339.2089347242902,612.5438627019978 M339.2089347242902,612.5438627019978 L339.6866611446426,616.0164508241828 M320.5994361164944,641.7558704341695 L324.8457667691732,640.9151301371928 M324.8457667691732,640.9151301371928 L328.8793067682951,639.3227910931769 M328.8793067682951,639.3227910931769 L332.497805451659,637.0587050098734 M332.497805451659,637.0587050098734 L335.51985309494955,634.2363951083767 M335.51985309494955,634.2363951083767 L337.7938925461609,630.9973648433031 M337.7938925461609,630.9973648433031 L339.2058942781498,627.5040191036385 M339.2058942781498,627.5040191036385 L339.6850472000284,623.9315144931936 M331.788763215077,627.1651153486948 L331.78723699058503,635.0803026941198 M331.788763215077,627.1651153486948 L335.06823468877803,625.4760131084552 M335.06823468877803,625.4760131084552 L337.60513742474234,623.4037220332903 M337.60513742474234,623.4037220332903 L339.2692561048083,621.0546336239747 M339.2692561048083,621.0546336239747 L339.9751590655534,618.549334121449 M339.9751590655534,618.549334121449 L339.6866611446426,616.0164508241828 M331.78723699058503,635.0803026941198 L335.0666720263996,633.391181716519 M335.0666720263996,633.391181716519 L337.6035465787402,631.3188676530021 M337.6035465787402,631.3188676530021 L339.26764677599033,628.9697531844408 M339.26764677599033,628.9697531844408 L339.9735419034239,626.4644258893868 M339.9735419034239,626.4644258893868 L339.6850472000284,623.9315144931936 M212.4905787258611,579.3121672705051 L213.2586477458065,576.4629776870349 M213.2586477458065,576.4629776870349 L213.98821823017443,572.9630128269971 M213.98821823017443,572.9630128269971 L214.64270254710954,568.9877774618687 M214.64270254710954,568.9877774618687 L215.18929341227084,564.7365801453736 M215.18929341227084,564.7365801453736 L215.60058277361014,560.4225750510061 M215.60058277361014,560.4225750510061 L215.85595419456763,556.2620593553027 M215.85595419456763,556.2620593553027 L215.9425956956922,552.463627755353 M268.8337293103541,649.7696055574168 L268.44249398062425,651.8556185365453 M268.44249398062425,651.8556185365453 L268.0709610979016,653.043294524093 M268.0709610979016,653.043294524093 L267.7377610864563,653.2730669282096 M267.7377610864563,653.2730669282096 L267.45957495530195,652.5333670483919 M267.45957495530195,652.5333670483919 L267.25039180144233,650.8612912621302 M267.25039180144233,650.8612912621302 L267.12068024286106,648.3406462071844 M267.12068024286106,648.3406462071844 L267.07694794572376,645.0978143124396 M267.07694794572376,645.0978143124396 L289.8184729168166,644.7474821480494 M289.8184729168166,644.7474821480494 L311.7918485711507,641.3458485976728 M311.7918485711507,641.3458485976728 L331.78723699058503,635.0803026941198 M320.5994361164944,641.7558704341695 L323.08831248683623,643.3959855706801 M323.08831248683623,643.3959855706801 L325.45254169605437,644.160109076802 M325.45254169605437,644.160109076802 L327.5735931725991,644.0099275567379 M327.5735931725991,644.0099275567379 L329.3451091612925,642.9529484730681 M329.3451091612925,642.9529484730681 L330.6782397391514,641.0421496830229 M330.6782397391514,641.0421496830229 L331.50613307521223,638.3733329261117 M331.50613307521223,638.3733329261117 L331.78723699058503,635.0803026941198 M212.4905787258611,579.3121672705051 L208.965259404392,577.4784440109752 M208.965259404392,577.4784440109752 L205.61674489061545,574.9430002263953 M205.61674489061545,574.9430002263953 L202.612937617182,571.832980798272 M202.612937617182,571.832980798272 L200.10443986767035,568.3043126481632 M200.10443986767035,568.3043126481632 L198.21703267922663,564.5339259566992 M198.21703267922663,564.5339259566992 L197.04535914160306,560.7108657114034 M197.04535914160306,560.7108657114034 L196.6481630031999,557.0268164946535 M196.6481630031999,557.0268164946535 L185.80491952046935,568.5748118753693 M185.80491952046935,568.5748118753693 L179.9176131816182,581.2650188353118 M179.9176131816182,581.2650188353118 L179.3107582125744,594.3991687727014 M198.62232934048717,609.2111694453913 L194.3251837720373,609.0406100077773 M194.3251837720373,609.0406100077773 L190.2435001886558,608.0848832994045 M190.2435001886558,608.0848832994045 L186.58194518282323,606.3919169577832 M186.58194518282323,606.3919169577832 L183.52411425765894,604.046582886358 M183.52411425765894,604.046582886358 L181.22334252204234,601.1664807032946 M181.22334252204234,601.1664807032946 L179.79501346619372,597.8960159541552 M179.79501346619372,597.8960159541552 L179.3107582125744,594.3991687727014 M250.5822159150644,637.7247390263626 L241.21132206174457,626.655637916627 M241.21132206174457,626.655637916627 L227.8791149077539,617.0381650447214 M227.8791149077539,617.0381650447214 L211.23070852911684,609.3373337402522 M211.23070852911684,609.3373337402522 L192.07142835742496,603.9254408712745 M268.8337293103541,649.7696055574168 L264.7721780502267,650.2149729166947 M264.7721780502267,650.2149729166947 L260.91434596023043,649.844251533148 M260.91434596023043,649.844251533148 L257.4536661940496,648.6760188026553 M257.4536661940496,648.6760188026553 L254.56367820388664,646.7688425686663 M254.56367820388664,646.7688425686663 L252.38931112899934,644.2183446364097 M252.38931112899934,644.2183446364097 L251.03958376468415,641.152398184071 M251.03958376468415,641.152398184071 L250.5822159150644,637.7247390263626 M198.62232934048717,609.2111694453913 L197.16466250474838,611.1603952361293 M197.16466250474838,611.1603952361293 L195.7800663483975,612.2181825936686 M195.7800663483975,612.2181825936686 L194.53798544561164,612.3314814348221 M194.53798544561164,612.3314814348221 L193.50069301049388,611.494576428152 M193.50069301049388,611.494576428152 L192.72020879257707,609.7494082390394 M192.72020879257707,609.7494082390394 L192.23569028719652,607.1834832105308 M192.23569028719652,607.1834832105308 L192.07142835742496,603.9254408712745 M288.72149895913407,577.2592739990234 L285.2712421452912,575.6981113702559 M285.2712421452912,575.6981113702559 L281.2745774526821,574.6592010625368 M281.2745774526821,574.6592010625368 L276.96375100388,574.202905488009 M276.96375100388,574.202905488009 L272.5892832518749,574.3557454160773 M272.5892832518749,574.3557454160773 L268.40538210804203,575.1088410920668 M268.40538210804203,575.1088410920668 L264.655168953348,576.4184239876549 M264.655168953348,576.4184239876549 L261.55659458943,578.2084027664982 M261.55659458943,578.2084027664982 L259.2897344310922,580.3747644524274 M259.2897344310922,580.3747644524274 L257.98633157188107,582.791611536041 M257.98633157188107,582.791611536041 L257.72216588262813,585.318501906348 M257.72216588262813,585.318501906348 L258.512608335597,587.8085831294302 M258.512608335597,587.8085831294302 L260.3117335965048,590.1171273814684 M260.3117335965048,590.1171273814684 L263.0150066045649,592.1099679101112 M263.0150066045649,592.1099679101112 L266.4653237860016,593.6712749185713 M266.4653237860016,593.6712749185713 L270.46215851653636,594.71029607523 M270.46215851653636,594.71029607523 L274.7732267419219,595.1666429842676 M274.7732267419219,595.1666429842676 L279.1479490026065,595.0137852056178 M279.1479490026065,595.0137852056178 L283.3320601035802,594.260605993042 M283.3320601035802,594.260605993042 L287.0823923752004,592.9508919678747 M287.0823923752004,592.9508919678747 L290.18096670528803,591.1607650961967 M290.18096670528803,591.1607650961967 L292.44770768678904,588.9942722804451 M292.44770768678904,588.9942722804451 L293.7509005504236,586.5773404804916 M293.7509005504236,586.5773404804916 L294.01481172284167,584.050432259517 M294.01481172284167,584.050432259517 L293.22412751728245,581.5604047311942 M293.22412751728245,581.5604047311942 L291.4248322690936,579.2519713282074 M291.4248322690936,579.2519713282074 L288.72149895913407,577.2592739990234 M288.72149895913407,577.2592739990234 L288.71879134638914,597.7179767252537 M212.49158078222325,539.7401646382918 L213.25967151100326,537.6848308935585 M213.25967151100326,537.6848308935585 L213.98921749480974,536.5263489131471 M213.98921749480974,536.5263489131471 L214.64362838381277,536.3227810303331 M214.64362838381277,536.3227810303331 L215.19009838578648,537.0843161401606 M215.19009838578648,537.0843161401606 L215.60122550966128,538.7727481492113 M215.60122550966128,538.7727481492113 L215.85640364485147,541.3033970378037 M215.85640364485147,541.3033970378037 L215.9428344504745,544.5493570823314 M196.64818738349084,549.1124951797169 L199.57140448805768,547.2184191981453 M199.57140448805768,547.2184191981453 L203.15779650552344,545.753042161773 M203.15779650552344,545.753042161773 L207.2232646404484,544.7915724336535 M207.2232646404484,544.7915724336535 L211.5591286063967,544.3833602675829 M211.5591286063967,544.3833602675829 L215.9428344504745,544.5493570823314 M196.6481630031999,557.0268164946535 L199.5713476290029,555.1327194926976 M199.5713476290029,555.1327194926976 L203.15769979965694,553.6673261934725 M203.15769979965694,553.6673261934725 L207.22312276508552,552.7058457948247 M207.22312276508552,552.7058457948247 L211.5589385572365,552.2976290983397 M211.5589385572365,552.2976290983397 L215.9425956956922,552.463627755353 M196.64818738349084,549.1124951797169 L196.6481630031999,557.0268164946535 M212.49158078222325,539.7401646382918 L208.96604943203255,538.7002420031224 M208.96604943203255,538.7002420031224 L205.61731592177637,538.506235152907 M205.61731592177637,538.506235152907 L202.61331178523443,539.1678540474713 M202.61331178523443,539.1678540474713 L200.10465923120108,540.6519103049029 M200.10465923120108,540.6519103049029 L198.2171470582408,542.8839742410478 M198.2171470582408,542.8839742410478 L197.04541356406173,545.7521100761669 M197.04541356406173,545.7521100761669 L196.64818738349084,549.1124951797169 M196.64818738349084,549.1124951797169 L185.8048234199938,560.660362407476 M185.8048234199938,560.660362407476 L179.91745166029352,573.3504285484496 M179.91745166029352,573.3504285484496 L179.3105899419154,586.4844327511591 M198.62256094426544,569.6375079851723 L194.3251767646554,570.2606920140968 M194.3251767646554,570.2606920140968 L190.243284788234,571.646425139332 M190.243284788234,571.646425139332 L186.58158414651683,573.7252074652997 M186.58158414651683,573.7252074652997 L183.5236899039807,576.3927947974348 M183.5236899039807,576.3927947974348 L181.22294034486748,579.5154170107764 M181.22294034486748,579.5154170107764 L179.79470558923805,582.9364804179863 M179.79470558923805,582.9364804179863 L179.3105899419154,586.4844327511591 M268.8378624144579,610.1936943180615 L264.77600709723157,611.4328167944802 M264.77600709723157,611.4328167944802 L260.9177464303479,613.4036605024926 M260.9177464303479,613.4036605024926 L257.4565559399733,616.0073731868695 M257.4565559399733,616.0073731868695 L254.5660122756055,619.1133984815565 M254.5660122756055,619.1133984815565 L252.39107244151313,622.5659744022314 M252.39107244151313,622.5659744022314 L251.04077236550387,626.1919556173275 M251.04077236550387,626.1919556173275 L250.58283968975132,629.809522346653 M198.62256094426544,569.6375079851723 L197.1648100987211,572.3803620039323 M197.1648100987211,572.3803620039323 L195.78013419570192,575.779513301939 M195.78013419570192,575.779513301939 L194.53798930282147,579.6644999511359 M194.53798930282147,579.6644999511359 L193.5006560015674,583.8404996118411 M193.5006560015674,583.8404996118411 L192.72015609164788,588.0980840458685 M192.72015609164788,588.0980840458685 L192.23564369773703,592.2237529095548 M192.23564369773703,592.2237529095548 L192.07140188281977,596.0105991542873 M192.07140188281977,596.0105991542873 L211.23089496124692,601.4224319800073 M211.23089496124692,601.4224319800073 L227.8794863530092,609.1231778493111 M227.8794863530092,609.1231778493111 L241.21184167812066,618.7405440274895 M241.21184167812066,618.7405440274895 L250.58283968975132,629.809522346653 M268.8378624144579,610.1936943180615 L268.4465229061484,613.0733732439414 M268.4465229061484,613.0733732439414 L268.0747277722613,616.6025401221286 M268.0747277722613,616.6025401221286 L267.74112259834635,620.6042108484662 M267.74112259834635,620.6042108484662 L267.46240982235213,624.8776995475062 M267.46240982235213,624.8776995475062 L267.2526049514378,629.2087194553922 M267.2526049514378,629.2087194553922 L267.1222066630732,633.380052933514 M267.1222066630732,633.380052933514 L267.07775504910103,637.182515846757 M267.07775504910103,637.182515846757 L289.81953275927265,636.8321875683557 M289.81953275927265,636.8321875683557 L311.7931526041415,633.430591750315 M311.7931526041415,633.430591750315 L331.788763215077,627.1651153486948 M320.60644555539136,602.1804036765784 L323.09531689246023,604.6142000746427 M323.09531689246023,604.6142000746427 L325.4592441761197,607.7198083357678 M325.4592441761197,607.7198083357678 L327.5796991795063,611.3414955714318 M327.5796991795063,611.3414955714318 L329.350346950425,615.2976522812908 M329.350346950425,615.2976522812908 L330.6823811003072,619.3898758294797 M330.6823811003072,619.3898758294797 L331.50901187936836,623.4129486261556 M331.50901187936836,623.4129486261556 L331.788763215077,627.1651153486948 M269.2861803217743,579.7706311382378 L269.2841721142689,598.8855317973 M251.28639972253006,569.3748968867969 L251.28487460355683,588.489518959399 M269.2841721142689,598.8855317973 L251.28487460355683,588.489518959399 M257.871449937138,555.175040324186 L257.86974817401205,574.2892818405824 M251.28487460355683,588.489518959399 L257.86974817401205,574.2892818405824 M282.4547037186419,551.3703939723396 L282.45234230741676,570.4845335190421 M257.86974817401205,574.2892818405824 L282.45234230741676,570.4845335190421 M300.4544840779169,561.7650778354562 L300.451639578179,580.879495968657 M282.45234230741676,570.4845335190421 L300.451639578179,580.879495968657 M293.87101094159027,575.9654584121404 L293.8683430014158,595.0802571014963 M300.451639578179,580.879495968657 L293.8683430014158,595.0802571014963 M293.8683430014158,595.0802571014963 L269.2841721142689,598.8855317973 M320.60644555539136,602.1804036765784 L320.60644555539136,602.1804036765784 M320.5994361164944,641.7558704341695 L320.5994361164944,641.7558704341695 M267.07775504910103,637.182515846757 L267.07694794572376,645.0978143124396 M212.4905787258611,579.3121672705051 L212.4905787258611,579.3121672705051 M268.8337293103541,649.7696055574168 L268.8337293103541,649.7696055574168 M267.07694794572376,645.0978143124396 L262.7741578493543,644.5824293506673 M262.7741578493543,644.5824293506673 L258.78253706001396,643.5206945585278 M258.78253706001396,643.5206945585278 L255.3070025839416,641.9671437612876 M255.3070025839416,641.9671437612876 L252.52597390082923,640.0015160894643 M252.52597390082923,640.0015160894643 L250.5822159150644,637.7247390263626 M179.3105899419154,586.4844327511591 L179.3107582125744,594.3991687727014 M198.62232934048717,609.2111694453913 L198.62232934048717,609.2111694453913 M179.3107582125744,594.3991687727014 L180.2026331781716,596.8842484039858 M180.2026331781716,596.8842484039858 L182.0401007410125,599.1895839980373 M182.0401007410125,599.1895839980373 L184.7288285738574,601.1968350315051 M184.7288285738574,601.1968350315051 L188.13082147582196,602.8029396639324 M188.13082147582196,602.8029396639324 L192.07142835742496,603.9254408712745 M192.07140188281977,596.0105991542873 L192.07142835742496,603.9254408712745 M250.58283968975132,629.809522346653 L250.5822159150644,637.7247390263626 M212.49158078222325,539.7401646382918 L212.49158078222325,539.7401646382918 M198.62256094426544,569.6375079851723 L198.62256094426544,569.6375079851723 M179.3105899419154,586.4844327511591 L180.20247481693661,588.9694848095596 M180.20247481693661,588.9694848095596 L182.03996279699533,591.2747948253987 M182.03996279699533,591.2747948253987 L184.7287205068178,593.2820235882386 M184.7287205068178,593.2820235882386 L188.1307512121839,594.8881104009738 M188.1307512121839,594.8881104009738 L192.07140188281977,596.0105991542873 M268.8378624144579,610.1936943180615 L268.8378624144579,610.1936943180615 M267.07775504910103,637.182515846757 L262.7749171321631,636.6671366017918 M262.7749171321631,636.6671366017918 L258.7832519794967,635.6054135867901 M258.7832519794967,635.6054135867901 L255.3076788749616,634.0518800222112 M255.3076788749616,634.0518800222112 L252.52661928133256,632.0862741542016 M252.52661928133256,632.0862741542016 L250.58283968975132,629.809522346653" stroke="black"  stroke-width="4"  fill="red"/>
<path d="M251.28639972253006,569.3748968867969 L251.28487460355683,588.489518959399 M257.871449937138,555.175040324186 L257.86974817401205,574.2892818405824 M251.28639972253006,569.3748968867969 L257.871449937138,555.175040324186 M251.28487460355683,588.489518959399 L257.86974817401205,574.2892818405824 M269.2861803217743,579.7706311382378 L269.2841721142689,598.8855317973 M269.2861803217743,579.7706311382378 L251.28639972253006,569.3748968867969 M269.2841721142689,598.8855317973 L251.28487460355683,588.489518959399 M282.4547037186419,551.3703939723396 L282.45234230741676,570.4845335190421 M257.871449937138,555.175040324186 L282.4547037186419,551.3703939723396 M257.86974817401205,574.2892818405824 L282.45234230741676,570.4845335190421 M293.87101094159027,575.9654584121404 L269.2861803217743,579.7706311382378 M282.4547037186419,551.3703939723396 L300.4544840779169,561.7650778354562 M300.4544840779169,561.7650778354562 L293.87101094159027,575.9654584121404 M288.7240286493175,558.1449528864487 L285.27367923647,556.5838320968783 M285.27367923647,556.5838320968783 L281.27690728624594,555.5449496321846 M281.27690728624594,555.5449496321846 L276.9659651535668,555.0886662865303 M276.9659651535668,555.0886662865303 L272.5913800137546,555.241502118434 M272.5913800137546,555.241502118434 L268.40736659920987,555.9945776112427 M268.40736659920987,555.9945776112427 L264.65705281432895,557.3041254098357 M264.65705281432895,557.3041254098357 L261.5583953087916,559.0940562174285 M261.5583953087916,559.0940562174285 L259.29147432922457,561.2603598457283 M259.29147432922457,561.2603598457283 L257.9880365041946,563.6771421596379 M257.9880365041946,563.6771421596379 L257.72386373793114,566.2039648121035 M257.72386373793114,566.2039648121035 L258.5143274150715,568.6939793047288 M258.5143274150715,568.6939793047288 L260.3135009687413,571.0024616920639 M260.3135009687413,571.0024616920639 L263.01684653257666,572.9952488169233 M263.01684653257666,572.9952488169233 L266.46725631628624,574.5565139861753 M266.46725631628624,574.5565139861753 L270.46419831356303,575.5955072998127 M270.46419831356303,575.5955072998127 L274.7753822357478,576.0518419800105 M274.7753822357478,576.0518419800105 L279.1502218978994,575.8989882975243 M279.1502218978994,575.8989882975243 L283.33444528088086,575.1458292681107 M283.33444528088086,575.1458292681107 L287.0848781890803,573.8361503399335 M287.0848781890803,573.8361503399335 L290.18353566078457,572.046071439501 M290.18353566078457,572.046071439501 L292.4503374571175,569.879636681374 M292.4503374571175,569.879636681374 L293.7535652752721,567.4627696511373 M293.7535652752721,567.4627696511373 L294.0174835110401,564.9359291480034 M294.0174835110401,564.9359291480034 L293.226778068389,562.4459683501077 M293.226778068389,562.4459683501077 L291.4274345183153,560.1375968118282 M291.4274345183153,560.1375968118282 L288.7240286493175,558.1449528864487 M293.8683430014158,595.0802571014963 L269.2841721142689,598.8855317973 M282.45234230741676,570.4845335190421 L300.451639578179,580.879495968657 M300.451639578179,580.879495968657 L293.8683430014158,595.0802571014963 M288.72149895913407,577.2592739990234 L285.2712421452912,575.6981113702559 M285.2712421452912,575.6981113702559 L281.2745774526821,574.6592010625368 M281.2745774526821,574.6592010625368 L276.96375100388,574.202905488009 M276.96375100388,574.202905488009 L272.5892832518749,574.3557454160773 M272.5892832518749,574.3557454160773 L268.40538210804203,575.1088410920668 M268.40538210804203,575.1088410920668 L264.655168953348,576.4184239876549 M264.655168953348,576.4184239876549 L261.55659458943,578.2084027664982 M261.55659458943,578.2084027664982 L259.2897344310922,580.3747644524274 M259.2897344310922,580.3747644524274 L257.98633157188107,582.791611536041 M257.98633157188107,582.791611536041 L257.72216588262813,585.318501906348 M257.72216588262813,585.318501906348 L258.512608335597,587.8085831294302 M258.512608335597,587.8085831294302 L260.3117335965048,590.1171273814684 M260.3117335965048,590.1171273814684 L263.0150066045649,592.1099679101112 M263.0150066045649,592.1099679101112 L266.4653237860016,593.6712749185713 M266.4653237860016,593.6712749185713 L270.46215851653636,594.71029607523 M270.46215851653636,594.71029607523 L274.7732267419219,595.1666429842676 M274.7732267419219,595.1666429842676 L279.1479490026065,595.0137852056178 M279.1479490026065,595.0137852056178 L283.3320601035802,594.260605993042 M283.3320601035802,594.260605993042 L287.0823923752004,592.9508919678747 M287.0823923752004,592.9508919678747 L290.18096670528803,591.1607650961967 M290.18096670528803,591.1607650961967 L292.44770768678904,588.9942722804451 M292.44770768678904,588.9942722804451 L293.7509005504236,586.5773404804916 M293.7509005504236,586.5773404804916 L294.01481172284167,584.050432259517 M294.01481172284167,584.050432259517 L293.22412751728245,581.5604047311942 M293.22412751728245,581.5604047311942 L291.4248322690936,579.2519713282074 M291.4248322690936,579.2519713282074 L288.72149895913407,577.2592739990234 M293.87101094159027,575.9654584121404 L293.8683430014158,595.0802571014963 M300.4544840779169,561.7650778354562 L300.451639578179,580.879495968657 M288.7240286493175,558.1449528864487 L288.72149895913407,577.2592739990234" stroke="black"  stroke-width="4"  fill="red"/>
<path d="" stroke="black"  stroke-width="4"  fill="red"/>
<path d="M288.74498368195447,399.80887467640827 L291.44899060364173,401.8010760035515 M291.44899060364173,401.8010760035515 L293.2487342689841,404.10893482161 M293.2487342689841,404.10893482161 L294.03961563201165,406.5983425733298 M294.03961563201165,406.5983425733298 L293.7756388860625,409.1246218468272 M293.7756388860625,409.1246218468272 L292.4721215174233,411.5409520807863 M292.4721215174233,411.5409520807863 L290.2048159531881,413.7069056708831 M290.2048159531881,413.7069056708831 L287.10546976661544,415.4965869968368 M287.10546976661544,415.4965869968368 L283.35420322163526,416.8059750493516 M283.35420322163526,416.8059750493516 L279.1690497353738,417.5589668054302 M279.1690497353738,417.5589668054302 L274.7932375621946,417.7117865398664 M274.7932375621946,417.7117865398664 L270.4810952498227,417.25555320943926 M270.4810952498227,417.25555320943926 L266.4832646938796,416.2167906522635 M266.4832646938796,416.2167906522635 L263.03208782662335,414.6558722365962 M263.03208782662335,414.6558722365962 L260.328141237132,412.66352770982274 M260.328141237132,412.66352770982274 L258.52856764377384,410.355558042694 M258.52856764377384,410.355558042694 L257.7379281532968,407.86609659649974 M257.7379281532968,407.86609659649974 L258.00215954291497,405.33983517367284 M258.00215954291497,405.33983517367284 L259.305887012037,402.9235896559211 M259.305887012037,402.9235896559211 L261.5733118125058,400.75776719566915 M261.5733118125058,400.75776719566915 L264.6726580329342,398.9682339625752 M264.6726580329342,398.9682339625752 L268.42380540163606,397.6589770396618 M268.42380540163606,397.6589770396618 L272.6087488258792,396.90606882033074 M272.6087488258792,396.90606882033074 L276.984306363551,396.7532669364792 M276.984306363551,396.7532669364792 L281.2962067793612,397.20944893209395 M281.2962067793612,397.20944893209395 L285.2938672126375,398.2481006403111 M285.2938672126375,398.2481006403111 L288.74498368195447,399.80887467640827 M288.74498368195447,399.80887467640827 L288.71355462535905,637.2866037446106 M288.71355462535905,637.2866037446106 L285.2635886128941,635.7253097516782 M285.2635886128941,635.7253097516782 L281.26726075611293,634.6863120241223 M281.26726075611293,634.6863120241223 L276.95679760528947,634.2299780541216 M276.95679760528947,634.2299780541216 L272.58269850235007,634.382830843078 M272.58269850235007,634.382830843078 L268.39914993766644,635.1359898889907 M268.39914993766644,635.1359898889907 L264.6492528057817,636.4456829799883 M264.6492528057817,636.4456829799883 L261.5509395429216,638.2358123760448 M261.5509395429216,638.2358123760448 L259.28427038985313,640.402356347784 M259.28427038985313,640.402356347784 L257.98097733861266,642.8194067913707 M257.98097733861266,642.8194067913707 L257.7168338742728,645.3465097780327 M257.7168338742728,645.3465097780327 L258.50720967406306,647.8368005173381 M258.50720967406306,647.8368005173381 L260.3061832745771,650.1455390084018 M260.3061832745771,650.1455390084018 L263.009228425769,652.1385472109898 M263.009228425769,652.1385472109898 L266.45925479556416,653.6999855836443 M266.45925479556416,653.6999855836443 L270.4557526616098,654.7390941601241 M270.4557526616098,654.7390941601241 L274.7664575484377,655.1954794645276 M274.7664575484377,655.1954794645276 L279.14081111716075,655.0426088249924 M279.14081111716075,655.0426088249924 L283.3245696035136,654.2893662425549 M283.3245696035136,654.2893662425549 L287.0745858322505,652.9795420219968 M287.0745858322505,652.9795420219968 L290.17289906128883,651.1892645331268 M290.17289906128883,651.1892645331268 L292.4394490576096,649.0225894315836 M292.4394490576096,649.0225894315836 L293.7425321487549,646.6054542716195 M293.7425321487549,646.6054542716195 L294.0064211391577,644.0783334342925 M294.0064211391577,644.0783334342925 L293.21580362735,641.588096389838 M293.21580362735,641.588096389838 L291.4166600682034,639.2794687478101 M291.4166600682034,639.2794687478101 L288.71355462535905,637.2866037446106" stroke="black"  stroke-width="4"  fill="red"/>
<path d="M251.2990332530382,411.03632439042724 L269.3028155819838,421.42974978232246 M257.8855467233769,396.8396217886414 L251.2990332530382,411.03632439042724 M282.47426478955083,393.0358205377359 L257.8855467233769,396.8396217886414 M300.4780468783672,403.42819554116573 L282.47426478955083,393.0358205377359 M293.89311118710265,417.6254221573576 L300.4780468783672,403.42819554116573 M269.3028155819838,421.42974978232246 L293.89311118710265,417.6254221573576 M251.2990332530382,411.03632439042724 L251.30055913204058,391.9121767198018 M269.3028155819838,421.42974978232246 L269.3048247902903,402.30532310843506 M251.30055913204058,391.9121767198018 L269.3048247902903,402.30532310843506 M257.8855467233769,396.8396217886414 L257.8872493345271,377.7158552435436 M257.8872493345271,377.7158552435436 L251.30055913204058,391.9121767198018 M282.47426478955083,393.0358205377359 L282.4766273775043,373.9121561148735 M282.4766273775043,373.9121561148735 L257.8872493345271,377.7158552435436 M300.4780468783672,403.42819554116573 L300.48089279560537,384.3042521150455 M300.48089279560537,384.3042521150455 L282.4766273775043,373.9121561148735 M293.89311118710265,417.6254221573576 L293.8957804568455,398.50109760573935 M293.8957804568455,398.50109760573935 L300.48089279560537,384.3042521150455 M269.3048247902903,402.30532310843506 L293.8957804568455,398.50109760573935" stroke="black"  stroke-width="4"  fill="red"/>
<path d="M276.6051810735099,367.2344830017966 L276.609746202117,327.6412749792126 M240.88732932340065,387.85619482735075 L240.88990976860458,348.26184034223024 M276.6051810735099,367.2344830017966 L240.88732932340065,387.85619482735075 M276.609746202117,327.6412749792126 L240.88990976860458,348.26184034223024 M345.1759606302925,406.8133010164399 L352.1104605656212,401.492747258623 M352.1104605656212,401.492747258623 L356.67156101205967,395.3770335368624 M356.67156101205967,395.3770335368624 L358.60127373294995,388.81226888820345 M358.60127373294995,388.81226888820345 L357.79055210003787,382.1699487952303 M357.79055210003787,382.1699487952303 L354.285422926141,375.82591725925244 M354.285422926141,375.82591725925244 L348.28433772290805,370.139085611219 M348.28433772290805,370.139085611219 L340.1269284281876,365.43116550342756 M340.1269284281876,365.43116550342756 L330.2747830408555,361.96846866703476 M330.2747830408555,361.96846866703476 L319.2853149270777,359.9468501860745 M319.2853149270777,359.9468501860745 L307.78021383601185,359.4806484110506 M307.78021383601185,359.4806484110506 L296.410348235276,360.5962334245465 M296.410348235276,360.5962334245465 L285.818939992996,363.230511126222 M285.818939992996,363.230511126222 L276.6051810735099,367.2344830017966 M345.1759606302925,406.8133010164399 L345.18433715210153,367.21789272946313 M276.609746202117,327.6412749792126 L285.8240170709883,323.63752571953927 M285.8240170709883,323.63752571953927 L296.416013826865,321.0033944831855 M296.416013826865,321.0033944831855 L307.7865112169144,319.8878714966492 M307.7865112169144,319.8878714966492 L319.29225163896217,320.3540473506264 M319.29225163896217,320.3540473506264 L330.28233046530045,322.37555342939413 M330.28233046530045,322.37555342939413 L340.135023404693,325.8380577424546 M340.135023404693,325.8380577424546 L348.2928861154735,330.54571609944026 M348.2928861154735,330.54571609944026 L354.2943049421676,336.23223158039457 M354.2943049421676,336.23223158039457 L357.7996290616612,342.5759104232861 M357.7996290616612,342.5759104232861 L358.6103959181954,349.21786125343505 M358.6103959181954,349.21786125343505 L356.680576123272,355.782260964293 M356.680576123272,355.782260964293 L352.1192223479411,361.89763472326536 M352.1192223479411,361.89763472326536 L345.18433715210153,367.21789272946313 M309.46450198722835,387.8430415040027 L300.24883674566365,391.8482339455581 M300.24883674566365,391.8482339455581 L289.65475922498615,394.48341448296907 M289.65475922498615,394.48341448296907 L278.28182537715156,395.5994036584739 M278.28182537715156,395.5994036584739 L266.77370764630587,395.1330307906002 M266.77370764630587,395.1330307906002 L255.7817441337251,393.1106986450934 M255.7817441337251,393.1106986450934 L245.92801034953595,389.6468861059435 M245.92801034953595,389.6468861059435 L237.77014720627346,384.9376651643586 M237.77014720627346,384.9376651643586 L231.76976843178323,379.249594246878 M231.76976843178323,379.249594246878 L228.26632840827426,372.90460890551435 M228.26632840827426,372.90460890551435 L227.45793856145502,366.2617745926196 M227.45793856145502,366.2617745926196 L229.39019483657808,359.696989768328 M229.39019483657808,359.696989768328 L233.95362968771047,353.58169039777556 M233.95362968771047,353.58169039777556 L240.88990976860458,348.26184034223024 M309.4581101486109,427.43959625359554 L309.46450198722835,387.8430415040027 M240.88732932340065,387.85619482735075 L233.9514346581076,393.17634063447525 M233.9514346581076,393.17634063447525 L229.3882533670452,399.2919799678803 M229.3882533670452,399.2919799678803 L227.4561044368525,405.857129729914 M227.4561044368525,405.857129729914 L228.26444932421612,412.50033330564827 M228.26444932421612,412.50033330564827 L231.76769461150616,418.84567134012104 M231.76769461150616,418.84567134012104 L237.7677398781022,424.5340584247078 M237.7677398781022,424.5340584247078 L245.92514960523266,429.24354111712563 M245.92514960523266,429.24354111712563 L255.77833572166196,432.7075461796306 M255.77833572166196,432.7075461796306 L266.76968831220637,434.7299907273441 M266.76968831220637,434.7299907273441 L278.2771664478538,435.19638951626797 M278.2771664478538,435.19638951626797 L289.6494682354813,434.080338313861 M289.6494682354813,434.080338313861 L300.2429570114362,431.44501131104465 M300.2429570114362,431.44501131104465 L309.4581101486109,427.43959625359554 M309.4581101486109,427.43959625359554 L345.1759606302925,406.8133010164399 M269.3028155819838,421.42974978232246 L293.89311118710265,417.6254221573576 M251.2990332530382,411.03632439042724 L269.3028155819838,421.42974978232246 M257.8855467233769,396.8396217886414 L251.2990332530382,411.03632439042724 M282.47426478955083,393.0358205377359 L257.8855467233769,396.8396217886414 M300.4780468783672,403.42819554116573 L282.47426478955083,393.0358205377359 M293.89311118710265,417.6254221573576 L300.4780468783672,403.42819554116573 M309.46450198722835,387.8430415040027 L345.18433715210153,367.21789272946313 M269.3028155819838,421.42974978232246 L269.3048247902903,402.30532310843506 M293.89311118710265,417.6254221573576 L293.8957804568455,398.50109760573935 M269.3048247902903,402.30532310843506 L293.8957804568455,398.50109760573935 M300.4780468783672,403.42819554116573 L300.48089279560537,384.3042521150455 M293.8957804568455,398.50109760573935 L300.48089279560537,384.3042521150455 M282.47426478955083,393.0358205377359 L282.4766273775043,373.9121561148735 M300.48089279560537,384.3042521150455 L282.4766273775043,373.9121561148735 M257.8855467233769,396.8396217886414 L257.8872493345271,377.7158552435436 M282.4766273775043,373.9121561148735 L257.8872493345271,377.7158552435436 M251.2990332530382,411.03632439042724 L251.30055913204058,391.9121767198018 M257.8872493345271,377.7158552435436 L251.30055913204058,391.9121767198018 M251.30055913204058,391.9121767198018 L269.3048247902903,402.30532310843506" stroke="black"  stroke-width="4"  fill="red"/></svg>