<svg viewBox="0 0 800 800" xmlns="http://www.w3.org/2000/svg"><path d="M246.91263190253278,444.0450488758182 L246.91688882035567,385.0668384506055 M655.2023638713679,208.27956796943315 L655.2406250934241,149.3210193968355 M246.91263190253278,444.0450488758182 L655.2023638713679,208.27956796943315 M246.91688882035567,385.0668384506055 L655.2406250934241,149.3210193968355 M604.6726388472981,650.5978851906609 L604.706733960882,591.6024706426342 M604.6726388472981,650.5978851906609 L246.91263190253278,444.0450488758182 M604.706733960882,591.6024706426342 L246.91688882035567,385.0668384506055 M604.1278893376593,178.8309711444446 L604.1618936482678,119.87488030081715 M655.2023638713679,208.27956796943315 L604.1278893376593,178.8309711444446 M655.2406250934241,149.3210193968355 L604.1618936482678,119.87488030081715 M144.76363182439871,444.0450488758182 L604.1278893376593,178.8309711444446 M144.76363182439871,444.0450488758182 L553.598158698705,680.1251196991827 M553.598158698705,680.1251196991827 L604.6726388472981,650.5978851906609 M615.2131529332793,201.89858869807486 L611.7869165386794,200.35057277378843 M611.7869165386794,200.35057277378843 L607.81875100551,199.3204237062892 M607.81875100551,199.3204237062892 L603.5393008227719,198.86797266373537 M603.5393008227719,198.86797266373537 L599.197237043977,199.0195205456153 M599.197237043977,199.0195205456153 L595.0448647472388,199.76627292208735 M595.0448647472388,199.76627292208735 L591.3235162198056,201.06481997416705 M591.3235162198056,201.06481997416705 L588.2494210423778,202.83972414592273 M588.2494210423778,202.83972414592273 L586.001264213081,204.98782982798232 M586.001264213081,204.98782982798232 L584.7096790775686,207.38432626704656 M584.7096790775686,207.38432626704656 L584.4497452291497,209.88994668389745 M584.4497452291497,209.88994668389745 L585.2366337703322,212.35904925007705 M585.2366337703322,212.35904925007705 L587.0246156696672,214.64814274240962 M587.0246156696672,214.64814274240962 L589.7097797842508,216.62419518478387 M589.7097797842508,216.62419518478387 L593.1360772069303,218.17235359600738 M593.1360772069303,218.17235359600738 L597.1043790879539,219.2026312324972 M597.1043790879539,219.2026312324972 L601.3840671309687,219.65513431387964 M601.3840671309687,219.65513431387964 L605.7264137628964,219.50354884769118 M605.7264137628964,219.50354884769118 L609.8789983158097,218.75671486233784 M609.8789983158097,218.75671486233784 L613.6004638706688,217.45803728424522 M613.6004638706688,217.45803728424522 L616.6745588793491,215.68298636136132 M616.6745588793491,215.68298636136132 L618.922598382384,213.53475132328367 M618.922598382384,213.53475132328367 L620.2139710700019,211.13816976448604 M620.2139710700019,211.13816976448604 L620.473622024607,208.63255155358345 M620.473622024607,208.63255155358345 L619.6864957428257,206.16350102603724 M619.6864957428257,206.16350102603724 L617.8983777482548,203.8744986539443 M617.8983777482548,203.8744986539443 L615.2131529332793,201.89858869807486 M545.4988944039278,242.15148903471237 L542.0725732151188,240.60312065928895 M542.0725732151188,240.60312065928895 L538.1041590923655,239.57273704905623 M538.1041590923655,239.57273704905623 L533.8243109808307,239.1201829933704 M533.8243109808307,239.1201829933704 L529.4817230526974,239.27176537934884 M529.4817230526974,239.27176537934884 L525.3287308381769,240.0186877750247 M525.3287308381769,240.0186877750247 L521.6067026533839,241.31753047875767 M521.6067026533839,241.31753047875767 L518.5319075665686,243.0928387603474 M518.5319075665686,243.0928387603474 L516.2830388192688,245.24145225378857 M516.2830388192688,245.24145225378857 L514.9908665502721,247.63847560483865 M514.9908665502721,247.63847560483865 L514.7304090511007,250.14466651164145 M514.7304090511007,250.14466651164145 L515.5169003086288,252.6143312571937 M515.5169003086288,252.6143312571937 L517.3046343818423,254.90394594691207 M517.3046343818423,254.90394594691207 L519.9897145318573,256.8804483139322 M519.9897145318573,256.8804483139322 L523.416096734543,258.42895922495876 M523.416096734543,258.42895922495876 L527.3846472145337,259.4594714459623 M527.3846472145337,259.4594714459623 L531.6647332302406,259.91207755825036 M531.6647332302406,259.91207755825036 L536.007604079858,259.7604575773919 M536.007604079858,259.7604575773919 L540.1607761775497,259.01347227460775 M540.1607761775497,259.01347227460775 L543.8829538793469,257.7144802705018 M543.8829538793469,257.7144802705018 L546.9577488263151,255.93902518766166 M546.9577488263151,255.93902518766166 L549.2064678089536,253.79030102234216 M549.2064678089536,253.79030102234216 L550.4984600358958,251.39317379429858 M550.4984600358958,251.39317379429858 L550.7586345798695,248.88698509193233 M550.7586345798695,248.88698509193233 L549.9719055173507,246.41737240278715 M549.9719055173507,246.41737240278715 L548.1840352962533,244.1278488665621 M548.1840352962533,244.1278488665621 L545.4988944039278,242.15148903471237 M475.7687462233855,282.4135640302974 L472.34234029054596,280.8648430832724 M472.34234029054596,280.8648430832724 L468.3736937891973,279.83421548411616 M468.3736937891973,279.83421548411616 L464.0934476785758,279.38155838011374 M464.0934476785758,279.38155838011374 L459.75031925334633,279.5331846479855 M459.75031925334633,279.5331846479855 L455.59672316797344,280.2802677549265 M455.59672316797344,280.2802677549265 L451.87399889085054,281.5794155774129 M451.87399889085054,281.5794155774129 L448.79850365542495,283.3551281069577 M448.79850365542495,283.3551281069577 L446.54897139072204,285.50422148849674 M446.54897139072204,285.50422148849674 L445.2561630874892,287.9018000284793 M445.2561630874892,287.9018000284793 L444.99519792819945,290.40855225364027 M444.99519792819945,290.40855225364027 L445.78129170074226,292.87877937058727 M445.78129170074226,292.87877937058727 L447.56876156596763,295.16892480255444 M447.56876156596763,295.16892480255444 L450.25375764354453,297.14587724800697 M450.25375764354453,297.14587724800697 L453.6802245760432,298.6947407793231 M453.6802245760432,298.6947407793231 L457.6490398879939,299.7254782979439 M457.6490398879939,299.7254782979439 L461.92952394669396,300.17818747633044 M461.92952394669396,300.17818747633044 L466.272902917798,300.02654233610787 M466.272902917798,300.02654233610787 L470.4267113870427,299.2793775651327 M470.4267113870427,299.2793775651327 L474.1495527970977,297.980099126579 M474.1495527970977,297.980099126579 L477.22504792159657,296.2042397456385 M477.22504792159657,296.2042397456385 L479.4744628569256,294.0550169191129 M479.4744628569256,294.0550169191129 L480.76705865026065,291.6573532020918 M480.76705865026065,291.6573532020918 L481.0277732369343,289.15058444674935 M481.0277732369343,289.15058444674935 L480.24144159498337,286.68040940399095 M480.24144159498337,286.68040940399095 L478.4538030852152,284.39037389189144 M478.4538030852152,284.39037389189144 L475.7687462233855,282.4135640302974 M406.022719183567,322.6848074535954 L402.5962285569361,321.13573381453153 M402.5962285569361,321.13573381453153 L398.6273334489557,320.1048715101985 M398.6273334489557,320.1048715101985 L394.34668926884797,319.65211132265466 M394.34668926884797,319.65211132265466 L390.003052663425,319.8037627521986 M390.003052663425,319.8037627521986 L385.8488200890863,320.55102536056165 M385.8488200890863,320.55102536056165 L382.12541572454165,321.85046903891276 M382.12541572454165,321.85046903891276 L379.0492363271054,323.6265765861577 M379.0492363271054,323.6265765861577 L376.7990240753303,325.7761593870028 M376.7990240753303,325.7761593870028 L375.5055794816716,328.1742933066376 M375.5055794816716,328.1742933066376 L375.24410643779186,330.6816070408389 M375.24410643779186,330.6816070408389 L376.0297862976262,333.1524060901402 M376.0297862976262,333.1524060901402 L377.8170242407964,335.44306370890814 M377.8170242407964,335.44306370890814 L380.501919911674,337.4204757555157 M380.501919911674,337.4204757555157 L383.92848775007576,338.9696826584231 M383.92848775007576,338.9696826584231 L387.8975354590784,340.0006642889296 M387.8975354590784,340.0006642889296 L392.1784338573757,340.45346719941085 M392.1784338573757,340.45346719941085 L396.52232106879535,340.3017968922961 M396.52232106879535,340.3017968922961 L400.6767660917578,339.5544525907544 M400.6767660917578,339.5544525907544 L404.4002876416305,338.2548782518497 M404.4002876416305,338.2548782518497 L407.47646695708045,336.4786238038161 M407.47646695708045,336.4786238038161 L409.7265618783366,334.32891151358234 M409.7265618783366,334.32891151358234 L411.0197939302242,331.9306923876844 M411.0197939302242,331.9306923876844 L411.28101634834286,329.4233621175873 M411.28101634834286,329.4233621175873 L410.4950823284646,326.9526245289836 M410.4950823284646,326.9526245289836 L408.70769190700753,324.66206749866336 M408.70769190700753,324.66206749866336 L406.022719183567,322.6848074535954 M336.2608240886914,362.96521306626806 L332.83424070420597,361.4157912999285 M332.83424070420597,361.4157912999285 L328.865105093692,360.3846895251166 M328.865105093692,360.3846895251166 L324.5840627738671,359.9318262188385 M324.5840627738671,359.9318262188385 L320.2398935260245,360.08351687299034 M320.2398935260245,360.08351687299034 L316.0850405095797,360.83094967486977 M316.0850405095797,360.83094967486977 L312.3609639590976,362.13068462493374 M312.3609639590976,362.13068462493374 L309.2840677089981,363.907206064628 M309.2840677089981,363.907206064628 L307.0331833333972,366.057273766801 M307.0331833333972,366.057273766801 L305.7391184226924,368.45595388623883 M305.7391184226924,368.45595388623883 L305.47711292486474,370.96384337646185 M305.47711292486474,370.96384337646185 L306.262411122925,373.4351958127457 M306.262411122925,373.4351958127457 L308.0493926470325,375.7263798487711 M308.0493926470325,375.7263798487711 L310.73421214091354,377.7042375978609 M310.73421214091354,377.7042375978609 L314.16085649723664,379.25380204546167 M314.16085649723664,379.25380204546167 L318.13016095122146,380.28501381533005 M318.13016095122146,380.28501381533005 L322.41144130697273,380.73792923158 M322.41144130697273,380.73792923158 L326.75586122235165,380.5862196929898 M326.75586122235165,380.5862196929898 L330.91092675157665,379.83870516982 M330.91092675157665,379.83870516982 L334.63512053988586,378.538839515062 M334.63512053988586,378.538839515062 L337.71201673695873,376.76217112361337 M337.71201673695873,376.76217112361337 L339.96278378082695,374.6119738880838 M339.96278378082695,374.6119738880838 L341.25663611850655,372.2132085334712 M341.25663611850655,372.2132085334712 L341.5183909360146,369.70530250160266 M341.5183909360146,369.70530250160266 L340.7328547396354,367.2340021750952 M340.7328547396354,367.2340021750952 L338.9457044514388,364.94292813377143 M338.9457044514388,364.94292813377143 L336.2608240886914,362.96521306626806 M287.1809997463911,494.32839629675993 L290.47746669352125,492.5825741661808 M290.47746669352125,492.5825741661808 L292.92964787872336,490.42239578223916 M292.92964787872336,490.42239578223916 L294.3871039956069,487.98038574775507 M294.3871039956069,487.98038574775507 L294.76045085957526,485.4063636283681 M294.76045085957526,485.4063636283681 L294.0268153995122,482.85824714581236 M294.0268153995122,482.85824714581236 L292.23121324756465,480.49234220966457 M292.23121324756465,480.49234220966457 L289.4838204691364,478.4537839680931 M289.4838204691364,478.4537839680931 L285.9531879706175,476.8676173066234 M285.9531879706175,476.8676173066234 L281.8559013306542,475.83113606100846 M281.8559013306542,475.83113606100846 L277.44330771176186,475.40791828369 M277.44330771176186,475.40791828369 L272.9860686119912,475.6239152000203 M272.9860686119912,475.6239152000203 L268.7576110102476,476.46588258111507 M268.7576110102476,476.46588258111507 L265.0173215791035,477.8821811519556 M265.0173215791035,477.8821811519556 L261.9946319978323,479.78592921431846 M261.9946319978323,479.78592921431846 L258.6981437447546,481.53162509384146 M258.6981437447546,481.53162509384146 L256.24581522343414,483.6916949419281 M256.24581522343414,483.6916949419281 L254.78811358510512,486.1336457899501 M254.78811358510512,486.1336457899501 L254.41447521894975,488.7076784889974 M254.41447521894975,488.7076784889974 L255.1478375821892,491.25587920715765 M255.1478375821892,491.25587920715765 L256.94324540767366,493.6219286492994 M256.94324540767366,493.6219286492994 L259.69056950217094,495.66066105960186 M259.69056950217094,495.66066105960186 L263.22127076099525,497.24699677749464 M263.22127076099525,497.24699677749464 L267.31875178736215,498.2836028888399 M267.31875178736215,498.2836028888399 L271.73161853399796,498.70687538275286 M271.73161853399796,498.70687538275286 L276.18914913203974,498.4908502878116 M276.18914913203974,498.4908502878116 L280.4178522187373,497.6487781000261 M280.4178522187373,497.6487781000261 L284.1582889266409,496.2323213090658 M284.1582889266409,496.2323213090658 L287.1809997463911,494.32839629675993 M355.0616874901798,535.9804728635631 L357.74618306739626,534.0008497222921 M357.74618306739626,534.0008497222921 L359.5321798708203,531.7076105159085 M359.5321798708203,531.7076105159085 L360.31591367921123,529.2340463733426 M360.31591367921123,529.2340463733426 L360.05185506065925,526.723917183811 M360.05185506065925,526.723917183811 L358.7553518609179,524.3230904252306 M358.7553518609179,524.3230904252306 L356.5017857560914,522.1710938963636 M356.5017857560914,522.1710938963636 L353.42215219109573,520.3929920008446 M353.42215219109573,520.3929920008446 L349.69539403753834,519.0920892149156 M349.69539403753834,519.0920892149156 L345.5381029587696,518.3439875294955 M345.5381029587696,518.3439875294955 L341.1918808718241,518.192165815674 M341.1918808718241,518.192165815674 L336.90925820141376,518.645425013907 M336.90925820141376,518.645425013907 L332.9391543441294,519.677454220368 M332.9391543441294,519.677454220368 L329.51223093740384,521.2282578939219 M329.51223093740384,521.2282578939219 L326.82769057010626,523.2077475412336 M326.82769057010626,523.2077475412336 L325.04150852235375,525.5008672260202 M325.04150852235375,525.5008672260202 L324.25755270564116,527.9743885680141 M324.25755270564116,527.9743885680141 L324.5213604319582,530.4845343219597 M324.5213604319582,530.4845343219597 L325.8176509358966,532.8854464293734 M325.8176509358966,532.8854464293734 L328.07109970390286,535.0375726661246 M328.07109970390286,535.0375726661246 L331.15073332978363,536.8158217099337 M331.15073332978363,536.8158217099337 L334.87760892798417,538.116855376227 M334.87760892798417,538.116855376227 L339.0351127717298,538.8650388934514 M339.0351127717298,538.8650388934514 L343.38158576558817,539.0168795159909 M343.38158576558817,539.0168795159909 L347.66443040113995,538.5635587591642 M347.66443040113995,538.5635587591642 L351.63471941160583,537.5314287891622 M351.63471941160583,537.5314287891622 L355.0616874901798,535.9804728635631 M424.9077596986215,576.3094822057235 L427.5921704544942,574.32940791957 M427.5921704544942,574.32940791957 L429.37791816348545,572.035646100137 M429.37791816348545,572.035646100137 L430.1612530892812,569.5615182535364 M430.1612530892812,569.5615182535364 L429.8966527390471,567.0508076498945 M429.8966527390471,567.0508076498945 L428.5995442419886,564.6494431523975 M428.5995442419886,564.6494431523975 L426.34529665815035,562.4969562120054 M426.34529665815035,562.4969562120054 L423.2649450417979,560.718439731942 M423.2649450417979,560.718439731942 L419.5375055357533,559.4172404904918 M419.5375055357533,559.4172404904918 L415.3796093998178,558.6689777056204 M415.3796093998178,558.6689777056204 L411.0328459151041,558.5171120133355 M411.0328459151041,558.5171120133355 L406.74984100156064,558.9704838827222 M406.74984100156064,558.9704838827222 L402.7794722333947,560.0027388913941 M402.7794722333947,560.0027388913941 L399.35248067472764,561.5539053506579 M399.35248067472764,561.5539053506579 L396.6680088434156,563.5338367150907 M396.6680088434156,563.5338367150907 L394.8820920730924,565.8274883541935 M394.8820920730924,565.8274883541935 L394.0985188309802,568.301564003212 M394.0985188309802,568.301564003212 L394.3628682339504,570.8122911771302 M394.3628682339504,570.8122911771302 L395.6597640045519,573.2137410521104 M395.6597640045519,573.2137410521104 L397.913894250157,575.3663577446805 M397.913894250157,575.3663577446805 L400.9942459564526,577.145021424114 M400.9942459564526,577.145021424114 L404.72180296001136,578.4463515906725 M404.72180296001136,578.4463515906725 L408.8799119245904,579.194696234475 M408.8799119245904,579.194696234475 L413.2269263782514,579.3465808429044 M413.2269263782514,579.3465808429044 L417.5101695443228,578.89315677574 M417.5101695443228,578.89315677574 L421.4807072391742,577.8607915871416 M421.4807072391742,577.8607915871416 L424.9077596986215,576.3094822057235 M494.7697503821556,616.6476828497055 L497.454076208301,614.6671572644318 M497.454076208301,614.6671572644318 L499.2395584110177,612.3728632696334 M499.2395584110177,612.3728632696334 L500.02249425213313,609.8981715264124 M500.02249425213313,609.8981715264124 L499.75738443365117,607.3868980757175 M499.75738443365117,607.3868980757175 L498.45963789378493,604.9849768898994 M498.45963789378493,604.9849768898994 L496.2047248303745,602.8320087535801 M496.2047248303745,602.8320087535801 L493.1236711665654,601.0530869292161 M493.1236711665654,601.0530869292161 L489.3955338430079,599.7515817478511 M489.3955338430079,599.7515817478511 L485.2370324820673,599.0031578095229 M485.2370324820673,599.0031578095229 L480.8897274656706,598.851248122671 M480.8897274656706,598.851248122671 L476.60632399526116,599.3047233198456 M476.60632399526116,599.3047233198456 L472.6357227999257,600.3372229728141 M472.6357227999257,600.3372229728141 L469.20864689659084,601.8887429598733 M469.20864689659084,601.8887429598733 L466.52425995287365,603.8691255745623 M466.52425995287365,603.8691255745623 L464.73857612591996,606.1632905843978 M464.73857612591996,606.1632905843978 L463.95540190386816,608.6379301121904 M463.95540190386816,608.6379301121904 L464.2202932235547,611.1492389059235 M464.2202932235547,611.1492389059235 L465.5177945030565,613.551226731252 M465.5177945030565,613.551226731252 L467.7726227296117,615.7043434311399 M467.7726227296117,615.7043434311399 L470.8536765124413,617.4834125052007 M470.8536765124413,617.4834125052007 L474.5818988836289,618.785029889407 M474.5818988836289,618.785029889407 L478.7406456401558,619.5335544818163 M478.7406456401558,619.5335544818163 L483.08816918404113,619.6854643241838 M483.08816918404113,619.6854643241838 L487.3718109509765,619.2319369113854 M487.3718109509765,619.2319369113854 L491.342613592373,618.1993458077832 M491.342613592373,618.1993458077832 L494.7697503821556,616.6476828497055 M564.647648727629,656.9950685520116 L567.3318895156156,655.014091513415 M567.3318895156156,655.014091513415 L569.1171223003029,652.7192745461282 M569.1171223003029,652.7192745461282 L569.8996588544524,650.2440187134825 M569.8996588544524,650.2440187134825 L569.6340230869371,647.7321728388383 M569.6340230869371,647.7321728388383 L568.3356545024856,645.329704158813 M568.3356545024856,645.329704158813 L566.0800594595827,643.1762452778323 M566.0800594595827,643.1762452778323 L562.9983035084458,641.3969179706723 M562.9983035084458,641.3969179706723 L559.2695169105633,640.0951348991364 M559.2695169105633,640.0951348991364 L555.1103613925295,639.3465215980152 M555.1103613925295,639.3465215980152 L550.7625309651165,639.1945772855609 M550.7625309651165,639.1945772855609 L546.4787288673989,639.6481558458513 M546.4787288673989,639.6481558458513 L542.5078789877068,640.6808908426844 M542.5078789877068,640.6808908426844 L539.0807187902882,642.2327644783295 M539.0807187902882,642.2327644783295 L536.3964168425732,644.2135984974552 M536.3964168425732,644.2135984974552 L534.6109823659308,646.5082864378141 M534.6109823659308,646.5082864378141 L533.8282073661993,648.9834900371777 M533.8282073661993,648.9834900371777 L534.0936245881555,651.495371264939 M534.0936245881555,651.495371264939 L535.391780383098,653.8979253808943 M535.391780383098,653.8979253808943 L537.6472580857641,656.0515141024755 M537.6472580857641,656.0515141024755 L540.7290141850186,657.8309887096814 M540.7290141850186,657.8309887096814 L544.4579183854402,659.1329027947281 M544.4579183854402,659.1329027947281 L548.6172868612645,659.8815980121776 M548.6172868612645,659.8815980121776 L552.9653358699446,660.0335424822063 M552.9653358699446,660.0335424822063 L557.2493763081976,659.5799116884377 M557.2493763081976,659.5799116884377 L561.2204276581094,658.5470852075618 M561.2204276581094,658.5470852075618 L564.647648727629,656.9950685520116 M604.1618936482678,119.87488030081715 L144.75937490657589,385.0668384506055 M144.75937490657589,385.0668384506055 L553.6279968994419,621.1272474213779 M553.6279968994419,621.1272474213779 L604.706733960882,591.6024706426342 M615.2480827561097,142.94057263630617 L617.9335314204016,144.91631769483234 M617.9335314204016,144.91631769483234 L619.7217985770206,147.2051290431057 M619.7217985770206,147.2051290431057 L620.5089906664585,149.67397352406374 M620.5089906664585,149.67397352406374 L620.2493183355427,152.17938263967665 M620.2493183355427,152.17938263967665 L618.9578383252934,154.5757642051233 M618.9578383252934,154.5757642051233 L616.7096117894314,156.72381997652366 M616.7096117894314,156.72381997652366 L613.6352609035091,158.4987227759704 M613.6352609035091,158.4987227759704 L609.9134855001199,159.79729198369728 M609.9134855001199,159.79729198369728 L605.7605551332928,160.54406364857454 M605.7605551332928,160.54406364857454 L601.4178468229866,160.69563646556034 M601.4178468229866,160.69563646556034 L597.1378022632931,160.24317114378763 M597.1378022632931,160.24317114378763 L593.1691697490774,159.2129794802911 M593.1691697490774,159.2129794802911 L589.7425867926801,157.66495025830412 M589.7425867926801,157.66495025830412 L587.0571988388785,155.68906271329683 M587.0571988388785,155.68906271329683 L585.2690678028601,153.40016024323958 M585.2690678028601,153.40016024323958 L584.4821134936216,150.93126372365674 M584.4821134936216,150.93126372365674 L584.7420687629461,148.4258524037528 M584.7420687629461,148.4258524037528 L586.0337612562366,146.02955595787938 M586.0337612562366,146.02955595787938 L588.2821051380026,143.88162954252437 M588.2821051380026,143.88162954252437 L591.3564561927147,142.1068734941814 M591.3564561927147,142.1068734941814 L595.0781145491101,140.80843481239708 M595.0781145491101,140.80843481239708 L599.2308326246638,140.06174475653376 M599.2308326246638,140.06174475653376 L603.5732580372522,139.9102095221932 M603.5732580372522,139.9102095221932 L607.8530646970387,140.36262280514592 M607.8530646970387,140.36262280514592 L611.8215608379722,141.39268590123277 M611.8215608379722,141.39268590123277 L615.2480827561097,142.94057263630617 M545.5280210287929,183.1901140752948 L548.2133857564944,185.1663090097309 M548.2133857564944,185.1663090097309 L550.001405098409,187.45564152205563 M550.001405098409,187.45564152205563 L550.7881999024594,189.92504816452674 M550.7881999024594,189.92504816452674 L550.5280038949971,192.43102777151697 M550.5280038949971,192.43102777151697 L549.2359042422569,194.827955006128 M549.2359042422569,194.827955006128 L546.9869981136328,196.97649990469785 M546.9869981136328,196.97649990469785 L543.9119471728469,198.7518068640417 M543.9119471728469,198.7518068640417 L540.1894595066032,200.05069049617634 M540.1894595066032,200.05069049617634 L536.0359414944211,200.79761348002233 M536.0359414944211,200.79761348002233 L531.6927088790909,200.94922081167303 M531.6927088790909,200.94922081167303 L527.4122662803921,200.49665245900985 M527.4122662803921,200.49665245900985 L523.4433851257714,199.46622621103347 M523.4433851257714,199.46622621103347 L520.0167173752133,197.91784448929496 M520.0167173752133,197.91784448929496 L517.3314133999314,195.94150701970796 M517.3314133999314,195.94150701970796 L515.5435302312791,193.6520833523424 M515.5435302312791,193.6520833523424 L514.7569732718358,191.18262465347152 M514.7569732718358,191.18262465347152 L515.0174522791056,188.67664284370247 M515.0174522791056,188.67664284370247 L516.309732006354,186.27981948436428 M516.309732006354,186.27981948436428 L518.5587879219826,184.1313852592664 M518.5587879219826,184.1313852592664 L521.6338390026506,182.35622510115283 M521.6338390026506,182.35622510115283 L525.3561771296087,181.05749076776198 M525.3561771296087,181.05749076776198 L529.5095152262055,180.3106306927218 M529.5095152262055,180.3106306927218 L533.8524648754502,180.1590609542884 M533.8524648754502,180.1590609542884 L538.1326695303358,180.61157725035667 M538.1326695303358,180.61157725035667 L542.1014143022884,181.6418748891397 M542.1014143022884,181.6418748891397 L545.5280210287929,183.1901140752948 M475.7920670050763,223.44883017114188 L478.4773476883146,225.42547513526495 M478.4773476883146,225.42547513526495 L480.2651352789801,227.71531962417976 M480.2651352789801,227.71531962417976 L481.0515325962874,230.18528862019383 M481.0515325962874,230.18528862019383 L480.7907964575386,232.69184827930894 M480.7907964575386,232.69184827930894 L479.49809313652804,235.08931200361275 M479.49809313652804,235.08931200361275 L477.2484909406412,237.23835556254892 M477.2484909406412,237.23835556254892 L474.1727397056891,239.01406681994533 M474.1727397056891,239.01406681994533 L470.44958821926787,240.31323688727437 M470.44958821926787,240.31323688727437 L466.29543373086244,241.06033933851046 M466.29543373086244,241.06033933851046 L461.95169290803085,241.21197183030262 M461.95169290803085,241.21197183030262 L457.67085220000797,240.75930041155274 M457.67085220000797,240.75930041155274 L453.70170617063593,239.7286488652053 M453.70170617063593,239.7286488652053 L450.27495367612255,238.1799145232186 M450.27495367612255,238.1799145232186 L447.5897337872566,236.20312697525264 M447.5897337872566,236.20312697525264 L445.80211486922803,233.91317256648222 M445.80211486922803,233.91317256648222 L445.01595546096144,231.44315149628514 M445.01595546096144,231.44315149628514 L445.27694221424895,228.93660836744715 M445.27694221424895,228.93660836744715 L446.5698580803197,226.53922982002635 M446.5698580803197,226.53922982002635 L448.81957762522313,224.39031570611144 M448.81957762522313,224.39031570611144 L451.89532897112974,222.61475130009464 M451.89532897112974,222.61475130009464 L455.618363305025,221.31571184876998 M455.618363305025,221.31571184876998 L459.772305374428,220.56869106170544 M459.772305374428,220.56869106170544 L464.11579560946905,220.4170774421644 M464.11579560946905,220.4170774421644 L468.39639832976115,220.86969678653597 M468.39639832976115,220.86969678653597 L472.36537552039545,221.90023841343077 M472.36537552039545,221.90023841343077 L475.7920670050763,223.44883017114188 M406.0402314768696,263.71671469365504 L408.7254280077244,265.6938098412072 M408.7254280077244,265.6938098412072 L410.5129674687688,267.9841758482918 M410.5129674687688,267.9841758482918 L411.2989670977779,270.45470739009716 M411.2989670977779,270.45470739009716 L411.037723041641,272.96182856469443 M411.037723041641,272.96182856469443 L409.7443833574363,275.3598476970431 M409.7443833574363,275.3598476970431 L407.4941010623378,277.5093807196428 M407.4941010623378,277.5093807196428 L404.4176655210907,279.2854870448775 M404.4176655210907,279.2854870448775 L400.6938337815286,280.58495301253123 M400.6938337815286,280.58495301253123 L396.5390426346903,281.33223499353767 M396.5390426346903,281.33223499353767 L392.1947934854976,281.48389265300034 M392.1947934854976,281.48389265300034 L387.9135383701778,281.0311275013835 M387.9135383701778,281.0311275013835 L383.94415990366156,280.00023184395224 M383.94415990366156,280.00023184395224 L380.51730648776413,278.4511541296245 M380.51730648776413,278.4511541296245 L377.8321870209536,276.4739069813254 M377.8321870209536,276.4739069813254 L376.04480006495373,274.1834403850207 M376.04480006495373,274.1834403850207 L375.2590546369887,271.71284738330326 M375.2590546369887,271.71284738330326 L375.52054936082266,269.20574274469806 M375.52054936082266,269.20574274469806 L376.81410162196846,266.8078088184592 M376.81410162196846,266.8078088184592 L379.0645012672294,264.65840528528645 M379.0645012672294,264.65840528528645 L382.1409368904832,262.8824458608287 M382.1409368904832,262.8824458608287 L385.8646514251104,261.5831105536691 M385.8646514251104,261.5831105536691 L390.01923008817823,260.83591026598117 M390.01923008817823,260.83591026598117 L394.363228589443,260.6842714839903 M394.363228589443,260.6842714839903 L398.6442294455585,261.13699391189266 M398.6442294455585,261.13699391189266 L402.6134552842643,262.16777024394037 M402.6134552842643,262.16777024394037 L406.0402314768696,263.71671469365504 M336.27252524838775,303.9937614055375 L338.95762940385225,305.97131157510256 M338.95762940385225,305.97131157510256 L340.7449286909623,308.2621945935451 M340.7449286909623,308.2621945935451 L341.53053043019645,310.7332888732163 M341.53053043019645,310.7332888732163 L341.26875388664257,313.24098580915654 M341.26875388664257,313.24098580915654 L339.9747938132929,315.63955117018503 M339.9747938132929,315.63955117018503 L337.7238392829107,317.7895691384406 M337.7238392829107,317.7895691384406 L334.64668674193433,319.5660894062842 M334.64668674193433,319.5660894062842 L330.92218265123483,320.86584669016423 M330.92218265123483,320.86584669016423 L326.7667708947263,321.61329889278846 M326.7667708947263,321.61329889278846 L322.42198895347053,321.7649957833339 M322.42198895347053,321.7649957833339 L318.14035181568215,321.3121181267357 M318.14035181568215,321.3121181267357 L314.170716562062,320.280992329566 M314.170716562062,320.280992329566 L310.7437866148018,318.73155707095697 M310.7437866148018,318.73155707095697 L308.05874333834413,316.75386421981284 M308.05874333834413,316.75386421981284 L306.27161284344714,314.4628712066744 M306.27161284344714,314.4628712066744 L305.48624914219675,311.99172481722957 M305.48624914219675,311.99172481722957 L305.7482764080199,309.4840444230315 M305.7482764080199,309.4840444230315 L307.0424490895725,307.085564297027 M307.0424490895725,307.085564297027 L309.2935209713312,304.93567586217006 M309.2935209713312,304.93567586217006 L312.3706735653475,303.1593025460731 M312.3706735653475,303.1593025460731 L316.09506039859934,301.8596759668316 M316.09506039859934,301.8596759668316 L320.2502596071653,301.11230548563975 M320.2502596071653,301.11230548563975 L324.59479083893814,300.96062747943415 M324.59479083893814,300.96062747943415 L328.87618990112605,301.41345302606317 M328.87618990112605,301.41345302606317 L332.84565628313123,302.4444688281821 M332.84565628313123,302.4444688281821 L336.27252524838775,303.9937614055375 M287.18861400284607,435.3459958388138 L284.1656512523458,437.2497622234264 M284.1656512523458,437.2497622234264 L280.4249027716629,438.6661010017743 M280.4249027716629,438.6661010017743 L276.19584719684246,439.5081030324573 M276.19584719684246,439.5081030324573 L271.7379450226899,439.72411012935805 M271.7379450226899,439.72411012935805 L267.32471041191064,439.30087290023675 M267.32471041191064,439.30087290023675 L263.2268878030674,438.2643531537038 M263.2268878030674,438.2643531537038 L259.69589220198446,436.6781496023115 M259.69589220198446,436.6781496023115 L256.94833906290006,434.6395870519488 M256.94833906290006,434.6395870519488 L255.15278154113287,432.2737347430937 M255.15278154113287,432.2737347430937 L254.4193580108593,429.7257463375551 M254.4193580108593,429.7257463375551 L254.79302748692265,427.1519281065204 M254.79302748692265,427.1519281065204 L256.2508506003416,424.7101807243562 M256.2508506003416,424.7101807243562 L258.70338350735574,422.5502908578535 M258.70338350735574,422.5502908578535 L262.00014651548463,420.80474043500567 M262.00014651548463,420.80474043500567 L265.0230880239682,418.9011510003414 M265.0230880239682,418.9011510003414 L268.76368920334033,417.48497044211814 M268.76368920334033,417.48497044211814 L272.99249925228116,416.64307321812913 M272.99249925228116,416.64307321812913 L277.45010987956397,416.42709429984023 M277.45010987956397,416.42709429984023 L281.86307131706235,416.8502768123652 M281.86307131706235,416.8502768123652 L285.96069950717583,417.8866716931153 M285.96069950717583,417.8866716931153 L289.49162633640185,419.47270618812803 M289.49162633640185,419.47270618812803 L292.2392481709499,421.5110945697056 M292.2392481709499,421.5110945697056 L294.0350000514912,423.87680237261145 M294.0350000514912,423.87680237261145 L294.768696724118,426.42470654254294 M294.768696724118,426.42470654254294 L294.39531879884106,428.9985141939169 M294.39531879884106,428.9985141939169 L292.93774124780253,431.4403207625451 M292.93774124780253,431.4403207625451 L290.4853557014728,433.60031916490607 M290.4853557014728,433.60031916490607 L287.18861400284607,435.3459958388138 M355.074961779825,476.994602505073 L351.64770805567696,478.54542924130305 M351.64770805567696,478.54542924130305 L347.67708808212217,479.5774732390067 M347.67708808212217,479.5774732390067 L343.3938864037556,480.03075623618616 M343.3938864037556,480.03075623618616 L339.0470510410771,479.87892826129917 M339.0470510410771,479.87892826129917 L334.88920056355903,479.1308070646131 M334.88920056355903,479.1308070646131 L331.16201421656547,477.82988176957673 M331.16201421656547,477.82988176957673 L328.08212378907945,476.051780848577 M328.08212378907945,476.051780848577 L325.8284870881778,473.8998338794757 M325.8284870881778,473.8998338794757 L324.5320884421177,471.4991217656333 M324.5320884421177,471.4991217656333 L324.26825864685395,468.98918510721586 M324.26825864685395,468.98918510721586 L325.0522797443251,466.51586981283384 M325.0522797443251,466.51586981283384 L326.83861062891015,464.2229411505363 M326.83861062891015,464.2229411505363 L329.52337473292596,462.2436164015546 M329.52337473292596,462.2436164015546 L332.95058377642795,460.69294191659674 M332.95058377642795,460.69294191659674 L336.9210185672863,459.6609986832221 M336.9210185672863,459.6609986832221 L341.2039982421486,459.2077772438582 M341.2039982421486,459.2077772438582 L345.55058265590776,459.3595863101236 M345.55058265590776,459.3595863101236 L349.70822033322327,460.10762567485403 M349.70822033322327,460.10762567485403 L353.43528921590166,461.4084200895673 M353.43528921590166,461.4084200895673 L356.51517958248735,463.1863738622678 M356.51517958248735,463.1863738622678 L358.76893363985437,465.33819112342843 M358.76893363985437,465.33819112342843 L360.0655450169256,467.738817888579 M360.0655450169256,467.738817888579 L360.32962574642704,470.24873798248393 M360.32962574642704,470.24873798248393 L359.5458266956515,472.72209607822225 M359.5458266956515,472.72209607822225 L357.7596810849325,475.01514426134224 M357.7596810849325,475.01514426134224 L355.074961779825,476.994602505073 M424.92685915328616,517.320252945849 L421.4995210342099,518.8714331379266 M421.4995210342099,518.8714331379266 L417.5286523348108,519.9037123542453 M417.5286523348108,519.9037123542453 L413.2450520594716,520.3570986617708 M413.2450520594716,520.3570986617708 L408.8976751480519,520.2052267017727 M408.8976751480519,520.2052267017727 L404.7392194474321,519.4569443777134 M404.7392194474321,519.4569443777134 L401.0113515814405,518.1557225823879 M401.0113515814405,518.1557225823879 L397.93074295513486,516.377207026513 M397.93074295513486,516.377207026513 L395.6764246629765,514.2247696015546 M395.6764246629765,514.2247696015546 L394.37942064794856,511.8235197193227 M394.37942064794856,511.8235197193227 L394.1150490870385,509.3130016416712 M394.1150490870385,509.3130016416712 L394.898687544739,506.8391320394425 M394.898687544739,506.8391320394425 L396.68475310899396,504.54567142357274 M396.68475310899396,504.54567142357274 L399.36944866422414,502.56590495665756 M399.36944866422414,502.56590495665756 L402.79672587237167,501.0148676867469 M402.79672587237167,501.0148676867469 L406.76742561692083,499.98269865036417 M406.76742561692083,499.98269865036417 L411.05078760000345,499.5293645406211 M411.05078760000345,499.5293645406211 L415.39791350045414,499.68121758457085 M415.39791350045414,499.68121758457085 L419.5561563371888,500.42941804954546 M419.5561563371888,500.42941804954546 L423.2839066859808,501.73050891979983 M423.2839066859808,501.73050891979983 L426.36451522232096,503.50887727629157 M426.36451522232096,503.50887727629157 L428.6189508723578,505.66118494901144 M428.6189508723578,505.66118494901144 L429.91616764905893,508.06234945389934 M429.91616764905893,508.06234945389934 L430.18079019924926,510.57285096117533 M430.18079019924926,510.57285096117533 L429.39739009760945,513.0467727609907 M429.39739009760945,513.0467727609907 L427.61149362288484,515.3403435572004 M427.61149362288484,515.3403435572004 L424.92685915328616,517.320252945849 M494.79467765695983,557.6550946893058 L491.3672551935059,559.206628458081 M491.3672551935059,559.206628458081 L487.3961215047442,560.2391335902107 M487.3961215047442,560.2391335902107 L483.112122562071,560.6926232433816 M483.112122562071,560.6926232433816 L478.7642364741671,560.5407260486602 M478.7642364741671,560.5407260486602 L474.60514287657656,559.7922637767567 M474.60514287657656,559.7922637767567 L470.8766095306188,558.4907547629696 M470.8766095306188,558.4907547629696 L467.7952987106687,556.711833812424 M467.7952987106687,556.711833812424 L465.5402823224839,554.5588963808768 M465.5402823224839,554.5588963808768 L464.2426726961893,552.1571085474584 M464.2426726961893,552.1571085474584 L463.9777591295107,549.6460088507142 M463.9777591295107,549.6460088507142 L464.7609985005755,547.1715753696542 M464.7609985005755,547.1715753696542 L466.54683108123027,544.8776013822185 M466.54683108123027,544.8776013822185 L469.2314417346839,542.897383665003 M469.2314417346839,542.897383665003 L472.65880330154505,541.3459928672628 M472.65880330154505,541.3459928672628 L476.6297355133654,540.3135791873422 M476.6297355133654,540.3135791873422 L480.9134961197733,539.8601417498014 M480.9134961197733,539.8601417498014 L485.26116364086295,540.0120387875402 M485.26116364086295,540.0120387875402 L489.42001180489785,540.7604004067689 M489.42001180489785,540.7604004067689 L493.1484600862385,542.0617972161854 M493.1484600862385,542.0617972161854 L496.2297707871385,543.8405709170172 M496.2297707871385,543.8405709170172 L498.4848720291128,545.993359786494 M498.4848720291128,545.993359786494 L499.7827269537072,548.3950809789765 M499.7827269537072,548.3950809789765 L500.04785905849974,550.9061453341455 M500.04785905849974,550.9061453341455 L499.26485810813153,553.3806310306397 M499.26485810813153,553.3806310306397 L497.47922718263897,555.6747340014886 M497.47922718263897,555.6747340014886 L494.79467765695983,557.6550946893058 M564.678406477698,597.9991214929894 L561.2508997204777,599.5510089592856 M561.2508997204777,599.5510089592856 L557.2795172817359,600.5837494687214 M557.2795172817359,600.5837494687214 L552.9951196012573,601.0373425028765 M552.9951196012573,601.0373425028765 L548.6467079609116,600.8854106804893 M548.6467079609116,600.8854106804893 L544.4869925403124,600.1367777835219 M544.4869925403124,600.1367777835219 L540.7577772513746,598.8349720688541 M540.7577772513746,598.8349720688541 L537.6757639978292,597.0556455851076 M537.6757639978292,597.0556455851076 L535.4200980224614,594.9022361302386 M535.4200980224614,594.9022361302386 L534.12183377423,592.4998820076828 M534.12183377423,592.4998820076828 L533.856394217526,589.9882098768355 M533.856394217526,589.9882098768355 L534.6392342996446,587.5132123241315 M534.6392342996446,587.5132123241315 L536.4248174883624,585.2187154061053 M536.4248174883624,585.2187154061053 L539.109343131605,583.238046284396 M539.109343131605,583.238046284396 L542.5367890065831,581.6863018380254 M542.5367890065831,581.6863018380254 L546.5079699442192,580.653652814211 M546.5079699442192,580.653652814211 L550.7921292444122,580.2001120135415 M550.7921292444122,580.2001120135415 L555.140322264151,580.352043676887 M555.140322264151,580.352043676887 L559.299824691686,581.1005946573675 M559.299824691686,581.1005946573675 L563.028922358373,582.4022693585546 M563.028922358373,582.4022693585546 L566.1109354637636,584.1814485422333 M566.1109354637636,584.1814485422333 L568.3667187990142,586.334728156434 M568.3667187990142,586.334728156434 L569.6651958719865,588.7369968431944 M569.6651958719865,588.7369968431944 L569.9308540135804,591.2486336223869 M569.9308540135804,591.2486336223869 L569.1482524168201,593.7236834083808 M569.1482524168201,593.7236834083808 L567.3628709509989,596.018309351788 M567.3628709509989,596.018309351788 L564.678406477698,597.9991214929894 M553.598158698705,680.1251196991827 L553.6279968994419,621.1272474213779 M144.76363182439871,444.0450488758182 L144.75937490657589,385.0668384506055 M615.2131529332793,201.89858869807486 L615.2480827561097,142.94057263630617 M545.4988944039278,242.15148903471237 L545.5280210287929,183.1901140752948 M475.7687462233855,282.4135640302974 L475.7920670050763,223.44883017114188 M406.022719183567,322.6848074535954 L406.0402314768696,263.71671469365504 M336.2608240886914,362.96521306626806 L336.27252524838775,303.9937614055375 M262.00014651548463,420.80474043500567 L261.9946319978323,479.78592921431846 M287.18861400284607,435.3459958388138 L287.1809997463911,494.32839629675993 M355.0616874901798,535.9804728635631 L355.074961779825,476.994602505073 M424.9077596986215,576.3094822057235 L424.92685915328616,517.320252945849 M494.7697503821556,616.6476828497055 L494.79467765695983,557.6550946893058 M564.647648727629,656.9950685520116 L564.678406477698,597.9991214929894" stroke="black"  stroke-width="4"  fill="red"/>
<path d="M277.41804875323425,524.7177196693328 L277.4225811229951,485.4086280255581 M277.4225811229951,485.4086280255581 L241.95118323944712,505.89487725316513 M241.94862131129173,545.2051061210184 L241.95118323944712,505.89487725316513 M277.41804875323425,524.7177196693328 L241.94862131129173,545.2051061210184 M345.51190093822356,564.0387293525241 L345.52021735064955,524.7274551747462 M277.4225811229951,485.4086280255581 L286.57276498329395,481.43095791831985 M286.57276498329395,481.43095791831985 L297.0910923168204,478.813984566287 M297.0910923168204,478.813984566287 L308.3825055776084,477.7057277353872 M308.3825055776084,477.7057277353872 L319.80822112013243,478.16886707094153 M319.80822112013243,478.16886707094153 L330.7218614644936,480.1772057111758 M330.7218614644936,480.1772057111758 L340.5060265254248,483.6171563762459 M340.5060265254248,483.6171563762459 L348.60714910719196,488.2941505253624 M348.60714910719196,488.2941505253624 L354.56682620141555,493.9436257939573 M354.56682620141555,493.9436257939573 L358.0477693771396,500.24598381721836 M358.0477693771396,500.24598381721836 L358.85289649271465,506.8446709200827 M358.85289649271465,506.8446709200827 L356.9364983753509,513.3663119952474 M356.9364983753509,513.3663119952474 L352.4068692784401,519.4418518980012 M352.4068692784401,519.4418518980012 L345.52021735064955,524.7274551747462 M345.51190093822356,564.0387293525241 L352.39817037005025,558.7528327074529 M352.39817037005025,558.7528327074529 L356.9275479558705,552.6769555814615 M356.9275479558705,552.6769555814615 L358.84383976748177,546.1549525092876 M358.84383976748177,546.1549525092876 L358.0387575509334,539.5558991192252 M358.0387575509334,539.5558991192252 L354.55800792182504,533.2531912449633 M354.55800792182504,533.2531912449633 L348.5986620569548,527.6034023570253 M348.5986620569548,527.6034023570253 L340.4979896375364,522.926148566332 M340.4979896375364,522.926148566332 L330.7143681994629,519.486006929307 M330.7143681994629,519.486006929307 L319.8013341852444,517.4775567926292 M319.8013341852444,517.4775567926292 L308.37625338593773,517.0143917449022 M308.37625338593773,517.0143917449022 L297.0854673808286,518.1227101029424 M297.0854673808286,518.1227101029424 L286.5677243378134,520.7398287400628 M286.5677243378134,520.7398287400628 L277.41804875323425,524.7177196693328 M310.0488207263571,545.2182569467834 L300.8972524994319,549.1973605166315 M300.8972524994319,549.1973605166315 L290.3768593320255,551.8153761034393 M290.3768593320255,551.8153761034393 L279.0830270977408,552.924095983487 M279.0830270977408,552.924095983487 L267.6549513058477,552.4607609608306 M267.6549513058477,552.4607609608306 L256.7394397996827,550.4516018170232 M256.7394397996827,550.4516018170232 L246.95424136307105,547.0103517361429 M246.95424136307105,547.0103517361429 L238.85311835202054,542.3318055256896 M238.85311835202054,542.3318055256896 L232.89447384674753,536.6807852956917 M232.89447384674753,536.6807852956917 L229.41540124693506,530.377129572603 M229.41540124693506,530.377129572603 L228.61263408385855,523.7775649368281 M228.61263408385855,523.7775649368281 L230.53145119696745,517.2555413420457 M230.53145119696745,517.2555413420457 L235.06314643645874,511.1800753264806 M235.06314643645874,511.1800753264806 L241.95118323944712,505.89487725316513 M310.0488207263571,545.2182569467834 L345.52021735064955,524.7274551747462 M289.47861728048196,517.7690405944275 L286.05131374254887,516.2185192061418 M286.05131374254887,516.2185192061418 L282.0812373927701,515.1866903486114 M282.0812373927701,515.1866903486114 L277.7990893043444,514.7335049892013 M277.7990893043444,514.7335049892013 L273.45372330713315,514.8853031253121 M273.45372330713315,514.8853031253121 L269.2976561572642,515.6332655288359 M269.2976561572642,515.6332655288359 L265.5723918348636,516.9339220083431 M265.5723918348636,516.9339220083431 L262.4944311916861,518.711699884333 M262.4944311916861,518.711699884333 L260.2426516644091,520.863295157797 M260.2426516644091,520.863295157797 L258.94791990649907,523.263668466222 M258.94791990649907,523.263668466222 L258.6855116522453,525.7733349843309 M258.6855116522453,525.7733349843309 L259.47069561606855,528.2464432574968 M259.47069561606855,528.2464432574968 L261.25785198775833,530.5392519587137 M261.25785198775833,530.5392519587137 L263.9431411393189,532.5185088452647 M263.9431411393189,532.5185088452647 L267.3705046482696,534.0691736408862 M267.3705046482696,534.0691736408862 L271.34074991869386,535.1011126008568 M271.34074991869386,535.1011126008568 L275.6231381948753,535.554348949167 M275.6231381948753,535.554348949167 L279.9687570284442,535.4025330826871 M279.9687570284442,535.4025330826871 L284.12503275595327,534.6544877050965 M284.12503275595327,534.6544877050965 L287.8504154125861,533.3537009790871 M287.8504154125861,533.3537009790871 L290.92837602215263,531.5757760075767 M290.92837602215263,531.5757760075767 L293.18003715567556,529.424050487369 M293.18003715567556,529.424050487369 L294.47456029775924,527.0235930331648 M294.47456029775924,527.0235930331648 L294.7367157075529,524.5139087846017 M294.7367157075529,524.5139087846017 L293.9512915798112,522.0408538444974 M293.9512915798112,522.0408538444974 L292.1639663377921,519.7481552458316 M292.1639663377921,519.7481552458316 L289.47861728048196,517.7690405944275 M310.0424747553269,584.5306683483818 L310.0488207263571,545.2182569467834 M241.94862131129173,545.2051061210184 L235.0609671582103,550.4905975626507 M235.0609671582103,550.4905975626507 L230.5295236592773,556.5664008015224 M230.5295236592773,556.5664008015224 L228.61081312081438,563.0887863932273 M228.61081312081438,563.0887863932273 L229.41353564707669,569.6887173161504 M229.41353564707669,569.6887173161504 L232.89241490810258,575.9927228901665 M232.89241490810258,575.9927228901665 L238.85072829873457,581.6440567394195 M238.85072829873457,581.6440567394195 L246.95140114736478,586.3228625913619 M246.95140114736478,586.3228625913619 L256.7360558462753,589.7643036441234 M256.7360558462753,589.7643036441234 L267.65096081437076,591.7735742843279 M267.65096081437076,591.7735742843279 L279.07840160078456,592.2369350191454 M279.07840160078456,592.2369350191454 L290.3716063105006,591.1281536120491 M290.3716063105006,591.1281536120491 L300.8914149579795,588.5099927401477 M300.8914149579795,588.5099927401477 L310.0424747553269,584.5306683483818 M310.0424747553269,584.5306683483818 L345.51190093822356,564.0387293525241 M289.4734146699997,557.0799285555349 L286.04630157299897,555.5293211057458 M286.04630157299897,555.5293211057458 L282.0764458113373,554.4974349762604 M282.0764458113373,554.4974349762604 L277.7945356406441,554.0442244625619 M277.7945356406441,554.0442244625619 L273.4494110655006,554.1960310243142 M273.4494110655006,554.1960310243142 L269.2935748137805,554.9440349438087 M269.2935748137805,554.9440349438087 L265.56851744939587,556.2447636163874 M265.56851744939587,556.2447636163874 L262.490727796903,558.0226401672624 M262.490727796903,558.0226401672624 L260.239073355758,560.1743548628763 M260.239073355758,560.1743548628763 L258.9444135092354,562.5748613999124 M258.9444135092354,562.5748613999124 L258.68201980969843,565.0846672108307 M258.68201980969843,565.0846672108307 L259.46716012347184,567.5579127457968 M259.46716012347184,567.5579127457968 L261.2542171753172,569.8508487001591 M261.2542171753172,569.8508487001591 L263.9393571072445,571.8302154360933 M263.9393571072445,571.8302154360933 L267.36653016854086,573.380966293242 M267.36653016854086,573.380966293242 L271.33655483207633,574.412962525161 M271.33655483207633,574.412962525161 L275.61870516394816,574.866224027691 M275.61870516394816,574.866224027691 L279.9640825473549,574.7143997355711 M279.9640825473549,574.7143997355711 L284.1201273534831,573.9663128420473 M284.1201273534831,573.9663128420473 L287.8453030389526,572.6654539229742 M287.8453030389526,572.6654539229742 L290.92309265784013,570.887430276588 M290.92309265784013,570.887430276588 L293.1746287183883,568.7355853342385 M293.1746287183883,568.7355853342385 L294.4690799723229,566.3349946513956 M294.4690799723229,566.3349946513956 L294.7312208554956,563.8251711100243 M294.7312208554956,563.8251711100243 L293.94584040437695,561.3519789081815 M293.94584040437695,561.3519789081815 L292.1586145009654,559.0591530563636 M292.1586145009654,559.0591530563636 L289.4734146699997,557.0799285555349 M289.47861728048196,517.7690405944275 L289.4734146699997,557.0799285555349" stroke="black"  stroke-width="4"  fill="red"/>
<path d="M364.12399258645087,556.854252966408 L364.12212276206094,564.7153724866341 M364.12212276206094,564.7153724866341 L352.3039793819071,553.5931196757094 M352.3039793819071,553.5931196757094 L336.3262341606528,544.367094803273 M336.3262341606528,544.367094803273 L317.0682644189602,537.5447465487321 M317.0696113186723,529.6839285703954 L317.0682644189602,537.5447465487321 M317.0696113186723,529.6839285703954 L336.3277950517272,536.5062011055848 M336.3277950517272,536.5062011055848 L352.305717838807,545.7321235855768 M352.305717838807,545.7321235855768 L364.12399258645087,556.854252966408 M364.12399258645087,556.854252966408 L365.4943241537527,559.2473775220667 M365.4943241537527,559.2473775220667 L365.8968697650688,561.7571353406888 M365.8968697650688,561.7571353406888 L365.31094511412743,564.2546960034924 M365.31094511412743,564.2546960034924 L363.7666072850118,566.6118466719199 M363.7666072850118,566.6118466719199 L361.3431084465427,568.7075733988879 M364.12212276206094,564.7153724866341 L365.4924390908627,567.1085235994642 M365.4924390908627,567.1085235994642 L365.89498021606664,569.6183092691831 M365.89498021606664,569.6183092691831 L365.30906206213876,572.115897647338 M365.30906206213876,572.115897647338 L363.7647413800961,574.4730744726319 M363.7647413800961,574.4730744726319 L361.34126945898015,576.5688244552 M361.3431084465427,568.7075733988879 L361.34126945898015,576.5688244552 M346.63605709151614,585.1018046014162 L350.52636908837746,583.669631292719 M350.52636908837746,583.669631292719 L354.22176279108976,581.5209341847067 M354.22176279108976,581.5209341847067 L357.53695371754236,578.7634640608253 M357.53695371754236,578.7634640608253 L360.3057103043212,575.5354707050301 M360.3057103043212,575.5354707050301 L362.3892075749458,571.9988094647458 M362.3892075749458,571.9988094647458 L363.68296809997,568.3308035930131 M363.68296809997,568.3308035930131 L364.12212276206094,564.7153724866341 M308.9938164777169,563.3639204888482 L310.79005361176667,560.7226857789938 M310.79005361176667,560.7226857789938 L312.4963328073467,557.4256054351733 M312.4963328073467,557.4256054351733 L314.02709840661396,553.6380086320805 M314.02709840661396,553.6380086320805 L315.3056066812196,549.5498021066048 M315.3056066812196,549.5498021066048 L316.267749682537,545.3659625149828 M316.267749682537,545.3659625149828 L316.8652936366818,541.2962634119842 M316.8652936366818,541.2962634119842 L317.0682644189602,537.5447465487321 M346.63605709151614,585.1018046014162 L337.18201127306054,576.2035200883508 M337.18201127306054,576.2035200883508 L324.40009581510867,568.8222087384868 M324.40009581510867,568.8222087384868 L308.9938164777169,563.3639204888482 M296.55003181112033,531.293079741467 L300.17758147330784,529.8929897357416 M300.17758147330784,529.8929897357416 L304.25786288410285,529.0005182989153 M304.25786288410285,529.0005182989153 L308.58142725223513,528.6614662356656 M308.58142725223513,528.6614662356656 L312.9263487990261,528.8932347539194 M312.9263487990261,528.8932347539194 L317.0696113186723,529.6839285703954 M296.54891288189214,539.1539155797877 L300.1764222458673,537.7538100344593 M300.1764222458673,537.7538100344593 L304.2566583271413,536.8613286920256 M304.2566583271413,536.8613286920256 L308.58017466112494,536.5222728655986 M308.58017466112494,536.5222728655986 L312.9250479344811,536.7540439562783 M312.9250479344811,536.7540439562783 L317.0682644189602,537.5447465487321 M296.55003181112033,531.293079741467 L296.54891288189214,539.1539155797877 M346.6444350687641,545.7959106691255 L350.53479079483145,545.1521787714171 M350.53479079483145,545.1521787714171 L354.22986501340654,545.3291555923599 M354.22986501340654,545.3291555923599 L357.54436927428185,546.3179495863812 M357.54436927428185,546.3179495863812 L360.3120953485875,548.0689686416345 M360.3120953485875,548.0689686416345 L362.39426993555367,550.4943987072925 M362.39426993555367,550.4943987072925 L363.6864930258066,553.4726048969871 M363.6864930258066,553.4726048969871 L364.12399258645087,556.854252966408 M309.0001027547429,524.0592327249002 L310.7963115445009,522.2064809868727 M310.7963115445009,522.2064809868727 L312.5023001306969,521.2350579215458 M312.5023001306969,521.2350579215458 L314.03251820353455,521.1936450024837 M314.03251820353455,521.1936450024837 L315.31024436801215,522.0843076481067 M315.31024436801215,522.0843076481067 L316.27140989475697,523.8623602993507 M316.27140989475697,523.8623602993507 L316.86783514583146,526.4386317982514 M316.86783514583146,526.4386317982514 L317.0696113186723,529.6839285703954 M309.0001027547429,524.0592327249002 L324.40723808627195,529.5172180969637 M324.40723808627195,529.5172180969637 L337.189863808406,536.8981198765746 M337.189863808406,536.8981198765746 L346.6444350687641,545.7959106691255 M346.6444350687641,545.7959106691255 L346.6444350687641,545.7959106691255 M346.6444350687641,545.7959106691255 L349.91588464819665,547.7897222336528 M349.91588464819665,547.7897222336528 L353.0231322683411,550.4719983115747 M353.0231322683411,550.4719983115747 L355.8103571186275,553.7082265892257 M355.8103571186275,553.7082265892257 L358.13778887050773,557.3361249641391 M358.13778887050773,557.3361249641391 L359.8887090297104,561.1737625707401 M359.8887090297104,561.1737625707401 L360.97530615042274,565.0286795245706 M360.97530615042274,565.0286795245706 L361.3431084465427,568.7075733988879 M346.63605709151614,585.1018046014162 L346.63605709151614,585.1018046014162 M346.63605709151614,585.1018046014162 L349.9074965725739,586.3073181675379 M349.9074965725739,586.3073181675379 L353.01509165728123,586.6640396537753 M353.01509165728123,586.6640396537753 L355.8030209273994,586.1540795518447 M355.8030209273994,586.1540795518447 L358.13148807004677,584.8029863434035 M358.13148807004677,584.8029863434035 L359.8837226734888,582.6784975167111 M359.8837226734888,582.6784975167111 L360.9718380480723,579.8871206019139 M360.9718380480723,579.8871206019139 L361.34126945898015,576.5688244552 M361.3431084465427,568.7075733988879 L349.5205224426444,578.85787300589 M349.5205224426444,578.85787300589 L341.82581514216827,590.2568270003108 M341.82581514216827,590.2568270003108 L338.63158987354745,602.3531407490916 M338.63158987354745,602.3531407490916 L340.09284023659086,614.5616919349088 M340.09284023659086,614.5616919349088 L340.0912371610575,622.4234517504967 M340.0912371610575,622.4234517504967 L338.6300030913369,610.2147651216133 M338.6300030913369,610.2147651216133 L341.82419291978647,598.1183171657124 M341.82419291978647,598.1183171657124 L349.5188147712819,586.7192366928857 M349.5188147712819,586.7192366928857 L361.34126945898015,576.5688244552 M308.9938164777169,563.3639204888482 L306.22407017972967,561.0807798136179 M306.22407017972967,561.0807798136179 L303.5933624019016,558.1238314437092 M303.5933624019016,558.1238314437092 L301.2335889117135,554.6413492532326 M301.2335889117135,554.6413492532326 L299.26306387393396,550.8079349119264 M299.26306387393396,550.8079349119264 L297.78058110846007,546.8157949654208 M297.78058110846007,546.8157949654208 L296.8604896383881,542.86509645104 M296.8604896383881,542.86509645104 L296.54891288189214,539.1539155797877 M308.9938164777169,563.3639204888482 L308.9938164777169,563.3639204888482 M346.63605709151614,585.1018046014162 L332.4491277188813,597.2821464509973 M332.4491277188813,597.2821464509973 L323.2151993910553,610.9610337987008 M323.2151993910553,610.9610337987008 L319.3815090986566,625.4769617251272 M319.3815090986566,625.4769617251272 L321.1341577808963,640.1277698880938 M213.75335753914322,578.1045927163614 L239.1098765179687,579.1138326391119 M239.1098765179687,579.1138326391119 L264.23452960057205,576.8967062376569 M264.23452960057205,576.8967062376569 L287.9111618187891,571.5605941120357 M287.9111618187891,571.5605941120357 L308.9938164777169,563.3639204888482 M269.71706619294184,648.0875366567902 L287.7867853477509,647.8091625321481 M287.7867853477509,647.8091625321481 L305.24624117986554,645.1062951717795 M305.24624117986554,645.1062951717795 L321.1341577808963,640.1277698880938 M213.75335753914322,578.1045927163614 L205.13768077181783,587.2812536676452 M205.13768077181783,587.2812536676452 L200.46014490497862,597.3654344674089 M200.46014490497862,597.3654344674089 L199.97850362895213,607.8022406007369 M269.71706619294184,648.0875366567902 L258.54746855187875,634.8941341398661 M258.54746855187875,634.8941341398661 L242.65674872232398,623.431080616497 M242.65674872232398,623.431080616497 L222.8138145598964,614.2525641326513 M222.8138145598964,614.2525641326513 L199.97850362895213,607.8022406007369 M289.4682126375933,596.3864485795366 L286.041289960362,594.8357550969399 M286.041289960362,594.8357550969399 L282.071654762306,593.8038117145954 M282.071654762306,593.8038117145954 L277.7899824829091,593.350576054996 M277.7899824829091,593.350576054996 L273.4450993030089,593.5023910395803 M273.4450993030089,593.5023910395803 L269.2894939237829,594.2504364612028 M269.2894939237829,594.2504364612028 L265.56464349442035,595.5512373027818 M265.56464349442035,595.5512373027818 L262.4870248136151,597.3292124956395 M262.4870248136151,597.3292124956395 L260.23549544470586,599.4810465735834 M260.23549544470586,599.4810465735834 L258.94090750158296,601.8816862948067 M258.94090750158296,601.8816862948067 L258.6785283551482,604.3916313520874 M258.6785283551482,604.3916313520874 L259.4636250237248,606.8650141030832 M259.4636250237248,606.8650141030832 L261.25058276676424,609.158077268158 M261.25058276676424,609.158077268158 L263.9355734956414,611.1375538168445 M263.9355734956414,611.1375538168445 L267.3625561304474,612.6883907068218 M267.3625561304474,612.6883907068218 L271.3323602116089,613.7204441915908 M271.3323602116089,613.7204441915908 L275.61427262561165,614.1737308399529 M275.61427262561165,614.1737308399529 L279.95940858568537,614.0218981250023 M279.95940858568537,614.0218981250023 L284.1152224960913,613.2737697293896 M284.1152224960913,613.2737697293896 L287.84019123339345,611.9728386413269 M287.84019123339345,611.9728386413269 L290.91780988059907,610.1947163529694 M290.91780988059907,610.1947163529694 L293.1692208820665,608.0427520283004 M293.1692208820665,608.0427520283004 L294.4636002558361,605.6420281612445 M294.4636002558361,605.6420281612445 L294.7257266139976,603.1320653735122 M294.7257266139976,603.1320653735122 L293.9403898346445,600.6587359557006 M293.9403898346445,600.6587359557006 L292.15326325879886,598.3657828931616 M292.15326325879886,598.3657828931616 L289.4682126375933,596.3864485795366 M309.0001027547429,524.0592327249002 L306.2300795483869,522.5645555490609 M306.2300795483869,522.5645555490609 L303.5988743296232,521.9332482539526 M303.5988743296232,521.9332482539526 L301.2384220497764,522.1969396635471 M301.2384220497764,522.1969396635471 L299.26707880893537,523.3423916654035 M299.26707880893537,523.3423916654035 L297.78367945364835,525.3121487314506 M297.78367945364835,525.3121487314506 L296.86261106618053,528.0074319267599 M296.86261106618053,528.0074319267599 L296.55003181112033,531.293079741467 M309.0001027547429,524.0592327249002 L309.0001027547429,524.0592327249002 M296.54891288189214,539.1539155797877 L278.9798951456422,545.9839714624379 M278.9798951456422,545.9839714624379 L259.2494175954385,550.4303750824695 M259.2494175954385,550.4303750824695 L238.31237299264143,552.2778260071107 M238.31237299264143,552.2778260071107 L217.1821269629952,551.4368642059944 M217.18236410988766,543.5758920459789 L217.1821269629952,551.4368642059944 M217.18236410988766,543.5758920459789 L238.3128449126441,544.4168445140685 M238.3128449126441,544.4168445140685 L259.25012213770094,542.5694140925671 M259.25012213770094,542.5694140925671 L278.98081889524747,538.1230598199122 M278.98081889524747,538.1230598199122 L296.55003181112033,531.293079741467 M309.0001027547429,524.0592327249002 L287.9162769836023,532.2554515224556 M287.9162769836023,532.2554515224556 L264.23832945511657,537.5912675636171 M264.23832945511657,537.5912675636171 L239.11228055342855,539.808270946171 M239.11228055342855,539.808270946171 L213.75435284717486,538.799087021654 M213.75435284717486,538.799087021654 L205.13819743601437,547.9752388126085 M205.13819743601437,547.9752388126085 L200.46040170202423,558.0588601294487 M200.46040170202423,558.0588601294487 L199.978733672999,568.4950872493712 M199.978733672999,568.4950872493712 L222.81531338865886,574.9450529471617 M222.81531338865886,574.9450529471617 L242.6593501359667,584.1230602718654 M242.6593501359667,584.1230602718654 L258.55095302487706,595.585477943278 M258.55095302487706,595.585477943278 L269.7211714627306,608.7781486773854 M269.7211714627306,608.7781486773854 L287.7918947031564,608.4997899924265 M287.7918947031564,608.4997899924265 L305.2523206669042,605.7970725445839 M305.2523206669042,605.7970725445839 L321.1411200148535,600.8188233970984 M321.1411200148535,600.8188233970984 L319.3883736603609,586.1688278930935 M319.3883736603609,586.1688278930935 L323.2222766776433,571.6537052104629 M323.2222766776433,571.6537052104629 L332.45671776494135,557.9755767338293 M332.45671776494135,557.9755767338293 L346.6444350687641,545.7959106691255 M270.1664701811917,578.5599690674514 L252.28790877952167,568.2342447006981 M252.28790877952167,568.2342447006981 L258.82861209231044,554.1300168158202 M258.82861209231044,554.1300168158202 L283.246310394917,550.3509927861617 M283.246310394917,550.3509927861617 L301.1248715582338,560.6756738384117 M301.1248715582338,560.6756738384117 L294.58573470292106,574.7804222083996 M294.58573470292106,574.7804222083996 L270.1664701811917,578.5599690674514 M321.1411200148535,600.8188233970984 L325.35894383441337,600.7722152149897 M325.35894383441337,600.7722152149897 L329.36509919080993,601.5164272683978 M329.36509919080993,601.5164272683978 L332.95868687132815,603.0141265389357 M332.95868687132815,603.0141265389357 L335.95953401171573,605.1902178048197 M335.95953401171573,605.1902178048197 L338.21714666970547,607.935563017254 M338.21714666970547,607.935563017254 L339.61833105619405,611.1124898947573 M339.61833105619405,611.1124898947573 L340.09284023659086,614.5616919349088 M321.1341577808963,640.1277698880938 L325.35189159643517,639.2926915414725 M325.35189159643517,639.2926915414725 L329.3582677932329,637.711076076009 M329.3582677932329,637.711076076009 L332.95239776252265,635.4622374395699 M332.95239776252265,635.4622374395699 L335.95409348050316,632.6589343331657 M335.95409348050316,632.6589343331657 L338.2128184540737,629.4417172589526 M338.2128184540737,629.4417172589526 L339.61531108588326,625.9718973931215 M339.61531108588326,625.9718973931215 L340.0912371610575,622.4234517504967 M332.24813055808556,625.6352759793988 L332.2466146119249,633.4971586385043 M332.24813055808556,625.6352759793988 L335.50551649033696,623.95754896771 M335.50551649033696,623.95754896771 L338.02533450061355,621.8992136993888 M338.02533450061355,621.8992136993888 L339.6782462034638,619.5659451835681 M339.6782462034638,619.5659451835681 L340.3793952734602,617.0775175753249 M340.3793952734602,617.0775175753249 L340.09284023659086,614.5616919349088 M332.2466146119249,633.4971586385043 L335.5039643516802,631.8194130156407 M335.5039643516802,631.8194130156407 L338.0237543681351,629.7610549137821 M338.0237543681351,629.7610549137821 L339.6766477126416,627.4277605142111 M339.6766477126416,627.4277605142111 L340.3777890020799,624.9393053006079 M340.3777890020799,624.9393053006079 L340.0912371610575,622.4234517504967 M213.75335753914322,578.1045927163614 L214.5162540121363,575.2745909487171 M214.5162540121363,575.2745909487171 L215.24091121724507,571.7981965388594 M215.24091121724507,571.7981965388594 L215.8909879213603,567.8497323245504 M215.8909879213603,567.8497323245504 L216.43389778020537,563.6271646196546 M216.43389778020537,563.6271646196546 L216.84241732076396,559.3422121147332 M216.84241732076396,559.3422121147332 L217.09606894749624,555.2097153368907 M217.09606894749624,555.2097153368907 L217.1821269629952,551.4368642059944 M269.71706619294184,648.0875366567902 L269.3284656304787,650.1595014191603 M269.3284656304787,650.1595014191603 L268.9594348292492,651.3391790242058 M268.9594348292492,651.3391790242058 L268.62847874726714,651.567404030214 M268.62847874726714,651.567404030214 L268.35216605559214,650.8326856458866 M268.35216605559214,650.8326856458866 L268.14439164190674,649.1718704238288 M268.14439164190674,649.1718704238288 L268.01555362347557,646.6682006075112 M268.01555362347557,646.6682006075112 L267.97211584070396,643.4472075056331 M267.97211584070396,643.4472075056331 L290.56048842233247,643.0992346468806 M290.56048842233247,643.0992346468806 L312.3858847749119,639.7205093362543 M312.3858847749119,639.7205093362543 L332.2466146119249,633.4971586385043 M321.1341577808963,640.1277698880938 L323.60627285824296,641.7568396988188 M323.60627285824296,641.7568396988188 L325.95458020852266,642.5158172289803 M325.95458020852266,642.5158172289803 L328.06134750218075,642.3666471036527 M328.06134750218075,642.3666471036527 L329.8209332484216,641.3167862265445 M329.8209332484216,641.3167862265445 L331.1450858824653,639.4188556764636 M331.1450858824653,639.4188556764636 L331.9674037857967,636.7680120178336 M331.9674037857967,636.7680120178336 L332.2466146119249,633.4971586385043 M213.75335753914322,578.1045927163614 L210.25177941701736,576.2832186330265 M210.25177941701736,576.2832186330265 L206.9258154137977,573.7648497488524 M206.9258154137977,573.7648497488524 L203.94223722623263,570.6757746904364 M203.94223722623263,570.6757746904364 L201.45063290954005,567.1708702922967 M201.45063290954005,567.1708702922967 L199.57593643074182,563.4258752019562 M199.57593643074182,563.4258752019562 L198.41215350741027,559.6285612868812 M198.41215350741027,559.6285612868812 L198.01763227923226,555.9693222330895 M198.01763227923226,555.9693222330895 L187.24741242403047,567.4395478473396 M187.24741242403047,567.4395478473396 L181.39975404346058,580.0442928375512 M181.39975404346058,580.0442928375512 L180.79698592825287,593.0899910792409 M199.97850362895213,607.8022406007369 L195.7102971097754,607.6328297925772 M195.7102971097754,607.6328297925772 L191.65610155081737,606.6835394084721 M191.65610155081737,606.6835394084721 L188.01920522108549,605.0019743181228 M188.01920522108549,605.0019743181228 L184.98196720309704,602.6724348566715 M184.98196720309704,602.6724348566715 L182.6966899732082,599.8117286697784 M182.6966899732082,599.8117286697784 L181.27797997360682,596.5632888064645 M181.27797997360682,596.5632888064645 L180.79698592825287,593.0899910792409 M251.5884672851978,636.123786061996 L242.2806815474014,625.129229613902 M242.2806815474014,625.129229613902 L229.03825990186107,615.5765254394698 M229.03825990186107,615.5765254394698 L212.5019719155,607.9275552444312 M212.5019719155,607.9275552444312 L193.47171957032555,602.5521086703022 M269.71706619294184,648.0875366567902 L265.68286737647026,648.5299046976254 M265.68286737647026,648.5299046976254 L261.8510157870554,648.161679930545 M261.8510157870554,648.161679930545 L258.4136419062996,647.0013146422909 M258.4136419062996,647.0013146422909 L255.54311648809596,645.1069822522277 M255.54311648809596,645.1069822522277 L253.38339264903004,642.5736606022631 M253.38339264903004,642.5736606022631 L252.04275499928917,639.5283617109712 M252.04275499928917,639.5283617109712 L251.5884672851978,636.123786061996 M199.97850362895213,607.8022406007369 L198.53065342420967,609.738339365568 M198.53065342420967,609.738339365568 L197.1553818056837,610.7890030732397 M197.1553818056837,610.7890030732397 L195.92166567431985,610.901538905392 M195.92166567431985,610.901538905392 L194.89135886638468,610.0702700203844 M194.89135886638468,610.0702700203844 L194.11613080534676,608.3368546349436 M194.11613080534676,608.3368546349436 L193.63487528109573,605.788209782228 M193.63487528109573,605.788209782228 L193.47171957032555,602.5521086703022 M289.4709020159691,576.0655246175645 L286.0438808943667,574.5148756103436 M286.0438808943667,574.5148756103436 L282.0741316679956,573.4829618253409 M282.0741316679956,573.4829618253409 L277.79233640210833,573.0297391651243 M277.79233640210833,573.0297391651243 L273.447328424226,573.1815497954556 M273.447328424226,573.1815497954556 L269.29160368713264,573.9295737622074 M269.29160368713264,573.9295737622074 L265.56664627524265,575.2303372954214 M265.56664627524265,575.2303372954214 L262.48893920445346,577.0082614944854 M262.48893920445346,577.0082614944854 L260.23734517493824,579.1600338567405 M260.23734517493824,579.1600338567405 L258.9427200587578,581.5606047272902 M258.9427200587578,581.5606047272902 L258.6803333885713,584.0704778000054 M258.6803333885713,584.0704778000054 L259.46545262110703,586.5437896160331 M259.46545262110703,586.5437896160331 L261.252461705417,588.836787018472 M261.252461705417,588.836787018472 L263.93752957019484,590.8162067985429 M263.93752957019484,590.8162067985429 L267.3646106528465,592.3669992131338 M267.3646106528465,592.3669992131338 L271.3345287720259,593.399023100566 M271.3345287720259,593.399023100566 L275.61656418625654,593.852296749581 M275.61656418625654,593.852296749581 L279.9618249588342,593.7004683888827 M279.9618249588342,593.7004683888827 L284.117758239116,592.9523614481202 M284.117758239116,592.9523614481202 L287.84283396574136,591.6514676684167 M287.84283396574136,591.6514676684167 L290.92054100292796,589.8733963738468 M290.92054100292796,589.8733963738468 L293.1720166582006,587.7214937648607 M293.1720166582006,587.7214937648607 L294.4664331930159,585.3208387484917 M294.4664331930159,585.3208387484917 L294.7285670604066,582.810947945324 M294.7285670604066,582.810947945324 L293.9432077033589,580.3376894624491 M293.9432077033589,580.3376894624491 L292.1560297765442,578.0448021625507 M292.1560297765442,578.0448021625507 L289.4709020159691,576.0655246175645 M289.4709020159691,576.0655246175645 L289.4682126375933,596.3864485795366 M213.75435284717486,538.799087021654 L214.5172708828049,536.7575948849287 M214.5172708828049,536.7575948849287 L215.24190375235077,535.6069146805053 M215.24190375235077,535.6069146805053 L215.891907523033,535.4047177219243 M215.891907523033,535.4047177219243 L216.43469733264146,536.1611242872991 M216.43469733264146,536.1611242872991 L216.84305572832073,537.8381855814589 M216.84305572832073,537.8381855814589 L217.09651537096516,540.3517918607856 M217.09651537096516,540.3517918607856 L217.18236410988766,543.5758920459789 M198.01765649533462,548.108299772206 L200.92118724707092,546.2269794111467 M200.92118724707092,546.2269794111467 L204.48342677222445,544.7714709299776 M204.48342677222445,544.7714709299776 L208.52151608537093,543.8164762023889 M208.52151608537093,543.8164762023889 L212.82818025369693,543.411013133783 M212.82818025369693,543.411013133783 L217.18236410988766,543.5758920459789 M198.01763227923226,555.9693222330895 L200.9211307709324,554.0879809932076 M200.9211307709324,554.0879809932076 L204.48333071762187,552.6324563587077 M204.48333071762187,552.6324563587077 L208.5213751654651,551.6774510324512 M208.5213751654651,551.6774510324512 L212.82799148441939,551.2719834639408 M212.82799148441939,551.2719834639408 L217.1821269629952,551.4368642059944 M198.01765649533462,548.108299772206 L198.01763227923226,555.9693222330895 M213.75435284717486,538.799087021654 L210.25256412423107,537.7661677267022 M210.25256412423107,537.7661677267022 L206.9263825993595,537.5734674121179 M206.9263825993595,537.5734674121179 L203.942608874457,538.230630646178 M203.942608874457,538.230630646178 L201.45085079577103,539.704692553529 M201.45085079577103,539.704692553529 L199.5760500394726,541.9217246953817 M199.5760500394726,541.9217246953817 L198.41220756336185,544.7705451214852 M198.41220756336185,544.7705451214852 L198.01765649533462,548.108299772206 M198.01765649533462,548.108299772206 L187.24731697074185,559.5783980965427 M187.24731697074185,559.5783980965427 L181.39959360989832,572.1830032161283 M181.39959360989832,572.1830032161283 L180.79681879080954,585.2285567045853 M199.978733672999,568.4950872493712 L195.71029014958458,569.1140744567006 M195.71029014958458,569.1140744567006 L191.65588760100582,570.4904753872145 M191.65588760100582,570.4904753872145 L188.01884661617157,572.5552581911272 M188.01884661617157,572.5552581911272 L184.98154570722102,575.2048807045203 M184.98154570722102,575.2048807045203 L182.69629050448827,578.3064736749252 M182.69629050448827,578.3064736749252 L181.27767417004293,581.7044979923646 M181.27767417004293,581.7044979923646 L180.79681879080954,585.2285567045853 M269.7211714627306,608.7781486773854 L265.6866706368272,610.008926305851 M265.6866706368272,610.008926305851 L261.8543933567683,611.9664974024829 M261.8543933567683,611.9664974024829 L258.4165121912814,614.5526754307803 M258.4165121912814,614.5526754307803 L255.5454348410509,617.6377832541798 M255.5454348410509,617.6377832541798 L253.38514210001665,621.067107864631 M253.38514210001665,621.067107864631 L252.0439355954981,624.6686699746781 M252.0439355954981,624.6686699746781 L251.5890868590854,628.2618742661571 M199.978733672999,568.4950872493712 L198.53080002421348,571.2194695672465 M198.53080002421348,571.2194695672465 L197.15544919607174,574.595729342187 M197.15544919607174,574.595729342187 L195.92166950555344,578.4545526189136 M195.92166950555344,578.4545526189136 L194.89132210669413,582.6024290852747 M194.89132210669413,582.6024290852747 L194.116078459331,586.8313408937747 M194.116078459331,586.8313408937747 L193.63482900539213,590.9292255149612 M193.63482900539213,590.9292255149612 L193.4716932740132,594.6905693120061 M193.4716932740132,594.6905693120061 L212.50215709210624,600.0659562472374 M212.50215709210624,600.0659562472374 L229.03862884562506,607.7148415824722 M229.03862884562506,607.7148415824722 L242.2811976644303,617.2674397817041 M242.2811976644303,617.2674397817041 L251.5890868590854,628.2618742661571 M269.7211714627306,608.7781486773854 L269.3324674232767,611.6384344575131 M269.3324674232767,611.6384344575131 L268.96317613700836,615.1438342250558 M268.96317613700836,615.1438342250558 L268.631817621116,619.1185557721114 M268.631817621116,619.1185557721114 L268.3549818312814,623.3632647386385 M268.3549818312814,623.3632647386385 L268.1465898874834,627.6651174711237 M268.1465898874834,627.6651174711237 L268.01706976403835,631.808359179224 M268.01706976403835,631.808359179224 L267.9729175086582,635.585214474607 M267.9729175086582,635.585214474607 L290.5615411272987,635.237245475674 M290.5615411272987,635.237245475674 L312.387180025916,631.8585576432754 M312.387180025916,631.8585576432754 L332.24813055808556,625.6352759793988 M321.1411200148535,600.8188233970984 L323.61323009282364,603.2362294372465 M323.61323009282364,603.2362294372465 L325.96123755085705,606.320923035589 M325.96123755085705,606.320923035589 L328.06741238829454,609.9182200839309 M328.06741238829454,609.9182200839309 L329.82613576375786,613.8477341278306 M329.82613576375786,613.8477341278306 L331.14919935369915,617.9123986703933 M331.14919935369915,617.9123986703933 L331.97026320269833,621.9083781559311 M331.97026320269833,621.9083781559311 L332.24813055808556,625.6352759793988 M270.1664701811917,578.5599690674514 L270.1644754979235,597.5461407730231 M252.28790877952167,568.2342447006981 L252.2863939314346,587.2201396959449 M270.1644754979235,597.5461407730231 L252.2863939314346,587.2201396959449 M258.82861209231044,554.1300168158202 L258.8269217896776,573.1155338177102 M252.2863939314346,587.2201396959449 L258.8269217896776,573.1155338177102 M283.246310394917,550.3509927861617 L283.24396488657317,569.3364085050707 M258.8269217896776,573.1155338177102 L283.24396488657317,569.3364085050707 M301.1248715582338,560.6756738384117 L301.1220462147281,579.6613662676837 M283.24396488657317,569.3364085050707 L301.1220462147281,579.6613662676837 M294.58573470292106,574.7804222083996 L294.5830847299415,593.7664926309781 M301.1220462147281,579.6613662676837 L294.5830847299415,593.7664926309781 M294.5830847299415,593.7664926309781 L270.1644754979235,597.5461407730231 M321.1411200148535,600.8188233970984 L321.1411200148535,600.8188233970984 M321.1341577808963,640.1277698880938 L321.1341577808963,640.1277698880938 M267.9729175086582,635.585214474607 L267.97211584070396,643.4472075056331 M213.75335753914322,578.1045927163614 L213.75335753914322,578.1045927163614 M269.71706619294184,648.0875366567902 L269.71706619294184,648.0875366567902 M267.97211584070396,643.4472075056331 L263.6983028065791,642.9352933945838 M263.6983028065791,642.9352933945838 L259.7335635154013,641.8807088362389 M259.7335635154013,641.8807088362389 L256.2814349635294,640.3376203988032 M256.2814349635294,640.3376203988032 L253.51913506788964,638.385230211059 M253.51913506788964,638.385230211059 L251.5884672851978,636.123786061996 M180.79681879080954,585.2285567045853 L180.79698592825287,593.0899910792409 M199.97850362895213,607.8022406007369 L199.97850362895213,607.8022406007369 M180.79698592825287,593.0899910792409 L181.68285457799135,595.5583349866006 M181.68285457799135,595.5583349866006 L183.50794774869416,597.8481453397021 M183.50794774869416,597.8481453397021 L186.17856839247656,599.8418785773131 M186.17856839247656,599.8418785773131 L189.55765063464418,601.4371669270815 M189.55765063464418,601.4371669270815 L193.47171957032555,602.5521086703022 M193.4716932740132,594.6905693120061 L193.47171957032555,602.5521086703022 M251.5890868590854,628.2618742661571 L251.5884672851978,636.123786061996 M213.75435284717486,538.799087021654 L213.75435284717486,538.799087021654 M199.978733672999,568.4950872493712 L199.978733672999,568.4950872493712 M180.79681879080954,585.2285567045853 L181.68269728323725,587.6968732247503 M181.68269728323725,587.6968732247503 L183.50781073365835,589.9866581718954 M183.50781073365835,589.9866581718954 L186.17846105321252,591.9803692888597 M186.17846105321252,591.9803692888597 L189.5575808441953,593.5756399389422 M189.5575808441953,593.5756399389422 L193.4716932740132,594.6905693120061 M269.7211714627306,608.7781486773854 L269.7211714627306,608.7781486773854 M267.9729175086582,635.585214474607 L263.6990569760115,635.0733060418652 M263.6990569760115,635.0733060418652 L259.73427362027155,634.0187331813454 M259.73427362027155,634.0187331813454 L256.2821067000797,632.4756618605179 M256.2821067000797,632.4756618605179 L253.51977610208968,630.52329332975 M253.51977610208968,630.52329332975 L251.5890868590854,628.2618742661571" stroke="black"  stroke-width="4"  fill="red"/>
<path d="M252.28790877952167,568.2342447006981 L252.2863939314346,587.2201396959449 M258.82861209231044,554.1300168158202 L258.8269217896776,573.1155338177102 M252.28790877952167,568.2342447006981 L258.82861209231044,554.1300168158202 M252.2863939314346,587.2201396959449 L258.8269217896776,573.1155338177102 M270.1664701811917,578.5599690674514 L270.1644754979235,597.5461407730231 M270.1664701811917,578.5599690674514 L252.28790877952167,568.2342447006981 M270.1644754979235,597.5461407730231 L252.2863939314346,587.2201396959449 M283.246310394917,550.3509927861617 L283.24396488657317,569.3364085050707 M258.82861209231044,554.1300168158202 L283.246310394917,550.3509927861617 M258.8269217896776,573.1155338177102 L283.24396488657317,569.3364085050707 M294.58573470292106,574.7804222083996 L270.1664701811917,578.5599690674514 M283.246310394917,550.3509927861617 L301.1248715582338,560.6756738384117 M301.1248715582338,560.6756738384117 L294.58573470292106,574.7804222083996 M289.4734146699997,557.0799285555349 L286.04630157299897,555.5293211057458 M286.04630157299897,555.5293211057458 L282.0764458113373,554.4974349762604 M282.0764458113373,554.4974349762604 L277.7945356406441,554.0442244625619 M277.7945356406441,554.0442244625619 L273.4494110655006,554.1960310243142 M273.4494110655006,554.1960310243142 L269.2935748137805,554.9440349438087 M269.2935748137805,554.9440349438087 L265.56851744939587,556.2447636163874 M265.56851744939587,556.2447636163874 L262.490727796903,558.0226401672624 M262.490727796903,558.0226401672624 L260.239073355758,560.1743548628763 M260.239073355758,560.1743548628763 L258.9444135092354,562.5748613999124 M258.9444135092354,562.5748613999124 L258.68201980969843,565.0846672108307 M258.68201980969843,565.0846672108307 L259.46716012347184,567.5579127457968 M259.46716012347184,567.5579127457968 L261.2542171753172,569.8508487001591 M261.2542171753172,569.8508487001591 L263.9393571072445,571.8302154360933 M263.9393571072445,571.8302154360933 L267.36653016854086,573.380966293242 M267.36653016854086,573.380966293242 L271.33655483207633,574.412962525161 M271.33655483207633,574.412962525161 L275.61870516394816,574.866224027691 M275.61870516394816,574.866224027691 L279.9640825473549,574.7143997355711 M279.9640825473549,574.7143997355711 L284.1201273534831,573.9663128420473 M284.1201273534831,573.9663128420473 L287.8453030389526,572.6654539229742 M287.8453030389526,572.6654539229742 L290.92309265784013,570.887430276588 M290.92309265784013,570.887430276588 L293.1746287183883,568.7355853342385 M293.1746287183883,568.7355853342385 L294.4690799723229,566.3349946513956 M294.4690799723229,566.3349946513956 L294.7312208554956,563.8251711100243 M294.7312208554956,563.8251711100243 L293.94584040437695,561.3519789081815 M293.94584040437695,561.3519789081815 L292.1586145009654,559.0591530563636 M292.1586145009654,559.0591530563636 L289.4734146699997,557.0799285555349 M294.5830847299415,593.7664926309781 L270.1644754979235,597.5461407730231 M283.24396488657317,569.3364085050707 L301.1220462147281,579.6613662676837 M301.1220462147281,579.6613662676837 L294.5830847299415,593.7664926309781 M289.4709020159691,576.0655246175645 L286.0438808943667,574.5148756103436 M286.0438808943667,574.5148756103436 L282.0741316679956,573.4829618253409 M282.0741316679956,573.4829618253409 L277.79233640210833,573.0297391651243 M277.79233640210833,573.0297391651243 L273.447328424226,573.1815497954556 M273.447328424226,573.1815497954556 L269.29160368713264,573.9295737622074 M269.29160368713264,573.9295737622074 L265.56664627524265,575.2303372954214 M265.56664627524265,575.2303372954214 L262.48893920445346,577.0082614944854 M262.48893920445346,577.0082614944854 L260.23734517493824,579.1600338567405 M260.23734517493824,579.1600338567405 L258.9427200587578,581.5606047272902 M258.9427200587578,581.5606047272902 L258.6803333885713,584.0704778000054 M258.6803333885713,584.0704778000054 L259.46545262110703,586.5437896160331 M259.46545262110703,586.5437896160331 L261.252461705417,588.836787018472 M261.252461705417,588.836787018472 L263.93752957019484,590.8162067985429 M263.93752957019484,590.8162067985429 L267.3646106528465,592.3669992131338 M267.3646106528465,592.3669992131338 L271.3345287720259,593.399023100566 M271.3345287720259,593.399023100566 L275.61656418625654,593.852296749581 M275.61656418625654,593.852296749581 L279.9618249588342,593.7004683888827 M279.9618249588342,593.7004683888827 L284.117758239116,592.9523614481202 M284.117758239116,592.9523614481202 L287.84283396574136,591.6514676684167 M287.84283396574136,591.6514676684167 L290.92054100292796,589.8733963738468 M290.92054100292796,589.8733963738468 L293.1720166582006,587.7214937648607 M293.1720166582006,587.7214937648607 L294.4664331930159,585.3208387484917 M294.4664331930159,585.3208387484917 L294.7285670604066,582.810947945324 M294.7285670604066,582.810947945324 L293.9432077033589,580.3376894624491 M293.9432077033589,580.3376894624491 L292.1560297765442,578.0448021625507 M292.1560297765442,578.0448021625507 L289.4709020159691,576.0655246175645 M294.58573470292106,574.7804222083996 L294.5830847299415,593.7664926309781 M301.1248715582338,560.6756738384117 L301.1220462147281,579.6613662676837 M289.4734146699997,557.0799285555349 L289.4709020159691,576.0655246175645" stroke="black"  stroke-width="4"  fill="red"/>
<path d="" stroke="black"  stroke-width="4"  fill="red"/>
<path d="M310.78449593730033,333.4452329023852 L313.84150922762853,335.6380992387805 M313.84150922762853,335.6380992387805 L316.72073517880676,338.56070903575755 M316.72073517880676,338.56070903575755 L319.2548387063001,342.0432198643876 M319.2548387063001,342.0432198643876 L321.296521185898,345.88321900496993 M321.296521185898,345.88321900496993 L322.7271161581456,349.857523011794 M322.7271161581456,349.857523011794 L323.4634940274598,353.7351321708307 M323.4634940274598,353.7351321708307 L323.46285283404916,357.2906915386749 M323.46285283404916,357.2906915386749 L322.72524073969646,360.31754298797006 M322.72524073969646,360.31754298797006 L321.2935507201487,362.639804678076 M321.2935507201487,362.639804678076 L319.2509883948346,364.12250230031816 M319.2509883948346,364.12250230031816 L316.71627398059,364.67948972921886 M316.71627398059,364.67948972921886 L313.836733875561,364.2784237999514 M313.836733875561,364.2784237999514 L310.77970510813884,362.94263499873307 M310.77970510813884,362.94263499873307 L307.7228460402849,360.7497500282983 M307.7228460402849,360.7497500282983 L304.8437999543293,357.8272314744551 M304.8437999543293,357.8272314744551 L302.3098607305735,354.3449008643494 M302.3098607305735,354.3449008643494 L300.26828935232953,350.50512963174555 M300.26828935232953,350.50512963174555 L298.8377268266617,346.53104901127665 M298.8377268266617,346.53104901127665 L298.101295317791,342.65360754150237 M298.101295317791,342.65360754150237 L298.1018090721255,339.09812175064303 M298.1018090721255,339.09812175064303 L298.83924912324875,336.0712329101025 M298.83924912324875,336.0712329101025 L300.27076190846367,333.7488314268895 M300.27076190846367,333.7488314268895 L302.31318241033546,332.26592363407525 M302.31318241033546,332.26592363407525 L304.84782290226826,331.70870380490993 M304.84782290226826,331.70870380490993 L307.7273739208077,332.10956834489053 M307.7273739208077,332.10956834489053 L310.78449593730033,333.4452329023852 M310.78449593730033,333.4452329023852 L344.8343975546769,313.78733257788406 M344.8343975546769,313.78733257788406 L341.77725499535984,312.45185218393215 M341.77725499535984,312.45185218393215 L338.89764339701253,312.0511372756551 M338.89764339701253,312.0511372756551 L336.36290580924936,312.60846351039436 M336.36290580924936,312.60846351039436 L334.32035733949783,314.0914282999496 M334.32035733949783,314.0914282999496 L332.88869315239754,316.4138340604854 M332.88869315239754,316.4138340604854 L332.15108706610954,319.4406742134443 M332.15108706610954,319.4406742134443 L332.15040229237616,322.99606118112786 M332.15040229237616,322.99606118112786 L332.88666773739305,326.87335943581036 M332.88666773739305,326.87335943581036 L334.31707880434,330.8472607716315 M334.31707880434,330.8472607716315 L336.35852213103317,334.68682706723445 M336.35852213103317,334.68682706723445 L338.8923641509117,338.168938996106 M338.8923641509117,338.168938996106 L341.7713495286531,341.09123783222236 M341.7713495286531,341.09123783222236 L344.82818791077386,343.2839148152735 M344.82818791077386,343.2839148152735 L347.88523721764113,344.6195194470755 M347.88523721764113,344.6195194470755 L350.76483789309646,345.0204357283742 M350.76483789309646,345.0204357283742 L353.29964938993703,344.4633418709692 M353.29964938993703,344.4633418709692 L355.34233966907516,342.98058722764347 M355.34233966907516,342.98058722764347 L356.77418107885137,340.65832124003646 M356.77418107885137,340.65832124003646 L357.5119592017812,337.6315184669316 M357.5119592017812,337.6315184669316 L357.5127714145817,334.0760579222684 M357.5127714145817,334.0760579222684 L356.7765596156927,330.19859198972415 M356.7765596156927,330.19859198972415 L355.3461161138123,326.22446728773207 M355.3461161138123,326.22446728773207 L353.3045616998187,322.38467310849467 M353.3045616998187,322.38467310849467 L350.77055538944364,318.90238098402534 M350.77055538944364,318.90238098402534 L347.8913901558748,315.9799909210323 M347.8913901558748,315.9799909210323 L344.8343975546769,313.78733257788406 M263.95449575907145,414.5571725295373 L261.26875884908463,412.5782454110203 M261.26875884908463,412.5782454110203 L259.4813044516111,410.2858187239591 M259.4813044516111,410.2858187239591 L258.6959895085127,407.81312251094283 M258.6959895085127,407.81312251094283 L258.9584414366064,405.30387415007243 M258.9584414366064,405.30387415007243 L260.25338897661817,402.90390079415005 M260.25338897661817,402.90390079415005 L262.5055438456921,400.7526640261665 M262.5055438456921,400.7526640261665 L265.58401757493795,398.9751823723322 M265.58401757493795,398.9751823723322 L269.3099029093884,397.6747426165359 M269.3099029093884,397.6747426165359 L273.4666629076736,396.92690484401896 M273.4666629076736,396.92690484401896 L277.8127533320807,396.77513200169636 M277.8127533320807,396.77513200169636 L282.09561533236456,397.22824184789516 M282.09561533236456,397.22824184789516 L286.06635359360524,398.25989877492947 M286.06635359360524,398.25989877492947 L289.4942285813475,399.8101618064504 M263.95449575907145,414.5571725295373 L265.12966756845606,401.8463585552094 M265.12966756845606,401.8463585552094 L268.59398593685876,388.4168703792398 M268.59398593685876,388.4168703792398 L274.17375377063365,374.94228094336 M274.17375377063365,374.94228094336 L281.58912479270816,362.0984733727608 M281.58912479270816,362.0984733727608 L290.46814153232145,350.52971506977843 M290.46814153232145,350.52971506977843 L300.36541753579235,340.8162528846174 M300.36541753579235,340.8162528846174 L310.78449593730033,333.4452329023852 M289.4942285813475,399.8101618064504 L292.18002541722433,401.78894668971253 M292.18002541722433,401.78894668971253 L293.9676487413353,404.0812632742145 M293.9676487413353,404.0812632742145 L294.75320392809795,406.55390615436073 M294.75320392809795,406.55390615436073 L294.49100492877994,409.06317224568664 M294.49100492877994,409.06317224568664 L293.1962660743331,411.4632297472966 M293.1962660743331,411.4632297472966 L290.9442296384985,413.6145967620334 M290.9442296384985,413.6145967620334 L287.8657559428803,415.3922255113988 M287.8657559428803,415.3922255113988 L284.13975223474216,416.6927955137065 M284.13975223474216,416.6927955137065 L279.98278358909755,417.44071626039437 M279.98278358909755,417.44071626039437 L275.6364402440212,417.59250683308727 M275.6364402440212,417.59250683308727 L271.3533379762237,417.13934599778935 M271.3533379762237,417.13934599778935 L267.38243073800436,416.1075789683067 M267.38243073800436,416.1075789683067 L263.95449575907145,414.5571725295373 M289.4942285813475,399.8101618064504 L289.4630111831665,635.6886013943913 M289.4630111831665,635.6886013943913 L286.03627890454527,634.1378219076751 M286.03627890454527,634.1378219076751 L282.06686424558745,633.1058212915627 M282.06686424558745,633.1058212915627 L277.7854298310551,632.652560494447 M277.7854298310551,632.652560494447 L273.440788019578,632.8043838990548 M273.440788019578,632.8043838990548 L269.2854134871959,633.5524708089663 M269.2854134871959,633.5524708089663 L265.5607699698654,634.8533437954809 M265.5607699698654,634.8533437954809 L262.4833222417536,636.6314175974292 M262.4833222417536,636.6314175974292 L260.2319179311862,638.7833710178938 M260.2319179311862,638.7833710178938 L258.93740188347675,641.1841438788924 M258.93740188347675,641.1841438788924 L258.6750372885301,643.6942281361014 M258.6750372885301,643.6942281361014 L259.4600903167618,646.1677480573696 M259.4600903167618,646.1677480573696 L261.2469487620322,648.4609383907348 M261.2469487620322,648.4609383907348 L263.93179030443963,650.4405247155535 M263.93179030443963,650.4405247155535 L267.3585825339157,651.991447609669 M267.3585825339157,651.991447609669 L271.3281660572137,653.0235583281951 M271.3281660572137,653.0235583281951 L275.6098405797836,653.4768701140033 M275.6098405797836,653.4768701140033 L279.95473514334924,653.3250289790308 M279.95473514334924,653.3250289790308 L284.11031818368684,652.5768590951698 M284.11031818368684,652.5768590951698 L287.83507999581406,651.2758558621845 M287.83507999581406,651.2758558621845 L290.9125276903316,649.4976349647511 M290.9125276903316,649.4976349647511 L293.1638136466103,647.3455512975738 M293.1638136466103,647.3455512975738 L294.45812114819716,644.9446942907184 M294.45812114819716,644.9446942907184 L294.72023298295704,642.4345923030594 M294.72023298295704,642.4345923030594 L293.934939870513,639.9611257150355 M293.934939870513,639.9611257150355 L292.14791261119336,637.6680454841953 M292.14791261119336,637.6680454841953 L289.4630111831665,635.6886013943913" stroke="black"  stroke-width="4"  fill="red"/></svg>